M48
;GenerationSoftware,Autodesk,EAGLE,9.6.2*%
;CreationDate,2020-12-19T04:11:15Z*%
FMAT,2
ICI,OFF
METRIC,TZ,000.000
T7C0.305
T6C0.350
T5C0.813
T4C0.889
T3C0.900
T2C1.000
T1C1.100
%
G90
M71
T1
X41656Y14478
X26416Y22098
T2
X5647Y35773
X13647Y35773
T3
X34036Y14478
X39116Y22098
X39116Y14478
X28956Y22098
X34036Y22098
X28956Y14478
T4
X24486Y1168
X27026Y1168
T5
X45720Y18288
X48260Y18288
T6
X16002Y7010
X36424Y7010
X14732Y17170
X12192Y15900
X17272Y10820
X12192Y5740
X7112Y10820
X8382Y7010
X16002Y14630
X8369Y14630
X3302Y12090
X19812Y12090
X21082Y12090
X1473Y24232
X9804Y26797
X12827Y29083
X9042Y29108
X45999Y12878
X42088Y7010
X19812Y9550
X21082Y9550
X18542Y8280
X10770Y27356
X8179Y28346
X13183Y27813
X17272Y19710
X20320Y36754
X42164Y4420
X44196Y3277
X45720Y16231
X18542Y7036
T7
X32766Y22098
X3302Y18440
X14224Y23825
X4547Y19710
X10922Y23825
X4191Y21285
X8738Y23774
X3302Y8280
X37643Y22098
X3302Y10770
X3429Y22276
X9652Y10795
X14732Y10795
X12192Y9525
X12192Y13335
X23876Y30734
X30226Y22098
X28600Y4953
X11989Y26822
X45999Y14783
X34823Y4115
X42113Y5512
X45212Y5334
X32766Y14478
X13106Y23825
M30