G04 EAGLE Gerber RS-274X export*
G75*
%MOMM*%
%FSLAX34Y34*%
%LPD*%
%INBottom Copper*%
%IPPOS*%
%AMOC8*
5,1,8,0,0,1.08239X$1,22.5*%
G01*
%ADD10R,1.509600X1.509600*%
%ADD11R,0.497841X0.500000*%
%ADD12R,0.300000X0.500000*%
%ADD13R,0.500000X0.600000*%
%ADD14P,1.649562X8X202.500000*%
%ADD15R,0.600000X0.500000*%
%ADD16C,1.422400*%
%ADD17C,0.914400*%
%ADD18C,0.959600*%
%ADD19C,0.254000*%
%ADD20C,0.152400*%
%ADD21C,0.812800*%

G36*
X12232Y232077D02*
X12232Y232077D01*
X17232Y232077D01*
X22742Y232077D01*
X22861Y232092D01*
X22979Y232099D01*
X23018Y232111D01*
X23058Y232116D01*
X23169Y232160D01*
X23282Y232197D01*
X23316Y232219D01*
X23354Y232233D01*
X23450Y232303D01*
X23551Y232367D01*
X23551Y232368D01*
X23578Y232397D01*
X23611Y232420D01*
X23611Y232421D01*
X23612Y232421D01*
X23687Y232513D01*
X23769Y232599D01*
X23789Y232635D01*
X23814Y232666D01*
X23865Y232773D01*
X23923Y232878D01*
X23933Y232917D01*
X23950Y232953D01*
X23972Y233070D01*
X24002Y233186D01*
X24006Y233246D01*
X24010Y233266D01*
X24008Y233286D01*
X24012Y233346D01*
X24012Y238387D01*
X24892Y238387D01*
X25010Y238402D01*
X25129Y238409D01*
X25167Y238422D01*
X25208Y238427D01*
X25318Y238470D01*
X25431Y238507D01*
X25466Y238529D01*
X25503Y238544D01*
X25599Y238613D01*
X25700Y238677D01*
X25728Y238707D01*
X25761Y238730D01*
X25837Y238822D01*
X25918Y238909D01*
X25938Y238944D01*
X25963Y238975D01*
X26014Y239083D01*
X26072Y239187D01*
X26082Y239227D01*
X26099Y239263D01*
X26121Y239380D01*
X26151Y239495D01*
X26155Y239555D01*
X26159Y239575D01*
X26157Y239596D01*
X26158Y239610D01*
X26159Y239612D01*
X26159Y239614D01*
X26161Y239656D01*
X26161Y242824D01*
X26149Y242922D01*
X26146Y243021D01*
X26129Y243079D01*
X26121Y243140D01*
X26085Y243232D01*
X26057Y243327D01*
X26027Y243379D01*
X26004Y243435D01*
X25946Y243515D01*
X25896Y243601D01*
X25830Y243676D01*
X25818Y243693D01*
X25808Y243700D01*
X25790Y243722D01*
X20456Y249056D01*
X20377Y249116D01*
X20305Y249184D01*
X20252Y249213D01*
X20204Y249250D01*
X20113Y249290D01*
X20027Y249338D01*
X19968Y249353D01*
X19912Y249377D01*
X19814Y249392D01*
X19719Y249417D01*
X19619Y249423D01*
X19598Y249427D01*
X19586Y249425D01*
X19558Y249427D01*
X10160Y249427D01*
X10062Y249415D01*
X9963Y249412D01*
X9905Y249395D01*
X9844Y249387D01*
X9752Y249351D01*
X9657Y249323D01*
X9605Y249293D01*
X9549Y249270D01*
X9469Y249212D01*
X9383Y249162D01*
X9308Y249096D01*
X9291Y249084D01*
X9284Y249074D01*
X9263Y249056D01*
X3675Y243468D01*
X3614Y243389D01*
X3546Y243317D01*
X3517Y243264D01*
X3480Y243216D01*
X3440Y243125D01*
X3392Y243039D01*
X3377Y242980D01*
X3353Y242924D01*
X3338Y242826D01*
X3313Y242731D01*
X3307Y242631D01*
X3303Y242610D01*
X3305Y242598D01*
X3303Y242570D01*
X3303Y239656D01*
X3318Y239538D01*
X3325Y239419D01*
X3338Y239381D01*
X3343Y239340D01*
X3386Y239230D01*
X3423Y239117D01*
X3445Y239082D01*
X3460Y239045D01*
X3530Y238949D01*
X3593Y238848D01*
X3623Y238820D01*
X3646Y238787D01*
X3738Y238711D01*
X3825Y238630D01*
X3860Y238610D01*
X3891Y238585D01*
X3999Y238534D01*
X4103Y238476D01*
X4143Y238466D01*
X4179Y238449D01*
X4296Y238427D01*
X4411Y238397D01*
X4472Y238393D01*
X4492Y238389D01*
X4512Y238391D01*
X4572Y238387D01*
X5452Y238387D01*
X5452Y233346D01*
X5467Y233228D01*
X5474Y233109D01*
X5487Y233071D01*
X5492Y233031D01*
X5535Y232920D01*
X5572Y232807D01*
X5594Y232773D01*
X5609Y232735D01*
X5679Y232639D01*
X5742Y232538D01*
X5743Y232538D01*
X5772Y232510D01*
X5795Y232478D01*
X5796Y232477D01*
X5888Y232401D01*
X5974Y232320D01*
X6010Y232300D01*
X6041Y232274D01*
X6149Y232224D01*
X6253Y232166D01*
X6292Y232156D01*
X6329Y232139D01*
X6445Y232117D01*
X6561Y232087D01*
X6621Y232083D01*
X6641Y232079D01*
X6661Y232080D01*
X6722Y232077D01*
X12232Y232077D01*
X12232Y232077D01*
G37*
%LPC*%
G36*
X17232Y234615D02*
X17232Y234615D01*
X12232Y234615D01*
X7991Y234615D01*
X7991Y238387D01*
X9545Y238387D01*
X9643Y238361D01*
X9734Y238348D01*
X9824Y238326D01*
X9891Y238326D01*
X9958Y238317D01*
X10049Y238328D01*
X10142Y238329D01*
X10257Y238352D01*
X10274Y238354D01*
X10281Y238357D01*
X10300Y238361D01*
X10398Y238387D01*
X10963Y238387D01*
X10963Y238213D01*
X10971Y238144D01*
X10970Y238075D01*
X10991Y237987D01*
X11002Y237897D01*
X11028Y237833D01*
X11044Y237766D01*
X11086Y237686D01*
X11119Y237601D01*
X11160Y237546D01*
X11192Y237485D01*
X11293Y237359D01*
X11300Y237352D01*
X11306Y237344D01*
X11307Y237344D01*
X11422Y237248D01*
X11535Y237152D01*
X11544Y237147D01*
X11552Y237141D01*
X11686Y237078D01*
X11820Y237012D01*
X11830Y237010D01*
X11839Y237005D01*
X11986Y236977D01*
X12132Y236947D01*
X12142Y236948D01*
X12152Y236946D01*
X12301Y236955D01*
X12449Y236962D01*
X12459Y236965D01*
X12469Y236965D01*
X12611Y237011D01*
X12753Y237055D01*
X12762Y237060D01*
X12772Y237063D01*
X12898Y237143D01*
X13025Y237221D01*
X13032Y237228D01*
X13040Y237234D01*
X13142Y237342D01*
X13246Y237449D01*
X13251Y237458D01*
X13258Y237465D01*
X13330Y237595D01*
X13404Y237725D01*
X13407Y237735D01*
X13412Y237744D01*
X13449Y237887D01*
X13488Y238032D01*
X13489Y238042D01*
X13491Y238052D01*
X13501Y238212D01*
X13501Y238387D01*
X14066Y238387D01*
X14403Y238296D01*
X14495Y238284D01*
X14585Y238262D01*
X14652Y238262D01*
X14719Y238253D01*
X14810Y238264D01*
X14903Y238265D01*
X15018Y238288D01*
X15034Y238290D01*
X15042Y238293D01*
X15061Y238296D01*
X15398Y238387D01*
X15963Y238387D01*
X15963Y238212D01*
X15964Y238202D01*
X15963Y238192D01*
X15984Y238045D01*
X16002Y237897D01*
X16006Y237887D01*
X16008Y237877D01*
X16065Y237739D01*
X16119Y237601D01*
X16125Y237593D01*
X16129Y237584D01*
X16219Y237464D01*
X16306Y237344D01*
X16314Y237337D01*
X16320Y237329D01*
X16436Y237236D01*
X16551Y237141D01*
X16560Y237137D01*
X16568Y237130D01*
X16705Y237068D01*
X16839Y237005D01*
X16849Y237004D01*
X16858Y236999D01*
X17006Y236973D01*
X17151Y236946D01*
X17161Y236946D01*
X17171Y236944D01*
X17320Y236956D01*
X17469Y236965D01*
X17478Y236968D01*
X17488Y236969D01*
X17630Y237018D01*
X17771Y237063D01*
X17780Y237069D01*
X17789Y237072D01*
X17914Y237154D01*
X18040Y237234D01*
X18047Y237241D01*
X18055Y237246D01*
X18171Y237359D01*
X18211Y237415D01*
X18258Y237465D01*
X18258Y237466D01*
X18302Y237545D01*
X18354Y237619D01*
X18378Y237684D01*
X18412Y237744D01*
X18434Y237832D01*
X18466Y237917D01*
X18474Y237985D01*
X18491Y238052D01*
X18501Y238213D01*
X18501Y238387D01*
X19066Y238387D01*
X19164Y238361D01*
X19256Y238348D01*
X19345Y238326D01*
X19413Y238326D01*
X19479Y238317D01*
X19571Y238328D01*
X19664Y238329D01*
X19778Y238352D01*
X19795Y238354D01*
X19803Y238357D01*
X19821Y238361D01*
X19919Y238387D01*
X21473Y238387D01*
X21473Y234615D01*
X17232Y234615D01*
X17232Y234615D01*
G37*
%LPD*%
D10*
X289560Y144780D03*
X340360Y144780D03*
X340360Y220980D03*
X289560Y220980D03*
X391160Y144780D03*
X391160Y220980D03*
D11*
X117739Y283544D03*
D12*
X112228Y283544D03*
X107228Y283544D03*
D11*
X101717Y283544D03*
X101717Y293544D03*
D12*
X107228Y293544D03*
X112228Y293544D03*
D11*
X117739Y293544D03*
X22743Y223346D03*
D12*
X17232Y223346D03*
X12232Y223346D03*
D11*
X6721Y223346D03*
X6721Y233346D03*
D12*
X12232Y233346D03*
X17232Y233346D03*
D11*
X22743Y233346D03*
D13*
X360252Y144780D03*
X370252Y144780D03*
D14*
X270256Y11684D03*
X244856Y11684D03*
D15*
X286004Y40052D03*
X286004Y30052D03*
D16*
X457200Y175768D02*
X457200Y189992D01*
X482600Y189992D02*
X482600Y175768D01*
D15*
X482600Y154004D03*
X482600Y164004D03*
D13*
X168990Y62230D03*
X178990Y62230D03*
D17*
X302260Y220980D03*
X327660Y220980D03*
X327660Y144780D03*
X452120Y53340D03*
X421132Y55118D03*
X348234Y41148D03*
X459994Y147828D03*
X119888Y268224D03*
X238760Y307340D03*
X286004Y49530D03*
D18*
X147320Y171704D03*
X121920Y159004D03*
X172720Y108204D03*
X121920Y57404D03*
X71120Y108204D03*
X83820Y70104D03*
X160020Y70104D03*
X160020Y146304D03*
X83693Y146304D03*
D19*
X286004Y49530D02*
X286004Y40640D01*
X327660Y144780D02*
X360172Y144780D01*
D18*
X33020Y120904D03*
X198120Y120904D03*
X210820Y120904D03*
D20*
X168910Y62230D02*
X162052Y62230D01*
X160020Y64262D01*
X160020Y70104D01*
D17*
X121920Y133350D03*
X121920Y95250D03*
X147320Y107950D03*
X96520Y107950D03*
D18*
X14732Y242316D03*
X98044Y267970D03*
D21*
X91186Y291592D02*
X92202Y292608D01*
X126492Y292608D01*
X127508Y291592D01*
D19*
X12192Y238506D02*
X12192Y233426D01*
X17272Y233426D02*
X17272Y238252D01*
D17*
X376428Y220980D03*
D18*
X128270Y290830D03*
X90424Y291084D03*
X459994Y128778D03*
X420878Y70104D03*
X198120Y95504D03*
X210820Y95504D03*
X185420Y82804D03*
D17*
X33020Y82804D03*
D19*
X33020Y11684D02*
X244856Y11684D01*
X33020Y11684D02*
X33020Y82804D01*
X270256Y22860D02*
X270256Y11684D01*
X270256Y22860D02*
X45720Y22860D01*
X45720Y107696D01*
X33020Y107696D01*
D17*
X33020Y107696D03*
D19*
X270256Y22860D02*
X278892Y22860D01*
X286004Y29972D01*
D17*
X45466Y197104D03*
X109220Y238252D03*
D20*
X49276Y223774D02*
X49276Y200914D01*
X45466Y197104D01*
X49276Y223774D02*
X55626Y230124D01*
X101092Y230124D01*
X109220Y238252D01*
X45466Y197104D02*
X22352Y197104D01*
X12192Y207264D01*
X12192Y223266D01*
D17*
X41910Y212852D03*
X87376Y237744D03*
D20*
X41910Y212852D02*
X23114Y212852D01*
X17272Y218694D01*
X17272Y223520D01*
X41910Y223012D02*
X41910Y212852D01*
X41910Y223012D02*
X56642Y237744D01*
X87376Y237744D01*
X107696Y273558D02*
X107696Y283210D01*
D18*
X107696Y273558D03*
X81788Y283464D03*
D20*
X101854Y283464D01*
D17*
X34290Y222758D03*
X131064Y238252D03*
D20*
X56896Y245364D02*
X34290Y222758D01*
X56896Y245364D02*
X123952Y245364D01*
X131064Y238252D01*
X34290Y222758D02*
X23368Y222758D01*
X22860Y223266D01*
D17*
X33020Y184404D03*
X142240Y238252D03*
D20*
X44196Y184150D02*
X22860Y184150D01*
X44196Y184150D02*
X53340Y193294D01*
X53340Y219710D01*
X58674Y225044D01*
X129032Y225044D01*
X142240Y238252D01*
X22860Y184150D02*
X6604Y200406D01*
X6604Y223012D01*
X112268Y280416D02*
X112268Y283972D01*
X112268Y280416D02*
X114554Y278130D01*
X131826Y278130D01*
D18*
X131826Y278130D03*
X172720Y197104D03*
X203200Y367538D03*
D19*
X370586Y144780D02*
X391160Y144780D01*
X482600Y164084D02*
X482600Y182626D01*
X482600Y153924D02*
X482600Y53086D01*
X473710Y44196D01*
X421640Y44196D01*
D18*
X421640Y44196D03*
X441960Y32766D03*
X364236Y70104D03*
X457200Y162306D03*
X185420Y70358D03*
D20*
X185420Y64008D01*
X183642Y62230D01*
X179070Y62230D01*
M02*
