G04 EAGLE Gerber RS-274X export*
G75*
%MOMM*%
%FSLAX34Y34*%
%LPD*%
%INCopper Layer 15*%
%IPPOS*%
%AMOC8*
5,1,8,0,0,1.08239X$1,22.5*%
G01*
%ADD10C,1.500000*%
%ADD11C,1.524000*%
%ADD12C,1.137919*%
%ADD13C,0.609600*%
%ADD14C,0.654800*%


D10*
X289560Y144780D03*
X340360Y144780D03*
X340360Y220980D03*
X289560Y220980D03*
X391160Y144780D03*
X391160Y220980D03*
D11*
X270256Y11684D03*
X244856Y11684D03*
D12*
X457200Y182880D03*
X482600Y182880D03*
D13*
X302260Y220980D03*
X327660Y220980D03*
X327660Y144780D03*
X452120Y53340D03*
X421132Y55118D03*
X348234Y41148D03*
X459994Y147828D03*
X119888Y268224D03*
X238760Y307340D03*
X286004Y49530D03*
D14*
X147320Y171704D03*
X121920Y159004D03*
X172720Y108204D03*
X121920Y57404D03*
X71120Y108204D03*
X83820Y70104D03*
X160020Y70104D03*
X160020Y146304D03*
X83693Y146304D03*
X33020Y120904D03*
X198120Y120904D03*
X210820Y120904D03*
D13*
X121920Y133350D03*
X121920Y95250D03*
X147320Y107950D03*
X96520Y107950D03*
D14*
X14732Y242316D03*
X98044Y267970D03*
D13*
X376428Y220980D03*
D14*
X128270Y290830D03*
X90424Y291084D03*
X459994Y128778D03*
X420878Y70104D03*
X198120Y95504D03*
X210820Y95504D03*
X185420Y82804D03*
D13*
X33020Y82804D03*
X33020Y107696D03*
X45466Y197104D03*
X109220Y238252D03*
X41910Y212852D03*
X87376Y237744D03*
D14*
X107696Y273558D03*
X81788Y283464D03*
D13*
X34290Y222758D03*
X131064Y238252D03*
X33020Y184404D03*
X142240Y238252D03*
D14*
X131826Y278130D03*
X172720Y197104D03*
X203200Y367538D03*
X421640Y44196D03*
X441960Y32766D03*
X364236Y70104D03*
X457200Y162306D03*
X185420Y70358D03*
M02*
