G04 EAGLE Gerber RS-274X export*
G75*
%MOMM*%
%FSLAX34Y34*%
%LPD*%
%INTop Copper*%
%IPPOS*%
%AMOC8*
5,1,8,0,0,1.08239X$1,22.5*%
G01*
%ADD10C,0.500000*%
%ADD11R,1.509600X1.509600*%
%ADD12R,0.600000X0.500000*%
%ADD13R,0.700000X1.600000*%
%ADD14R,1.200000X1.600000*%
%ADD15R,1.200000X2.200000*%
%ADD16R,1.600000X1.400000*%
%ADD17R,1.500000X1.000000*%
%ADD18P,1.649562X8X202.500000*%
%ADD19R,1.100000X0.600000*%
%ADD20R,1.900000X1.800000*%
%ADD21R,1.900000X1.900000*%
%ADD22R,1.600000X2.100000*%
%ADD23R,1.350000X0.400000*%
%ADD24R,1.100000X1.000000*%
%ADD25R,1.000000X1.100000*%
%ADD26R,0.500000X0.600000*%
%ADD27C,1.422400*%
%ADD28R,1.600000X1.200000*%
%ADD29R,1.600000X0.600000*%
%ADD30C,0.254000*%
%ADD31C,0.508000*%
%ADD32C,0.914400*%
%ADD33C,0.959600*%
%ADD34C,0.152400*%
%ADD35C,0.406400*%

G36*
X58340Y122804D02*
X58340Y122804D01*
X58322Y122812D01*
X58307Y122825D01*
X58211Y122864D01*
X58117Y122907D01*
X58097Y122909D01*
X58079Y122917D01*
X57912Y122935D01*
X21336Y122935D01*
X21316Y122932D01*
X21297Y122934D01*
X21195Y122912D01*
X21093Y122896D01*
X21076Y122886D01*
X21056Y122882D01*
X20967Y122829D01*
X20876Y122780D01*
X20862Y122766D01*
X20845Y122756D01*
X20778Y122677D01*
X20707Y122602D01*
X20698Y122584D01*
X20685Y122569D01*
X20646Y122473D01*
X20603Y122379D01*
X20601Y122359D01*
X20593Y122341D01*
X20575Y122174D01*
X20575Y116838D01*
X20590Y116742D01*
X20600Y116645D01*
X20610Y116621D01*
X20615Y116595D01*
X20660Y116509D01*
X20700Y116420D01*
X20717Y116401D01*
X20730Y116378D01*
X20800Y116311D01*
X20866Y116239D01*
X20889Y116226D01*
X20908Y116208D01*
X20996Y116167D01*
X21082Y116120D01*
X21107Y116116D01*
X21131Y116105D01*
X21228Y116094D01*
X21324Y116077D01*
X21350Y116081D01*
X21375Y116078D01*
X21471Y116098D01*
X21567Y116112D01*
X21590Y116124D01*
X21616Y116130D01*
X21699Y116180D01*
X21786Y116224D01*
X21805Y116243D01*
X21827Y116256D01*
X21890Y116330D01*
X21958Y116400D01*
X21974Y116428D01*
X21987Y116443D01*
X21999Y116474D01*
X22039Y116547D01*
X22203Y116942D01*
X22755Y117767D01*
X23457Y118469D01*
X24282Y119021D01*
X25200Y119401D01*
X25421Y119445D01*
X25421Y115803D01*
X21336Y115803D01*
X21316Y115800D01*
X21297Y115802D01*
X21195Y115780D01*
X21093Y115764D01*
X21076Y115754D01*
X21056Y115750D01*
X20967Y115697D01*
X20876Y115648D01*
X20862Y115634D01*
X20845Y115624D01*
X20778Y115545D01*
X20707Y115470D01*
X20698Y115452D01*
X20685Y115437D01*
X20646Y115341D01*
X20603Y115247D01*
X20601Y115227D01*
X20593Y115209D01*
X20575Y115042D01*
X20575Y114066D01*
X20578Y114046D01*
X20576Y114026D01*
X20598Y113925D01*
X20615Y113823D01*
X20624Y113806D01*
X20628Y113786D01*
X20681Y113697D01*
X20730Y113606D01*
X20744Y113592D01*
X20754Y113575D01*
X20833Y113508D01*
X20908Y113436D01*
X20926Y113428D01*
X20941Y113415D01*
X21037Y113376D01*
X21131Y113333D01*
X21151Y113331D01*
X21169Y113323D01*
X21336Y113305D01*
X26182Y113305D01*
X26201Y113308D01*
X26221Y113306D01*
X26323Y113328D01*
X26425Y113344D01*
X26442Y113354D01*
X26462Y113358D01*
X26551Y113411D01*
X26642Y113460D01*
X26656Y113474D01*
X26673Y113484D01*
X26676Y113488D01*
X26730Y113436D01*
X26748Y113428D01*
X26763Y113415D01*
X26860Y113376D01*
X26953Y113333D01*
X26973Y113331D01*
X26991Y113323D01*
X27158Y113305D01*
X30478Y113305D01*
X30542Y113315D01*
X30608Y113316D01*
X30688Y113339D01*
X30720Y113344D01*
X30738Y113354D01*
X30769Y113363D01*
X31807Y113793D01*
X34233Y113793D01*
X35271Y113363D01*
X35335Y113348D01*
X35396Y113323D01*
X35478Y113314D01*
X35511Y113306D01*
X35530Y113308D01*
X35562Y113305D01*
X38882Y113305D01*
X38901Y113308D01*
X38921Y113306D01*
X39023Y113328D01*
X39125Y113344D01*
X39142Y113354D01*
X39162Y113358D01*
X39251Y113411D01*
X39342Y113460D01*
X39356Y113474D01*
X39373Y113484D01*
X39376Y113488D01*
X39430Y113436D01*
X39448Y113428D01*
X39463Y113415D01*
X39560Y113376D01*
X39653Y113333D01*
X39673Y113331D01*
X39691Y113323D01*
X39858Y113305D01*
X44261Y113305D01*
X44217Y113084D01*
X43837Y112166D01*
X43285Y111341D01*
X42583Y110639D01*
X41758Y110087D01*
X40840Y109707D01*
X39853Y109511D01*
X39839Y109512D01*
X39737Y109490D01*
X39635Y109474D01*
X39618Y109464D01*
X39598Y109460D01*
X39509Y109407D01*
X39418Y109358D01*
X39404Y109344D01*
X39387Y109334D01*
X39320Y109255D01*
X39248Y109180D01*
X39240Y109162D01*
X39227Y109147D01*
X39188Y109051D01*
X39145Y108957D01*
X39143Y108937D01*
X39135Y108919D01*
X39117Y108752D01*
X39117Y107656D01*
X39120Y107638D01*
X39118Y107620D01*
X39118Y107619D01*
X39118Y107616D01*
X39140Y107515D01*
X39156Y107413D01*
X39166Y107395D01*
X39170Y107376D01*
X39223Y107287D01*
X39272Y107196D01*
X39286Y107182D01*
X39296Y107165D01*
X39375Y107098D01*
X39450Y107026D01*
X39468Y107018D01*
X39483Y107005D01*
X39579Y106966D01*
X39673Y106923D01*
X39693Y106921D01*
X39712Y106913D01*
X39852Y106898D01*
X40840Y106701D01*
X41758Y106321D01*
X42583Y105769D01*
X43285Y105067D01*
X43837Y104242D01*
X44217Y103324D01*
X44261Y103103D01*
X39858Y103103D01*
X39839Y103100D01*
X39819Y103102D01*
X39717Y103080D01*
X39615Y103064D01*
X39598Y103054D01*
X39578Y103050D01*
X39489Y102997D01*
X39398Y102948D01*
X39384Y102934D01*
X39367Y102924D01*
X39300Y102845D01*
X39229Y102770D01*
X39220Y102752D01*
X39207Y102737D01*
X39169Y102641D01*
X39125Y102547D01*
X39123Y102527D01*
X39115Y102509D01*
X39097Y102342D01*
X39097Y101366D01*
X39100Y101346D01*
X39098Y101326D01*
X39120Y101225D01*
X39137Y101123D01*
X39146Y101106D01*
X39150Y101086D01*
X39203Y100997D01*
X39252Y100906D01*
X39266Y100892D01*
X39276Y100875D01*
X39355Y100808D01*
X39430Y100736D01*
X39448Y100728D01*
X39463Y100715D01*
X39560Y100676D01*
X39653Y100633D01*
X39673Y100631D01*
X39691Y100623D01*
X39858Y100605D01*
X44261Y100605D01*
X44217Y100384D01*
X43837Y99466D01*
X43285Y98641D01*
X42973Y98328D01*
X42931Y98270D01*
X42882Y98218D01*
X42860Y98171D01*
X42829Y98129D01*
X42808Y98060D01*
X42778Y97995D01*
X42772Y97943D01*
X42757Y97894D01*
X42759Y97822D01*
X42751Y97751D01*
X42762Y97700D01*
X42763Y97648D01*
X42788Y97580D01*
X42803Y97510D01*
X42830Y97465D01*
X42848Y97417D01*
X42893Y97361D01*
X42929Y97299D01*
X42969Y97265D01*
X43002Y97225D01*
X43062Y97186D01*
X43116Y97139D01*
X43165Y97120D01*
X43208Y97092D01*
X43278Y97074D01*
X43345Y97047D01*
X43416Y97039D01*
X43447Y97031D01*
X43470Y97033D01*
X43511Y97029D01*
X47753Y97029D01*
X47753Y93756D01*
X47772Y93638D01*
X47791Y93519D01*
X47792Y93516D01*
X47793Y93513D01*
X47848Y93409D01*
X47904Y93301D01*
X47906Y93298D01*
X47908Y93296D01*
X47994Y93214D01*
X48081Y93130D01*
X48084Y93129D01*
X48086Y93126D01*
X48194Y93076D01*
X48303Y93024D01*
X48306Y93024D01*
X48309Y93023D01*
X48427Y93010D01*
X48547Y92995D01*
X48550Y92996D01*
X48553Y92996D01*
X48670Y93021D01*
X48788Y93046D01*
X48791Y93047D01*
X48794Y93048D01*
X48803Y93054D01*
X48937Y93123D01*
X49682Y93621D01*
X50600Y94001D01*
X50821Y94045D01*
X50821Y89642D01*
X50824Y89623D01*
X50822Y89603D01*
X50844Y89501D01*
X50860Y89399D01*
X50870Y89382D01*
X50874Y89362D01*
X50927Y89273D01*
X50976Y89182D01*
X50990Y89168D01*
X51000Y89151D01*
X51004Y89148D01*
X50952Y89094D01*
X50944Y89076D01*
X50931Y89061D01*
X50892Y88964D01*
X50849Y88871D01*
X50847Y88851D01*
X50839Y88833D01*
X50821Y88666D01*
X50821Y84263D01*
X50600Y84307D01*
X49682Y84687D01*
X48937Y85185D01*
X48828Y85235D01*
X48719Y85285D01*
X48716Y85286D01*
X48713Y85287D01*
X48593Y85299D01*
X48475Y85312D01*
X48471Y85312D01*
X48468Y85312D01*
X48352Y85286D01*
X48234Y85260D01*
X48231Y85258D01*
X48228Y85258D01*
X48126Y85195D01*
X48023Y85134D01*
X48021Y85132D01*
X48018Y85130D01*
X47940Y85037D01*
X47863Y84947D01*
X47862Y84944D01*
X47860Y84942D01*
X47816Y84831D01*
X47771Y84719D01*
X47771Y84715D01*
X47770Y84713D01*
X47769Y84702D01*
X47753Y84552D01*
X47753Y81056D01*
X47772Y80938D01*
X47791Y80819D01*
X47792Y80816D01*
X47793Y80813D01*
X47848Y80709D01*
X47904Y80601D01*
X47906Y80598D01*
X47908Y80596D01*
X47993Y80515D01*
X48081Y80430D01*
X48084Y80429D01*
X48086Y80426D01*
X48194Y80376D01*
X48303Y80324D01*
X48306Y80324D01*
X48309Y80323D01*
X48427Y80310D01*
X48547Y80295D01*
X48550Y80296D01*
X48553Y80296D01*
X48670Y80321D01*
X48788Y80346D01*
X48791Y80347D01*
X48794Y80348D01*
X48803Y80354D01*
X48937Y80423D01*
X49682Y80921D01*
X50600Y81301D01*
X50821Y81345D01*
X50821Y76942D01*
X50824Y76923D01*
X50822Y76903D01*
X50844Y76801D01*
X50860Y76699D01*
X50870Y76682D01*
X50874Y76662D01*
X50927Y76573D01*
X50976Y76482D01*
X50990Y76468D01*
X51000Y76451D01*
X51004Y76448D01*
X50952Y76394D01*
X50944Y76376D01*
X50931Y76361D01*
X50892Y76264D01*
X50849Y76171D01*
X50847Y76151D01*
X50839Y76133D01*
X50821Y75966D01*
X50821Y71563D01*
X50600Y71607D01*
X49682Y71987D01*
X48937Y72485D01*
X48828Y72535D01*
X48719Y72585D01*
X48716Y72586D01*
X48713Y72587D01*
X48593Y72599D01*
X48475Y72612D01*
X48471Y72612D01*
X48468Y72612D01*
X48352Y72586D01*
X48234Y72560D01*
X48231Y72558D01*
X48228Y72558D01*
X48126Y72495D01*
X48023Y72434D01*
X48021Y72432D01*
X48018Y72430D01*
X47940Y72337D01*
X47863Y72247D01*
X47862Y72244D01*
X47860Y72242D01*
X47816Y72131D01*
X47771Y72019D01*
X47771Y72015D01*
X47770Y72013D01*
X47769Y72002D01*
X47753Y71852D01*
X47753Y70358D01*
X47756Y70338D01*
X47754Y70319D01*
X47776Y70217D01*
X47793Y70115D01*
X47802Y70098D01*
X47806Y70078D01*
X47859Y69989D01*
X47908Y69898D01*
X47922Y69884D01*
X47932Y69867D01*
X48011Y69800D01*
X48086Y69729D01*
X48104Y69720D01*
X48119Y69707D01*
X48215Y69668D01*
X48309Y69625D01*
X48329Y69623D01*
X48347Y69615D01*
X48514Y69597D01*
X69851Y69597D01*
X69851Y57912D01*
X69854Y57892D01*
X69852Y57873D01*
X69874Y57771D01*
X69891Y57669D01*
X69900Y57652D01*
X69904Y57632D01*
X69957Y57543D01*
X70006Y57452D01*
X70020Y57438D01*
X70030Y57421D01*
X70109Y57354D01*
X70184Y57283D01*
X70202Y57274D01*
X70217Y57261D01*
X70313Y57222D01*
X70407Y57179D01*
X70427Y57177D01*
X70445Y57169D01*
X70612Y57151D01*
X109475Y57151D01*
X109475Y53338D01*
X109490Y53242D01*
X109500Y53145D01*
X109510Y53121D01*
X109515Y53095D01*
X109560Y53009D01*
X109600Y52920D01*
X109617Y52901D01*
X109630Y52878D01*
X109700Y52811D01*
X109766Y52739D01*
X109789Y52726D01*
X109808Y52708D01*
X109896Y52667D01*
X109982Y52620D01*
X110007Y52616D01*
X110031Y52605D01*
X110128Y52594D01*
X110224Y52577D01*
X110250Y52581D01*
X110275Y52578D01*
X110371Y52598D01*
X110467Y52612D01*
X110490Y52624D01*
X110516Y52630D01*
X110599Y52680D01*
X110686Y52724D01*
X110705Y52743D01*
X110727Y52756D01*
X110790Y52830D01*
X110858Y52900D01*
X110874Y52928D01*
X110887Y52943D01*
X110899Y52974D01*
X110939Y53047D01*
X111103Y53442D01*
X111655Y54267D01*
X112357Y54969D01*
X113182Y55521D01*
X114100Y55901D01*
X114321Y55945D01*
X114321Y51542D01*
X114324Y51523D01*
X114322Y51503D01*
X114344Y51401D01*
X114360Y51299D01*
X114370Y51282D01*
X114374Y51262D01*
X114427Y51173D01*
X114476Y51082D01*
X114490Y51068D01*
X114500Y51051D01*
X114504Y51048D01*
X114452Y50994D01*
X114444Y50976D01*
X114431Y50961D01*
X114392Y50864D01*
X114349Y50771D01*
X114347Y50751D01*
X114339Y50733D01*
X114321Y50566D01*
X114321Y46163D01*
X114100Y46207D01*
X113182Y46587D01*
X112357Y47139D01*
X111655Y47841D01*
X111103Y48666D01*
X110939Y49061D01*
X110888Y49144D01*
X110842Y49230D01*
X110825Y49247D01*
X110821Y49253D01*
X110820Y49254D01*
X110810Y49270D01*
X110735Y49333D01*
X110664Y49400D01*
X110640Y49411D01*
X110620Y49427D01*
X110529Y49462D01*
X110441Y49503D01*
X110415Y49506D01*
X110391Y49516D01*
X110293Y49520D01*
X110197Y49530D01*
X110171Y49525D01*
X110145Y49526D01*
X110051Y49499D01*
X109956Y49478D01*
X109934Y49465D01*
X109909Y49457D01*
X109829Y49402D01*
X109745Y49352D01*
X109728Y49332D01*
X109707Y49317D01*
X109649Y49239D01*
X109608Y49191D01*
X109607Y49190D01*
X109606Y49190D01*
X109585Y49165D01*
X109575Y49141D01*
X109560Y49120D01*
X109530Y49027D01*
X109522Y49008D01*
X109503Y48967D01*
X109502Y48958D01*
X109493Y48937D01*
X109490Y48904D01*
X109484Y48886D01*
X109484Y48853D01*
X109475Y48770D01*
X109475Y42672D01*
X109478Y42652D01*
X109476Y42633D01*
X109498Y42531D01*
X109515Y42429D01*
X109524Y42412D01*
X109528Y42392D01*
X109581Y42303D01*
X109630Y42212D01*
X109644Y42198D01*
X109654Y42181D01*
X109733Y42114D01*
X109808Y42043D01*
X109826Y42034D01*
X109841Y42021D01*
X109937Y41982D01*
X110031Y41939D01*
X110051Y41937D01*
X110069Y41929D01*
X110236Y41911D01*
X113120Y41911D01*
X113210Y41926D01*
X113301Y41933D01*
X113330Y41945D01*
X113362Y41951D01*
X113443Y41993D01*
X113527Y42029D01*
X113559Y42055D01*
X113580Y42066D01*
X113602Y42089D01*
X113658Y42134D01*
X113903Y42379D01*
X117237Y42379D01*
X117482Y42134D01*
X117556Y42081D01*
X117626Y42021D01*
X117656Y42009D01*
X117682Y41990D01*
X117769Y41963D01*
X117854Y41929D01*
X117895Y41925D01*
X117917Y41918D01*
X117949Y41919D01*
X118020Y41911D01*
X125820Y41911D01*
X125910Y41926D01*
X126001Y41933D01*
X126030Y41945D01*
X126062Y41951D01*
X126143Y41993D01*
X126227Y42029D01*
X126259Y42055D01*
X126280Y42066D01*
X126302Y42089D01*
X126358Y42134D01*
X126603Y42379D01*
X129937Y42379D01*
X130182Y42134D01*
X130256Y42081D01*
X130326Y42021D01*
X130356Y42009D01*
X130382Y41990D01*
X130469Y41963D01*
X130554Y41929D01*
X130595Y41925D01*
X130617Y41918D01*
X130649Y41919D01*
X130720Y41911D01*
X134620Y41911D01*
X134640Y41914D01*
X134659Y41912D01*
X134761Y41934D01*
X134863Y41951D01*
X134880Y41960D01*
X134900Y41964D01*
X134989Y42017D01*
X135080Y42066D01*
X135094Y42080D01*
X135111Y42090D01*
X135178Y42169D01*
X135250Y42244D01*
X135258Y42262D01*
X135271Y42277D01*
X135310Y42373D01*
X135353Y42467D01*
X135355Y42487D01*
X135363Y42505D01*
X135381Y42672D01*
X135381Y57151D01*
X174244Y57151D01*
X174264Y57154D01*
X174283Y57152D01*
X174385Y57174D01*
X174487Y57191D01*
X174504Y57200D01*
X174524Y57204D01*
X174613Y57257D01*
X174704Y57306D01*
X174718Y57320D01*
X174735Y57330D01*
X174802Y57409D01*
X174874Y57484D01*
X174882Y57502D01*
X174895Y57517D01*
X174934Y57613D01*
X174977Y57707D01*
X174979Y57727D01*
X174987Y57745D01*
X175005Y57912D01*
X175005Y93727D01*
X183388Y93727D01*
X183408Y93730D01*
X183427Y93728D01*
X183529Y93750D01*
X183631Y93767D01*
X183648Y93776D01*
X183668Y93780D01*
X183757Y93833D01*
X183848Y93882D01*
X183862Y93896D01*
X183879Y93906D01*
X183946Y93985D01*
X184018Y94060D01*
X184026Y94078D01*
X184039Y94093D01*
X184078Y94189D01*
X184121Y94283D01*
X184123Y94303D01*
X184131Y94321D01*
X184149Y94488D01*
X184149Y97967D01*
X184138Y98037D01*
X184136Y98109D01*
X184118Y98158D01*
X184110Y98210D01*
X184076Y98273D01*
X184051Y98340D01*
X184019Y98381D01*
X183994Y98427D01*
X183943Y98476D01*
X183898Y98532D01*
X183854Y98560D01*
X183816Y98596D01*
X183751Y98626D01*
X183691Y98665D01*
X183640Y98678D01*
X183593Y98700D01*
X183522Y98708D01*
X183452Y98725D01*
X183400Y98721D01*
X183349Y98727D01*
X183278Y98712D01*
X183207Y98706D01*
X183159Y98686D01*
X183108Y98675D01*
X183047Y98638D01*
X182981Y98610D01*
X182925Y98565D01*
X182897Y98549D01*
X182882Y98531D01*
X182850Y98505D01*
X182283Y97939D01*
X181458Y97387D01*
X180540Y97007D01*
X180319Y96963D01*
X180319Y101366D01*
X180316Y101385D01*
X180318Y101405D01*
X180296Y101507D01*
X180280Y101609D01*
X180270Y101626D01*
X180266Y101646D01*
X180213Y101735D01*
X180164Y101826D01*
X180150Y101840D01*
X180140Y101857D01*
X180136Y101860D01*
X180188Y101914D01*
X180196Y101932D01*
X180209Y101947D01*
X180248Y102044D01*
X180291Y102137D01*
X180293Y102157D01*
X180301Y102175D01*
X180319Y102342D01*
X180319Y106745D01*
X180540Y106701D01*
X181458Y106321D01*
X182283Y105769D01*
X182850Y105203D01*
X182908Y105161D01*
X182960Y105112D01*
X183007Y105090D01*
X183049Y105059D01*
X183118Y105038D01*
X183183Y105008D01*
X183235Y105002D01*
X183285Y104987D01*
X183356Y104989D01*
X183427Y104981D01*
X183478Y104992D01*
X183530Y104993D01*
X183598Y105018D01*
X183668Y105033D01*
X183712Y105060D01*
X183761Y105078D01*
X183817Y105123D01*
X183879Y105159D01*
X183913Y105199D01*
X183953Y105232D01*
X183992Y105292D01*
X184039Y105346D01*
X184058Y105395D01*
X184086Y105438D01*
X184104Y105508D01*
X184131Y105575D01*
X184139Y105646D01*
X184147Y105677D01*
X184145Y105700D01*
X184149Y105741D01*
X184149Y110667D01*
X184138Y110737D01*
X184136Y110809D01*
X184118Y110858D01*
X184110Y110910D01*
X184076Y110973D01*
X184051Y111040D01*
X184019Y111081D01*
X183994Y111127D01*
X183943Y111176D01*
X183898Y111232D01*
X183854Y111260D01*
X183816Y111296D01*
X183751Y111326D01*
X183691Y111365D01*
X183640Y111378D01*
X183593Y111400D01*
X183522Y111408D01*
X183452Y111425D01*
X183400Y111421D01*
X183349Y111427D01*
X183278Y111412D01*
X183207Y111406D01*
X183159Y111386D01*
X183108Y111375D01*
X183047Y111338D01*
X182981Y111310D01*
X182925Y111265D01*
X182897Y111249D01*
X182882Y111231D01*
X182850Y111205D01*
X182283Y110639D01*
X181458Y110087D01*
X180540Y109707D01*
X180319Y109663D01*
X180319Y113305D01*
X184250Y113305D01*
X184252Y113301D01*
X184274Y113282D01*
X184291Y113258D01*
X184368Y113202D01*
X184439Y113141D01*
X184466Y113130D01*
X184490Y113113D01*
X184580Y113085D01*
X184667Y113049D01*
X184704Y113045D01*
X184724Y113039D01*
X184757Y113039D01*
X184834Y113031D01*
X186006Y113031D01*
X186099Y113046D01*
X186193Y113054D01*
X186220Y113066D01*
X186249Y113071D01*
X186332Y113115D01*
X186418Y113152D01*
X186440Y113172D01*
X186466Y113186D01*
X186531Y113254D01*
X186587Y113305D01*
X191282Y113305D01*
X191301Y113308D01*
X191321Y113306D01*
X191423Y113328D01*
X191525Y113344D01*
X191542Y113354D01*
X191562Y113358D01*
X191651Y113411D01*
X191742Y113460D01*
X191756Y113474D01*
X191773Y113484D01*
X191776Y113488D01*
X191830Y113436D01*
X191848Y113428D01*
X191863Y113415D01*
X191960Y113376D01*
X192053Y113333D01*
X192073Y113331D01*
X192091Y113323D01*
X192258Y113305D01*
X196950Y113305D01*
X196952Y113301D01*
X196974Y113282D01*
X196991Y113258D01*
X197068Y113202D01*
X197139Y113141D01*
X197166Y113130D01*
X197190Y113113D01*
X197280Y113085D01*
X197367Y113049D01*
X197404Y113045D01*
X197424Y113039D01*
X197457Y113039D01*
X197534Y113031D01*
X198706Y113031D01*
X198799Y113046D01*
X198893Y113054D01*
X198920Y113066D01*
X198949Y113071D01*
X199032Y113115D01*
X199118Y113152D01*
X199140Y113172D01*
X199166Y113186D01*
X199231Y113254D01*
X199287Y113305D01*
X203982Y113305D01*
X204001Y113308D01*
X204021Y113306D01*
X204123Y113328D01*
X204225Y113344D01*
X204242Y113354D01*
X204262Y113358D01*
X204351Y113411D01*
X204442Y113460D01*
X204456Y113474D01*
X204473Y113484D01*
X204476Y113488D01*
X204530Y113436D01*
X204548Y113428D01*
X204563Y113415D01*
X204660Y113376D01*
X204753Y113333D01*
X204773Y113331D01*
X204791Y113323D01*
X204958Y113305D01*
X209650Y113305D01*
X209652Y113301D01*
X209674Y113282D01*
X209691Y113258D01*
X209768Y113202D01*
X209839Y113141D01*
X209866Y113130D01*
X209890Y113113D01*
X209980Y113085D01*
X210067Y113049D01*
X210104Y113045D01*
X210124Y113039D01*
X210157Y113039D01*
X210234Y113031D01*
X211406Y113031D01*
X211499Y113046D01*
X211593Y113054D01*
X211620Y113066D01*
X211649Y113071D01*
X211732Y113115D01*
X211818Y113152D01*
X211840Y113172D01*
X211866Y113186D01*
X211931Y113254D01*
X211987Y113305D01*
X216682Y113305D01*
X216701Y113308D01*
X216721Y113306D01*
X216823Y113328D01*
X216925Y113344D01*
X216942Y113354D01*
X216962Y113358D01*
X217051Y113411D01*
X217142Y113460D01*
X217156Y113474D01*
X217173Y113484D01*
X217176Y113488D01*
X217230Y113436D01*
X217248Y113428D01*
X217263Y113415D01*
X217360Y113376D01*
X217453Y113333D01*
X217473Y113331D01*
X217491Y113323D01*
X217658Y113305D01*
X222350Y113305D01*
X222352Y113301D01*
X222374Y113282D01*
X222391Y113258D01*
X222468Y113202D01*
X222539Y113141D01*
X222566Y113130D01*
X222590Y113113D01*
X222680Y113085D01*
X222767Y113049D01*
X222804Y113045D01*
X222824Y113039D01*
X222857Y113039D01*
X222934Y113031D01*
X223012Y113031D01*
X223032Y113034D01*
X223051Y113032D01*
X223153Y113054D01*
X223255Y113071D01*
X223272Y113080D01*
X223292Y113084D01*
X223381Y113137D01*
X223472Y113186D01*
X223486Y113200D01*
X223503Y113210D01*
X223570Y113289D01*
X223642Y113364D01*
X223650Y113382D01*
X223663Y113397D01*
X223702Y113493D01*
X223745Y113587D01*
X223747Y113607D01*
X223755Y113625D01*
X223773Y113792D01*
X223773Y134874D01*
X223770Y134894D01*
X223772Y134913D01*
X223750Y135015D01*
X223734Y135117D01*
X223724Y135134D01*
X223720Y135154D01*
X223667Y135243D01*
X223618Y135334D01*
X223604Y135348D01*
X223594Y135365D01*
X223515Y135432D01*
X223440Y135504D01*
X223422Y135512D01*
X223407Y135525D01*
X223311Y135564D01*
X223217Y135607D01*
X223197Y135609D01*
X223179Y135617D01*
X223012Y135635D01*
X184404Y135635D01*
X184384Y135632D01*
X184365Y135634D01*
X184263Y135612D01*
X184161Y135596D01*
X184144Y135586D01*
X184124Y135582D01*
X184035Y135529D01*
X183944Y135480D01*
X183930Y135466D01*
X183913Y135456D01*
X183846Y135377D01*
X183775Y135302D01*
X183766Y135284D01*
X183753Y135269D01*
X183714Y135173D01*
X183671Y135079D01*
X183669Y135059D01*
X183661Y135041D01*
X183643Y134874D01*
X183643Y123697D01*
X181577Y123697D01*
X181487Y123683D01*
X181396Y123675D01*
X181366Y123663D01*
X181334Y123658D01*
X181254Y123615D01*
X181170Y123579D01*
X181137Y123553D01*
X181117Y123542D01*
X181109Y123534D01*
X181108Y123533D01*
X181093Y123518D01*
X181039Y123474D01*
X180754Y123189D01*
X177386Y123189D01*
X177101Y123474D01*
X177027Y123528D01*
X176958Y123587D01*
X176928Y123599D01*
X176902Y123618D01*
X176815Y123645D01*
X176730Y123679D01*
X176689Y123683D01*
X176667Y123690D01*
X176634Y123689D01*
X176563Y123697D01*
X175005Y123697D01*
X175005Y158496D01*
X175002Y158516D01*
X175004Y158535D01*
X174982Y158637D01*
X174966Y158739D01*
X174956Y158756D01*
X174952Y158776D01*
X174899Y158865D01*
X174850Y158956D01*
X174836Y158970D01*
X174826Y158987D01*
X174747Y159054D01*
X174672Y159126D01*
X174654Y159134D01*
X174639Y159147D01*
X174543Y159186D01*
X174449Y159229D01*
X174429Y159231D01*
X174411Y159239D01*
X174244Y159257D01*
X135381Y159257D01*
X135381Y170688D01*
X135378Y170708D01*
X135380Y170727D01*
X135358Y170829D01*
X135342Y170931D01*
X135332Y170948D01*
X135328Y170968D01*
X135275Y171057D01*
X135226Y171148D01*
X135212Y171162D01*
X135202Y171179D01*
X135123Y171246D01*
X135048Y171318D01*
X135030Y171326D01*
X135015Y171339D01*
X134919Y171378D01*
X134825Y171421D01*
X134805Y171423D01*
X134787Y171431D01*
X134620Y171449D01*
X130554Y171449D01*
X130458Y171434D01*
X130361Y171424D01*
X130337Y171414D01*
X130311Y171410D01*
X130225Y171364D01*
X130136Y171324D01*
X130117Y171307D01*
X130094Y171294D01*
X130027Y171224D01*
X129955Y171158D01*
X129942Y171135D01*
X129924Y171116D01*
X129883Y171028D01*
X129836Y170942D01*
X129832Y170917D01*
X129821Y170893D01*
X129810Y170796D01*
X129793Y170700D01*
X129797Y170675D01*
X129794Y170649D01*
X129814Y170553D01*
X129828Y170457D01*
X129840Y170434D01*
X129846Y170408D01*
X129896Y170325D01*
X129940Y170238D01*
X129959Y170220D01*
X129972Y170197D01*
X130046Y170134D01*
X130116Y170066D01*
X130144Y170050D01*
X130159Y170037D01*
X130190Y170025D01*
X130263Y169985D01*
X130658Y169821D01*
X131483Y169269D01*
X132185Y168567D01*
X132737Y167742D01*
X133117Y166824D01*
X133161Y166603D01*
X128758Y166603D01*
X128739Y166600D01*
X128719Y166602D01*
X128617Y166580D01*
X128515Y166564D01*
X128498Y166554D01*
X128478Y166550D01*
X128389Y166497D01*
X128298Y166448D01*
X128284Y166434D01*
X128267Y166424D01*
X128264Y166420D01*
X128210Y166472D01*
X128192Y166480D01*
X128177Y166493D01*
X128080Y166532D01*
X127987Y166575D01*
X127967Y166577D01*
X127949Y166585D01*
X127782Y166603D01*
X123379Y166603D01*
X123423Y166824D01*
X123803Y167742D01*
X124355Y168567D01*
X125057Y169269D01*
X125882Y169821D01*
X126277Y169985D01*
X126360Y170036D01*
X126446Y170082D01*
X126464Y170101D01*
X126487Y170114D01*
X126549Y170189D01*
X126616Y170260D01*
X126627Y170284D01*
X126643Y170304D01*
X126678Y170395D01*
X126719Y170483D01*
X126722Y170509D01*
X126732Y170533D01*
X126736Y170631D01*
X126746Y170727D01*
X126741Y170753D01*
X126742Y170779D01*
X126715Y170873D01*
X126694Y170968D01*
X126681Y170990D01*
X126673Y171015D01*
X126618Y171095D01*
X126568Y171179D01*
X126548Y171196D01*
X126533Y171217D01*
X126455Y171275D01*
X126381Y171339D01*
X126357Y171349D01*
X126336Y171364D01*
X126243Y171394D01*
X126153Y171431D01*
X126120Y171434D01*
X126102Y171440D01*
X126069Y171440D01*
X125986Y171449D01*
X117854Y171449D01*
X117758Y171434D01*
X117661Y171424D01*
X117637Y171414D01*
X117611Y171410D01*
X117525Y171364D01*
X117436Y171324D01*
X117417Y171307D01*
X117394Y171294D01*
X117327Y171224D01*
X117255Y171158D01*
X117242Y171135D01*
X117224Y171116D01*
X117183Y171028D01*
X117136Y170942D01*
X117132Y170917D01*
X117121Y170893D01*
X117110Y170796D01*
X117093Y170700D01*
X117097Y170675D01*
X117094Y170649D01*
X117114Y170553D01*
X117128Y170457D01*
X117140Y170434D01*
X117146Y170408D01*
X117196Y170325D01*
X117240Y170238D01*
X117259Y170220D01*
X117272Y170197D01*
X117346Y170134D01*
X117416Y170066D01*
X117444Y170050D01*
X117459Y170037D01*
X117490Y170025D01*
X117563Y169985D01*
X117958Y169821D01*
X118783Y169269D01*
X119485Y168567D01*
X120037Y167742D01*
X120417Y166824D01*
X120461Y166603D01*
X116058Y166603D01*
X116039Y166600D01*
X116019Y166602D01*
X115917Y166580D01*
X115815Y166564D01*
X115798Y166554D01*
X115778Y166550D01*
X115689Y166497D01*
X115598Y166448D01*
X115584Y166434D01*
X115567Y166424D01*
X115500Y166345D01*
X115429Y166270D01*
X115420Y166252D01*
X115407Y166237D01*
X115369Y166141D01*
X115325Y166047D01*
X115323Y166027D01*
X115315Y166009D01*
X115297Y165842D01*
X115297Y165627D01*
X115082Y165627D01*
X115062Y165624D01*
X115042Y165626D01*
X114941Y165604D01*
X114839Y165587D01*
X114822Y165578D01*
X114802Y165574D01*
X114713Y165521D01*
X114622Y165472D01*
X114608Y165458D01*
X114591Y165448D01*
X114524Y165369D01*
X114452Y165294D01*
X114444Y165276D01*
X114431Y165261D01*
X114392Y165164D01*
X114349Y165071D01*
X114347Y165051D01*
X114339Y165033D01*
X114321Y164866D01*
X114321Y160463D01*
X114100Y160507D01*
X113182Y160887D01*
X112357Y161439D01*
X111655Y162141D01*
X111103Y162966D01*
X110939Y163361D01*
X110888Y163444D01*
X110842Y163530D01*
X110824Y163548D01*
X110810Y163570D01*
X110735Y163633D01*
X110664Y163700D01*
X110640Y163711D01*
X110620Y163727D01*
X110529Y163762D01*
X110441Y163803D01*
X110415Y163806D01*
X110391Y163816D01*
X110293Y163820D01*
X110197Y163830D01*
X110171Y163825D01*
X110145Y163826D01*
X110051Y163799D01*
X109956Y163778D01*
X109934Y163765D01*
X109909Y163757D01*
X109829Y163702D01*
X109745Y163652D01*
X109728Y163632D01*
X109707Y163617D01*
X109649Y163539D01*
X109585Y163465D01*
X109575Y163441D01*
X109560Y163420D01*
X109530Y163327D01*
X109493Y163237D01*
X109490Y163204D01*
X109484Y163186D01*
X109484Y163153D01*
X109475Y163070D01*
X109475Y159257D01*
X70612Y159257D01*
X70592Y159254D01*
X70573Y159256D01*
X70471Y159234D01*
X70369Y159218D01*
X70352Y159208D01*
X70332Y159204D01*
X70243Y159151D01*
X70152Y159102D01*
X70138Y159088D01*
X70121Y159078D01*
X70054Y158999D01*
X69983Y158924D01*
X69974Y158906D01*
X69961Y158891D01*
X69922Y158794D01*
X69879Y158701D01*
X69877Y158681D01*
X69869Y158663D01*
X69851Y158496D01*
X69851Y122681D01*
X58475Y122681D01*
X58415Y122732D01*
X58340Y122804D01*
G37*
%LPC*%
G36*
X83565Y74170D02*
X83565Y74170D01*
X83550Y74266D01*
X83540Y74363D01*
X83530Y74387D01*
X83526Y74413D01*
X83480Y74499D01*
X83440Y74588D01*
X83423Y74607D01*
X83410Y74630D01*
X83340Y74697D01*
X83274Y74769D01*
X83251Y74782D01*
X83232Y74800D01*
X83144Y74841D01*
X83058Y74888D01*
X83033Y74892D01*
X83009Y74903D01*
X82912Y74914D01*
X82816Y74931D01*
X82791Y74927D01*
X82765Y74930D01*
X82669Y74910D01*
X82573Y74896D01*
X82550Y74884D01*
X82524Y74878D01*
X82441Y74828D01*
X82354Y74784D01*
X82336Y74765D01*
X82313Y74752D01*
X82250Y74678D01*
X82182Y74608D01*
X82166Y74580D01*
X82153Y74565D01*
X82141Y74534D01*
X82101Y74461D01*
X81937Y74066D01*
X81385Y73241D01*
X80683Y72539D01*
X79858Y71987D01*
X78940Y71607D01*
X78719Y71563D01*
X78719Y75966D01*
X78716Y75985D01*
X78718Y76005D01*
X78696Y76107D01*
X78680Y76209D01*
X78670Y76226D01*
X78666Y76246D01*
X78613Y76335D01*
X78564Y76426D01*
X78550Y76440D01*
X78540Y76457D01*
X78536Y76460D01*
X78588Y76514D01*
X78596Y76532D01*
X78609Y76547D01*
X78648Y76644D01*
X78691Y76737D01*
X78693Y76757D01*
X78701Y76775D01*
X78719Y76942D01*
X78719Y81345D01*
X78940Y81301D01*
X79858Y80921D01*
X80683Y80369D01*
X81385Y79667D01*
X81937Y78842D01*
X82101Y78447D01*
X82152Y78364D01*
X82198Y78278D01*
X82217Y78260D01*
X82230Y78237D01*
X82305Y78175D01*
X82376Y78108D01*
X82400Y78097D01*
X82420Y78081D01*
X82511Y78046D01*
X82599Y78005D01*
X82625Y78002D01*
X82649Y77992D01*
X82747Y77988D01*
X82843Y77978D01*
X82869Y77983D01*
X82895Y77982D01*
X82989Y78009D01*
X83084Y78030D01*
X83106Y78043D01*
X83131Y78051D01*
X83211Y78106D01*
X83295Y78156D01*
X83312Y78176D01*
X83333Y78191D01*
X83391Y78269D01*
X83455Y78343D01*
X83465Y78367D01*
X83480Y78388D01*
X83510Y78481D01*
X83547Y78571D01*
X83550Y78604D01*
X83556Y78622D01*
X83556Y78655D01*
X83565Y78738D01*
X83565Y86870D01*
X83550Y86966D01*
X83540Y87063D01*
X83530Y87087D01*
X83526Y87113D01*
X83480Y87199D01*
X83440Y87288D01*
X83423Y87307D01*
X83410Y87330D01*
X83340Y87397D01*
X83274Y87469D01*
X83251Y87482D01*
X83232Y87500D01*
X83144Y87541D01*
X83058Y87588D01*
X83033Y87592D01*
X83009Y87603D01*
X82912Y87614D01*
X82816Y87631D01*
X82791Y87627D01*
X82765Y87630D01*
X82669Y87610D01*
X82573Y87596D01*
X82550Y87584D01*
X82524Y87578D01*
X82441Y87528D01*
X82354Y87484D01*
X82336Y87465D01*
X82313Y87452D01*
X82250Y87378D01*
X82182Y87308D01*
X82166Y87280D01*
X82153Y87265D01*
X82141Y87234D01*
X82101Y87161D01*
X81937Y86766D01*
X81385Y85941D01*
X80683Y85239D01*
X79858Y84687D01*
X78940Y84307D01*
X78719Y84263D01*
X78719Y88666D01*
X78716Y88685D01*
X78718Y88705D01*
X78696Y88807D01*
X78680Y88909D01*
X78670Y88926D01*
X78666Y88946D01*
X78613Y89035D01*
X78564Y89126D01*
X78550Y89140D01*
X78540Y89157D01*
X78536Y89160D01*
X78588Y89214D01*
X78596Y89232D01*
X78609Y89247D01*
X78648Y89344D01*
X78691Y89437D01*
X78693Y89457D01*
X78701Y89475D01*
X78719Y89642D01*
X78719Y94045D01*
X78940Y94001D01*
X79858Y93621D01*
X80683Y93069D01*
X81385Y92367D01*
X81937Y91542D01*
X82101Y91147D01*
X82152Y91064D01*
X82198Y90978D01*
X82217Y90960D01*
X82230Y90937D01*
X82305Y90875D01*
X82376Y90808D01*
X82400Y90797D01*
X82420Y90781D01*
X82511Y90746D01*
X82599Y90705D01*
X82625Y90702D01*
X82649Y90692D01*
X82747Y90688D01*
X82843Y90678D01*
X82869Y90683D01*
X82895Y90682D01*
X82989Y90709D01*
X83084Y90730D01*
X83106Y90743D01*
X83131Y90751D01*
X83211Y90806D01*
X83295Y90856D01*
X83312Y90876D01*
X83333Y90891D01*
X83391Y90969D01*
X83455Y91043D01*
X83465Y91067D01*
X83480Y91088D01*
X83510Y91181D01*
X83547Y91271D01*
X83550Y91304D01*
X83556Y91322D01*
X83556Y91355D01*
X83565Y91438D01*
X83565Y99570D01*
X83550Y99666D01*
X83540Y99763D01*
X83530Y99787D01*
X83526Y99813D01*
X83480Y99899D01*
X83440Y99988D01*
X83423Y100007D01*
X83410Y100030D01*
X83340Y100097D01*
X83274Y100169D01*
X83251Y100182D01*
X83232Y100200D01*
X83144Y100241D01*
X83058Y100288D01*
X83033Y100292D01*
X83009Y100303D01*
X82912Y100314D01*
X82816Y100331D01*
X82791Y100327D01*
X82765Y100330D01*
X82669Y100310D01*
X82573Y100296D01*
X82550Y100284D01*
X82524Y100278D01*
X82441Y100228D01*
X82354Y100184D01*
X82336Y100165D01*
X82313Y100152D01*
X82250Y100078D01*
X82182Y100008D01*
X82166Y99980D01*
X82153Y99965D01*
X82141Y99934D01*
X82101Y99861D01*
X81937Y99466D01*
X81385Y98641D01*
X80683Y97939D01*
X79858Y97387D01*
X78940Y97007D01*
X78719Y96963D01*
X78719Y101366D01*
X78716Y101385D01*
X78718Y101405D01*
X78696Y101507D01*
X78680Y101609D01*
X78670Y101626D01*
X78666Y101646D01*
X78613Y101735D01*
X78564Y101826D01*
X78550Y101840D01*
X78540Y101857D01*
X78536Y101860D01*
X78588Y101914D01*
X78596Y101932D01*
X78609Y101947D01*
X78648Y102044D01*
X78691Y102137D01*
X78693Y102157D01*
X78701Y102175D01*
X78719Y102342D01*
X78719Y106745D01*
X78940Y106701D01*
X79858Y106321D01*
X80683Y105769D01*
X81385Y105067D01*
X81937Y104242D01*
X82101Y103847D01*
X82152Y103764D01*
X82198Y103678D01*
X82217Y103660D01*
X82230Y103637D01*
X82305Y103575D01*
X82376Y103508D01*
X82400Y103497D01*
X82420Y103481D01*
X82511Y103446D01*
X82599Y103405D01*
X82625Y103402D01*
X82649Y103392D01*
X82747Y103388D01*
X82843Y103378D01*
X82869Y103383D01*
X82895Y103382D01*
X82989Y103409D01*
X83084Y103430D01*
X83106Y103443D01*
X83131Y103451D01*
X83211Y103506D01*
X83295Y103556D01*
X83312Y103576D01*
X83333Y103591D01*
X83391Y103669D01*
X83455Y103743D01*
X83465Y103767D01*
X83480Y103788D01*
X83510Y103881D01*
X83547Y103971D01*
X83550Y104004D01*
X83556Y104022D01*
X83556Y104055D01*
X83565Y104138D01*
X83565Y112270D01*
X83550Y112366D01*
X83540Y112463D01*
X83530Y112487D01*
X83526Y112513D01*
X83480Y112599D01*
X83440Y112688D01*
X83423Y112707D01*
X83410Y112730D01*
X83340Y112797D01*
X83274Y112869D01*
X83251Y112882D01*
X83232Y112900D01*
X83144Y112941D01*
X83058Y112988D01*
X83033Y112992D01*
X83009Y113003D01*
X82912Y113014D01*
X82816Y113031D01*
X82791Y113027D01*
X82765Y113030D01*
X82669Y113010D01*
X82573Y112996D01*
X82550Y112984D01*
X82524Y112978D01*
X82441Y112928D01*
X82354Y112884D01*
X82336Y112865D01*
X82313Y112852D01*
X82250Y112778D01*
X82182Y112708D01*
X82166Y112680D01*
X82153Y112665D01*
X82141Y112634D01*
X82101Y112561D01*
X81937Y112166D01*
X81385Y111341D01*
X80683Y110639D01*
X79858Y110087D01*
X78940Y109707D01*
X78719Y109663D01*
X78719Y114066D01*
X78716Y114085D01*
X78718Y114105D01*
X78696Y114207D01*
X78680Y114309D01*
X78670Y114326D01*
X78666Y114346D01*
X78613Y114435D01*
X78564Y114526D01*
X78550Y114540D01*
X78540Y114557D01*
X78536Y114560D01*
X78588Y114614D01*
X78596Y114632D01*
X78609Y114647D01*
X78648Y114744D01*
X78691Y114837D01*
X78693Y114857D01*
X78701Y114875D01*
X78719Y115042D01*
X78719Y119445D01*
X78940Y119401D01*
X79858Y119021D01*
X80683Y118469D01*
X81385Y117767D01*
X81937Y116942D01*
X82101Y116547D01*
X82152Y116464D01*
X82198Y116378D01*
X82217Y116360D01*
X82230Y116337D01*
X82305Y116275D01*
X82376Y116208D01*
X82400Y116197D01*
X82420Y116181D01*
X82511Y116146D01*
X82599Y116105D01*
X82625Y116102D01*
X82649Y116092D01*
X82747Y116088D01*
X82843Y116078D01*
X82869Y116083D01*
X82895Y116082D01*
X82989Y116109D01*
X83084Y116130D01*
X83106Y116143D01*
X83131Y116151D01*
X83211Y116206D01*
X83295Y116256D01*
X83312Y116276D01*
X83333Y116291D01*
X83391Y116369D01*
X83455Y116443D01*
X83465Y116467D01*
X83480Y116488D01*
X83510Y116581D01*
X83547Y116671D01*
X83550Y116704D01*
X83556Y116722D01*
X83556Y116755D01*
X83565Y116838D01*
X83565Y124970D01*
X83550Y125066D01*
X83540Y125163D01*
X83530Y125187D01*
X83526Y125213D01*
X83480Y125299D01*
X83440Y125388D01*
X83423Y125407D01*
X83410Y125430D01*
X83340Y125497D01*
X83274Y125569D01*
X83251Y125582D01*
X83232Y125600D01*
X83144Y125641D01*
X83058Y125688D01*
X83033Y125692D01*
X83009Y125703D01*
X82912Y125714D01*
X82816Y125731D01*
X82790Y125728D01*
X82765Y125730D01*
X82669Y125710D01*
X82573Y125696D01*
X82550Y125684D01*
X82524Y125678D01*
X82441Y125628D01*
X82354Y125584D01*
X82335Y125565D01*
X82313Y125552D01*
X82250Y125478D01*
X82182Y125408D01*
X82166Y125380D01*
X82153Y125365D01*
X82141Y125334D01*
X82101Y125261D01*
X81937Y124866D01*
X81385Y124041D01*
X80683Y123339D01*
X79858Y122787D01*
X78940Y122407D01*
X78719Y122363D01*
X78719Y126766D01*
X78716Y126785D01*
X78718Y126805D01*
X78696Y126907D01*
X78680Y127009D01*
X78670Y127026D01*
X78666Y127046D01*
X78613Y127135D01*
X78564Y127226D01*
X78550Y127240D01*
X78540Y127257D01*
X78536Y127260D01*
X78588Y127314D01*
X78596Y127332D01*
X78609Y127347D01*
X78648Y127444D01*
X78691Y127537D01*
X78693Y127557D01*
X78701Y127575D01*
X78719Y127742D01*
X78719Y132145D01*
X78940Y132101D01*
X79858Y131721D01*
X80683Y131169D01*
X81385Y130467D01*
X81937Y129642D01*
X82101Y129247D01*
X82152Y129164D01*
X82198Y129078D01*
X82217Y129060D01*
X82230Y129037D01*
X82305Y128975D01*
X82376Y128908D01*
X82400Y128897D01*
X82420Y128881D01*
X82511Y128846D01*
X82599Y128805D01*
X82625Y128802D01*
X82649Y128792D01*
X82747Y128788D01*
X82843Y128778D01*
X82869Y128783D01*
X82895Y128782D01*
X82989Y128809D01*
X83084Y128830D01*
X83106Y128843D01*
X83131Y128851D01*
X83211Y128906D01*
X83295Y128956D01*
X83312Y128976D01*
X83333Y128991D01*
X83392Y129069D01*
X83455Y129143D01*
X83465Y129167D01*
X83480Y129188D01*
X83510Y129281D01*
X83547Y129371D01*
X83550Y129404D01*
X83556Y129422D01*
X83556Y129455D01*
X83565Y129538D01*
X83565Y137670D01*
X83550Y137766D01*
X83540Y137863D01*
X83530Y137887D01*
X83526Y137913D01*
X83480Y137999D01*
X83440Y138088D01*
X83423Y138107D01*
X83410Y138130D01*
X83340Y138197D01*
X83274Y138269D01*
X83251Y138282D01*
X83232Y138300D01*
X83144Y138341D01*
X83058Y138388D01*
X83033Y138392D01*
X83009Y138403D01*
X82912Y138414D01*
X82816Y138431D01*
X82790Y138428D01*
X82765Y138430D01*
X82669Y138410D01*
X82573Y138396D01*
X82550Y138384D01*
X82524Y138378D01*
X82441Y138328D01*
X82354Y138284D01*
X82335Y138265D01*
X82313Y138252D01*
X82250Y138178D01*
X82182Y138108D01*
X82166Y138080D01*
X82153Y138065D01*
X82141Y138034D01*
X82101Y137961D01*
X81937Y137566D01*
X81385Y136741D01*
X80683Y136039D01*
X79858Y135487D01*
X78940Y135107D01*
X78719Y135063D01*
X78719Y139466D01*
X78716Y139485D01*
X78718Y139505D01*
X78696Y139607D01*
X78680Y139709D01*
X78670Y139726D01*
X78666Y139746D01*
X78613Y139835D01*
X78564Y139926D01*
X78550Y139940D01*
X78540Y139957D01*
X78536Y139960D01*
X78588Y140014D01*
X78596Y140032D01*
X78609Y140047D01*
X78648Y140144D01*
X78691Y140237D01*
X78693Y140257D01*
X78701Y140275D01*
X78719Y140442D01*
X78719Y144845D01*
X78940Y144801D01*
X79858Y144421D01*
X80683Y143869D01*
X81385Y143167D01*
X81937Y142342D01*
X82101Y141947D01*
X82152Y141864D01*
X82198Y141778D01*
X82217Y141760D01*
X82230Y141737D01*
X82305Y141675D01*
X82376Y141608D01*
X82400Y141597D01*
X82420Y141581D01*
X82511Y141546D01*
X82599Y141505D01*
X82625Y141502D01*
X82649Y141492D01*
X82747Y141488D01*
X82843Y141478D01*
X82869Y141483D01*
X82895Y141482D01*
X82989Y141509D01*
X83084Y141530D01*
X83106Y141543D01*
X83131Y141551D01*
X83211Y141606D01*
X83295Y141656D01*
X83312Y141676D01*
X83333Y141691D01*
X83392Y141769D01*
X83455Y141843D01*
X83465Y141867D01*
X83480Y141888D01*
X83510Y141981D01*
X83547Y142071D01*
X83550Y142104D01*
X83556Y142122D01*
X83556Y142155D01*
X83565Y142238D01*
X83565Y148591D01*
X85398Y148591D01*
X85516Y148610D01*
X85635Y148629D01*
X85638Y148630D01*
X85641Y148631D01*
X85746Y148686D01*
X85854Y148742D01*
X85856Y148744D01*
X85858Y148746D01*
X85940Y148832D01*
X86024Y148919D01*
X86026Y148922D01*
X86028Y148924D01*
X86078Y149032D01*
X86130Y149141D01*
X86130Y149144D01*
X86131Y149147D01*
X86145Y149265D01*
X86159Y149385D01*
X86158Y149388D01*
X86159Y149391D01*
X86133Y149508D01*
X86109Y149626D01*
X86107Y149629D01*
X86106Y149632D01*
X86101Y149641D01*
X86031Y149775D01*
X85703Y150266D01*
X85323Y151184D01*
X85279Y151405D01*
X89682Y151405D01*
X89701Y151408D01*
X89721Y151406D01*
X89823Y151428D01*
X89925Y151444D01*
X89942Y151454D01*
X89962Y151458D01*
X90051Y151511D01*
X90142Y151560D01*
X90156Y151574D01*
X90173Y151584D01*
X90176Y151588D01*
X90230Y151536D01*
X90248Y151528D01*
X90263Y151515D01*
X90360Y151476D01*
X90453Y151433D01*
X90473Y151431D01*
X90491Y151423D01*
X90658Y151405D01*
X95061Y151405D01*
X95017Y151184D01*
X94637Y150266D01*
X94309Y149775D01*
X94259Y149666D01*
X94209Y149557D01*
X94208Y149554D01*
X94207Y149551D01*
X94195Y149431D01*
X94181Y149313D01*
X94182Y149309D01*
X94182Y149306D01*
X94208Y149188D01*
X94234Y149072D01*
X94235Y149069D01*
X94236Y149066D01*
X94298Y148964D01*
X94360Y148861D01*
X94362Y148859D01*
X94364Y148856D01*
X94456Y148779D01*
X94547Y148701D01*
X94550Y148700D01*
X94552Y148698D01*
X94663Y148654D01*
X94775Y148609D01*
X94779Y148609D01*
X94781Y148608D01*
X94792Y148607D01*
X94942Y148591D01*
X98098Y148591D01*
X98216Y148610D01*
X98335Y148629D01*
X98338Y148630D01*
X98341Y148631D01*
X98446Y148686D01*
X98554Y148742D01*
X98556Y148744D01*
X98558Y148746D01*
X98640Y148832D01*
X98724Y148919D01*
X98726Y148922D01*
X98728Y148924D01*
X98778Y149032D01*
X98830Y149141D01*
X98830Y149144D01*
X98831Y149147D01*
X98845Y149265D01*
X98859Y149385D01*
X98858Y149388D01*
X98859Y149391D01*
X98833Y149508D01*
X98809Y149626D01*
X98807Y149629D01*
X98806Y149632D01*
X98801Y149641D01*
X98731Y149775D01*
X98403Y150266D01*
X98023Y151184D01*
X97979Y151405D01*
X102382Y151405D01*
X102401Y151408D01*
X102421Y151406D01*
X102523Y151428D01*
X102625Y151444D01*
X102642Y151454D01*
X102662Y151458D01*
X102751Y151511D01*
X102842Y151560D01*
X102856Y151574D01*
X102873Y151584D01*
X102876Y151588D01*
X102930Y151536D01*
X102948Y151528D01*
X102963Y151515D01*
X103060Y151476D01*
X103153Y151433D01*
X103173Y151431D01*
X103191Y151423D01*
X103358Y151405D01*
X107761Y151405D01*
X107717Y151184D01*
X107337Y150266D01*
X107009Y149775D01*
X106959Y149666D01*
X106909Y149557D01*
X106908Y149554D01*
X106907Y149551D01*
X106895Y149431D01*
X106881Y149313D01*
X106882Y149309D01*
X106882Y149306D01*
X106908Y149188D01*
X106934Y149072D01*
X106935Y149069D01*
X106936Y149066D01*
X106998Y148964D01*
X107060Y148861D01*
X107062Y148859D01*
X107064Y148856D01*
X107156Y148779D01*
X107247Y148701D01*
X107250Y148700D01*
X107252Y148698D01*
X107363Y148654D01*
X107475Y148609D01*
X107479Y148609D01*
X107481Y148608D01*
X107492Y148607D01*
X107642Y148591D01*
X110798Y148591D01*
X110916Y148610D01*
X111035Y148629D01*
X111038Y148630D01*
X111041Y148631D01*
X111146Y148686D01*
X111254Y148742D01*
X111256Y148744D01*
X111258Y148746D01*
X111340Y148832D01*
X111424Y148919D01*
X111426Y148922D01*
X111428Y148924D01*
X111478Y149032D01*
X111530Y149141D01*
X111530Y149144D01*
X111531Y149147D01*
X111545Y149265D01*
X111559Y149385D01*
X111558Y149388D01*
X111559Y149391D01*
X111533Y149508D01*
X111509Y149626D01*
X111507Y149629D01*
X111506Y149632D01*
X111501Y149641D01*
X111431Y149775D01*
X111103Y150266D01*
X110723Y151184D01*
X110679Y151405D01*
X115082Y151405D01*
X115101Y151408D01*
X115121Y151406D01*
X115223Y151428D01*
X115325Y151444D01*
X115342Y151454D01*
X115362Y151458D01*
X115451Y151511D01*
X115542Y151560D01*
X115556Y151574D01*
X115573Y151584D01*
X115576Y151588D01*
X115630Y151536D01*
X115648Y151528D01*
X115663Y151515D01*
X115760Y151476D01*
X115853Y151433D01*
X115873Y151431D01*
X115891Y151423D01*
X116058Y151405D01*
X120461Y151405D01*
X120417Y151184D01*
X120037Y150266D01*
X119709Y149775D01*
X119659Y149666D01*
X119609Y149557D01*
X119608Y149554D01*
X119607Y149551D01*
X119595Y149431D01*
X119581Y149313D01*
X119582Y149309D01*
X119582Y149306D01*
X119608Y149188D01*
X119634Y149072D01*
X119635Y149069D01*
X119636Y149066D01*
X119698Y148964D01*
X119760Y148861D01*
X119762Y148859D01*
X119764Y148856D01*
X119856Y148779D01*
X119947Y148701D01*
X119950Y148700D01*
X119952Y148698D01*
X120063Y148654D01*
X120175Y148609D01*
X120179Y148609D01*
X120181Y148608D01*
X120192Y148607D01*
X120342Y148591D01*
X123498Y148591D01*
X123616Y148610D01*
X123735Y148629D01*
X123738Y148630D01*
X123741Y148631D01*
X123846Y148686D01*
X123954Y148742D01*
X123956Y148744D01*
X123958Y148746D01*
X124040Y148832D01*
X124124Y148919D01*
X124126Y148922D01*
X124128Y148924D01*
X124178Y149032D01*
X124230Y149141D01*
X124230Y149144D01*
X124231Y149147D01*
X124245Y149265D01*
X124259Y149385D01*
X124258Y149388D01*
X124259Y149391D01*
X124233Y149508D01*
X124209Y149626D01*
X124207Y149629D01*
X124206Y149632D01*
X124201Y149641D01*
X124131Y149775D01*
X123803Y150266D01*
X123423Y151184D01*
X123379Y151405D01*
X127782Y151405D01*
X127801Y151408D01*
X127821Y151406D01*
X127923Y151428D01*
X128025Y151444D01*
X128042Y151454D01*
X128062Y151458D01*
X128151Y151511D01*
X128242Y151560D01*
X128256Y151574D01*
X128273Y151584D01*
X128276Y151588D01*
X128330Y151536D01*
X128348Y151528D01*
X128363Y151515D01*
X128460Y151476D01*
X128553Y151433D01*
X128573Y151431D01*
X128591Y151423D01*
X128758Y151405D01*
X133161Y151405D01*
X133117Y151184D01*
X132737Y150266D01*
X132409Y149775D01*
X132359Y149666D01*
X132309Y149557D01*
X132308Y149554D01*
X132307Y149551D01*
X132295Y149431D01*
X132281Y149313D01*
X132282Y149309D01*
X132282Y149306D01*
X132308Y149188D01*
X132334Y149072D01*
X132335Y149069D01*
X132336Y149066D01*
X132398Y148964D01*
X132460Y148861D01*
X132462Y148859D01*
X132464Y148856D01*
X132556Y148779D01*
X132647Y148701D01*
X132650Y148700D01*
X132652Y148698D01*
X132763Y148654D01*
X132875Y148609D01*
X132879Y148609D01*
X132881Y148608D01*
X132892Y148607D01*
X133042Y148591D01*
X136198Y148591D01*
X136316Y148610D01*
X136435Y148629D01*
X136438Y148630D01*
X136441Y148631D01*
X136546Y148686D01*
X136654Y148742D01*
X136656Y148744D01*
X136658Y148746D01*
X136740Y148832D01*
X136824Y148919D01*
X136826Y148922D01*
X136828Y148924D01*
X136878Y149032D01*
X136930Y149141D01*
X136930Y149144D01*
X136931Y149147D01*
X136945Y149265D01*
X136959Y149385D01*
X136958Y149388D01*
X136959Y149391D01*
X136933Y149508D01*
X136909Y149626D01*
X136907Y149629D01*
X136906Y149632D01*
X136901Y149641D01*
X136831Y149775D01*
X136503Y150266D01*
X136123Y151184D01*
X136079Y151405D01*
X140482Y151405D01*
X140501Y151408D01*
X140521Y151406D01*
X140623Y151428D01*
X140725Y151444D01*
X140742Y151454D01*
X140762Y151458D01*
X140851Y151511D01*
X140942Y151560D01*
X140956Y151574D01*
X140973Y151584D01*
X140976Y151588D01*
X141030Y151536D01*
X141048Y151528D01*
X141063Y151515D01*
X141160Y151476D01*
X141253Y151433D01*
X141273Y151431D01*
X141291Y151423D01*
X141458Y151405D01*
X145861Y151405D01*
X145817Y151184D01*
X145437Y150266D01*
X145109Y149775D01*
X145059Y149666D01*
X145009Y149557D01*
X145008Y149554D01*
X145007Y149551D01*
X144995Y149431D01*
X144981Y149313D01*
X144982Y149309D01*
X144982Y149306D01*
X145008Y149188D01*
X145034Y149072D01*
X145035Y149069D01*
X145036Y149066D01*
X145098Y148964D01*
X145160Y148861D01*
X145162Y148859D01*
X145164Y148856D01*
X145256Y148779D01*
X145347Y148701D01*
X145350Y148700D01*
X145352Y148698D01*
X145463Y148654D01*
X145575Y148609D01*
X145579Y148609D01*
X145581Y148608D01*
X145592Y148607D01*
X145742Y148591D01*
X148898Y148591D01*
X149016Y148610D01*
X149135Y148629D01*
X149138Y148630D01*
X149141Y148631D01*
X149246Y148686D01*
X149354Y148742D01*
X149356Y148744D01*
X149358Y148746D01*
X149440Y148832D01*
X149524Y148919D01*
X149526Y148922D01*
X149528Y148924D01*
X149578Y149032D01*
X149630Y149141D01*
X149630Y149144D01*
X149631Y149147D01*
X149645Y149265D01*
X149659Y149385D01*
X149658Y149388D01*
X149659Y149391D01*
X149633Y149508D01*
X149609Y149626D01*
X149607Y149629D01*
X149606Y149632D01*
X149601Y149641D01*
X149531Y149775D01*
X149203Y150266D01*
X148823Y151184D01*
X148779Y151405D01*
X153182Y151405D01*
X153201Y151408D01*
X153221Y151406D01*
X153323Y151428D01*
X153425Y151444D01*
X153442Y151454D01*
X153462Y151458D01*
X153551Y151511D01*
X153642Y151560D01*
X153656Y151574D01*
X153673Y151584D01*
X153676Y151588D01*
X153730Y151536D01*
X153748Y151528D01*
X153763Y151515D01*
X153860Y151476D01*
X153953Y151433D01*
X153973Y151431D01*
X153991Y151423D01*
X154158Y151405D01*
X158561Y151405D01*
X158517Y151184D01*
X158137Y150266D01*
X157809Y149775D01*
X157759Y149666D01*
X157709Y149557D01*
X157708Y149554D01*
X157707Y149551D01*
X157695Y149431D01*
X157681Y149313D01*
X157682Y149309D01*
X157682Y149306D01*
X157708Y149188D01*
X157734Y149072D01*
X157735Y149069D01*
X157736Y149066D01*
X157798Y148964D01*
X157860Y148861D01*
X157862Y148859D01*
X157864Y148856D01*
X157956Y148779D01*
X158047Y148701D01*
X158050Y148700D01*
X158052Y148698D01*
X158163Y148654D01*
X158243Y148622D01*
X158243Y70865D01*
X83565Y70865D01*
X83565Y74170D01*
G37*
%LPD*%
G36*
X122982Y86114D02*
X122982Y86114D01*
X123028Y86112D01*
X123103Y86134D01*
X123180Y86147D01*
X123220Y86168D01*
X123264Y86181D01*
X123328Y86225D01*
X123397Y86262D01*
X123429Y86295D01*
X123466Y86321D01*
X123513Y86384D01*
X123566Y86440D01*
X123586Y86482D01*
X123613Y86518D01*
X123637Y86592D01*
X123670Y86663D01*
X123675Y86709D01*
X123689Y86752D01*
X123689Y86830D01*
X123697Y86907D01*
X123687Y86952D01*
X123687Y86998D01*
X123649Y87129D01*
X123645Y87148D01*
X123642Y87152D01*
X123640Y87159D01*
X123423Y87684D01*
X123379Y87905D01*
X127782Y87905D01*
X127801Y87908D01*
X127821Y87906D01*
X127923Y87928D01*
X128025Y87944D01*
X128042Y87954D01*
X128062Y87958D01*
X128151Y88011D01*
X128242Y88060D01*
X128256Y88074D01*
X128273Y88084D01*
X128340Y88163D01*
X128411Y88238D01*
X128420Y88256D01*
X128433Y88271D01*
X128471Y88367D01*
X128515Y88461D01*
X128517Y88481D01*
X128525Y88499D01*
X128543Y88666D01*
X128543Y88881D01*
X128758Y88881D01*
X128778Y88884D01*
X128797Y88882D01*
X128899Y88904D01*
X129001Y88921D01*
X129018Y88930D01*
X129038Y88934D01*
X129127Y88987D01*
X129218Y89036D01*
X129232Y89050D01*
X129249Y89060D01*
X129316Y89139D01*
X129388Y89214D01*
X129396Y89232D01*
X129409Y89247D01*
X129448Y89344D01*
X129491Y89437D01*
X129493Y89457D01*
X129501Y89475D01*
X129519Y89642D01*
X129519Y94045D01*
X129740Y94001D01*
X130658Y93621D01*
X131149Y93293D01*
X131260Y93242D01*
X131367Y93193D01*
X131370Y93192D01*
X131373Y93191D01*
X131493Y93179D01*
X131611Y93165D01*
X131615Y93166D01*
X131618Y93166D01*
X131734Y93192D01*
X131852Y93218D01*
X131855Y93219D01*
X131858Y93220D01*
X131960Y93283D01*
X132063Y93344D01*
X132065Y93346D01*
X132068Y93348D01*
X132144Y93439D01*
X132223Y93531D01*
X132224Y93534D01*
X132226Y93536D01*
X132269Y93645D01*
X132315Y93759D01*
X132315Y93763D01*
X132316Y93765D01*
X132317Y93776D01*
X132333Y93926D01*
X132333Y96775D01*
X137083Y96775D01*
X137153Y96786D01*
X137225Y96788D01*
X137274Y96806D01*
X137326Y96815D01*
X137389Y96848D01*
X137456Y96873D01*
X137497Y96905D01*
X137543Y96930D01*
X137592Y96982D01*
X137648Y97026D01*
X137676Y97070D01*
X137712Y97108D01*
X137742Y97173D01*
X137781Y97233D01*
X137794Y97284D01*
X137816Y97331D01*
X137824Y97402D01*
X137841Y97472D01*
X137837Y97524D01*
X137843Y97575D01*
X137828Y97646D01*
X137822Y97717D01*
X137802Y97765D01*
X137791Y97816D01*
X137754Y97877D01*
X137726Y97943D01*
X137681Y97999D01*
X137665Y98027D01*
X137647Y98042D01*
X137621Y98074D01*
X137055Y98641D01*
X136503Y99466D01*
X136123Y100384D01*
X136079Y100605D01*
X140482Y100605D01*
X140501Y100608D01*
X140521Y100606D01*
X140623Y100628D01*
X140725Y100644D01*
X140742Y100654D01*
X140762Y100658D01*
X140851Y100711D01*
X140942Y100760D01*
X140956Y100774D01*
X140973Y100784D01*
X140976Y100788D01*
X141030Y100736D01*
X141048Y100728D01*
X141063Y100715D01*
X141160Y100676D01*
X141253Y100633D01*
X141273Y100631D01*
X141291Y100623D01*
X141458Y100605D01*
X145861Y100605D01*
X145817Y100384D01*
X145437Y99466D01*
X144885Y98641D01*
X144319Y98074D01*
X144277Y98016D01*
X144228Y97964D01*
X144206Y97917D01*
X144175Y97875D01*
X144154Y97806D01*
X144124Y97741D01*
X144118Y97689D01*
X144103Y97639D01*
X144105Y97568D01*
X144097Y97497D01*
X144108Y97446D01*
X144109Y97394D01*
X144134Y97326D01*
X144149Y97256D01*
X144176Y97211D01*
X144194Y97163D01*
X144239Y97107D01*
X144275Y97045D01*
X144315Y97011D01*
X144348Y96971D01*
X144408Y96932D01*
X144462Y96885D01*
X144511Y96866D01*
X144554Y96838D01*
X144624Y96820D01*
X144691Y96793D01*
X144762Y96785D01*
X144793Y96777D01*
X144816Y96779D01*
X144857Y96775D01*
X149783Y96775D01*
X149853Y96786D01*
X149925Y96788D01*
X149974Y96806D01*
X150026Y96815D01*
X150089Y96848D01*
X150156Y96873D01*
X150197Y96905D01*
X150243Y96930D01*
X150292Y96982D01*
X150348Y97026D01*
X150376Y97070D01*
X150412Y97108D01*
X150442Y97173D01*
X150481Y97233D01*
X150494Y97284D01*
X150516Y97331D01*
X150524Y97402D01*
X150541Y97472D01*
X150537Y97524D01*
X150543Y97575D01*
X150528Y97646D01*
X150522Y97717D01*
X150502Y97765D01*
X150491Y97816D01*
X150454Y97877D01*
X150426Y97943D01*
X150381Y97999D01*
X150365Y98027D01*
X150347Y98042D01*
X150321Y98074D01*
X149755Y98641D01*
X149203Y99466D01*
X148823Y100384D01*
X148779Y100605D01*
X153182Y100605D01*
X153201Y100608D01*
X153221Y100606D01*
X153323Y100628D01*
X153425Y100644D01*
X153442Y100654D01*
X153462Y100658D01*
X153551Y100711D01*
X153642Y100760D01*
X153656Y100774D01*
X153673Y100784D01*
X153740Y100863D01*
X153811Y100938D01*
X153820Y100956D01*
X153833Y100971D01*
X153871Y101067D01*
X153915Y101161D01*
X153917Y101181D01*
X153925Y101199D01*
X153943Y101366D01*
X153943Y101581D01*
X154158Y101581D01*
X154178Y101584D01*
X154197Y101582D01*
X154299Y101604D01*
X154401Y101621D01*
X154418Y101630D01*
X154438Y101634D01*
X154527Y101687D01*
X154618Y101736D01*
X154632Y101750D01*
X154649Y101760D01*
X154716Y101839D01*
X154788Y101914D01*
X154796Y101932D01*
X154809Y101947D01*
X154848Y102044D01*
X154891Y102137D01*
X154893Y102157D01*
X154901Y102175D01*
X154919Y102342D01*
X154919Y106745D01*
X155140Y106701D01*
X155665Y106484D01*
X155709Y106473D01*
X155751Y106454D01*
X155828Y106445D01*
X155904Y106428D01*
X155950Y106432D01*
X155995Y106427D01*
X156072Y106443D01*
X156149Y106451D01*
X156191Y106469D01*
X156236Y106479D01*
X156303Y106519D01*
X156374Y106551D01*
X156408Y106582D01*
X156447Y106605D01*
X156498Y106664D01*
X156555Y106717D01*
X156577Y106757D01*
X156607Y106792D01*
X156636Y106864D01*
X156673Y106933D01*
X156682Y106978D01*
X156699Y107020D01*
X156714Y107156D01*
X156717Y107175D01*
X156716Y107180D01*
X156717Y107187D01*
X156717Y109221D01*
X156710Y109266D01*
X156712Y109312D01*
X156690Y109387D01*
X156678Y109464D01*
X156656Y109504D01*
X156643Y109548D01*
X156599Y109612D01*
X156562Y109681D01*
X156529Y109713D01*
X156503Y109750D01*
X156440Y109797D01*
X156384Y109850D01*
X156342Y109870D01*
X156306Y109897D01*
X156232Y109921D01*
X156161Y109954D01*
X156115Y109959D01*
X156072Y109973D01*
X155994Y109973D01*
X155917Y109981D01*
X155872Y109971D01*
X155826Y109971D01*
X155695Y109933D01*
X155676Y109929D01*
X155672Y109926D01*
X155665Y109924D01*
X155140Y109707D01*
X154919Y109663D01*
X154919Y114066D01*
X154916Y114085D01*
X154918Y114105D01*
X154896Y114207D01*
X154880Y114309D01*
X154870Y114326D01*
X154866Y114346D01*
X154813Y114435D01*
X154764Y114526D01*
X154750Y114540D01*
X154740Y114557D01*
X154736Y114560D01*
X154788Y114614D01*
X154796Y114632D01*
X154809Y114647D01*
X154848Y114744D01*
X154891Y114837D01*
X154893Y114857D01*
X154901Y114875D01*
X154919Y115042D01*
X154919Y119445D01*
X155140Y119401D01*
X155665Y119184D01*
X155709Y119173D01*
X155751Y119154D01*
X155828Y119145D01*
X155904Y119128D01*
X155950Y119132D01*
X155995Y119127D01*
X156072Y119143D01*
X156149Y119151D01*
X156191Y119169D01*
X156236Y119179D01*
X156303Y119219D01*
X156374Y119251D01*
X156408Y119282D01*
X156447Y119305D01*
X156498Y119364D01*
X156555Y119417D01*
X156577Y119457D01*
X156607Y119492D01*
X156636Y119564D01*
X156673Y119633D01*
X156682Y119678D01*
X156699Y119720D01*
X156714Y119856D01*
X156717Y119875D01*
X156716Y119880D01*
X156717Y119887D01*
X156717Y120396D01*
X156716Y120402D01*
X156716Y120403D01*
X156714Y120416D01*
X156716Y120435D01*
X156694Y120537D01*
X156678Y120639D01*
X156668Y120656D01*
X156664Y120676D01*
X156611Y120765D01*
X156562Y120856D01*
X156548Y120870D01*
X156538Y120887D01*
X156459Y120954D01*
X156384Y121026D01*
X156366Y121034D01*
X156351Y121047D01*
X156255Y121086D01*
X156161Y121129D01*
X156141Y121131D01*
X156123Y121139D01*
X155956Y121157D01*
X87376Y121157D01*
X87356Y121154D01*
X87337Y121156D01*
X87235Y121134D01*
X87133Y121118D01*
X87116Y121108D01*
X87096Y121104D01*
X87007Y121051D01*
X86916Y121002D01*
X86902Y120988D01*
X86885Y120978D01*
X86818Y120899D01*
X86747Y120824D01*
X86738Y120806D01*
X86725Y120791D01*
X86686Y120694D01*
X86643Y120601D01*
X86641Y120581D01*
X86633Y120563D01*
X86615Y120396D01*
X86615Y119665D01*
X86634Y119546D01*
X86653Y119428D01*
X86654Y119425D01*
X86655Y119422D01*
X86710Y119318D01*
X86766Y119210D01*
X86768Y119208D01*
X86770Y119205D01*
X86855Y119123D01*
X86943Y119039D01*
X86946Y119038D01*
X86948Y119036D01*
X87058Y118985D01*
X87165Y118934D01*
X87168Y118933D01*
X87171Y118932D01*
X87291Y118919D01*
X87409Y118905D01*
X87412Y118905D01*
X87415Y118905D01*
X87534Y118931D01*
X87650Y118955D01*
X87653Y118957D01*
X87656Y118957D01*
X87665Y118963D01*
X87759Y119011D01*
X88700Y119401D01*
X88921Y119445D01*
X88921Y115042D01*
X88924Y115023D01*
X88922Y115003D01*
X88944Y114901D01*
X88960Y114799D01*
X88970Y114782D01*
X88974Y114762D01*
X89027Y114673D01*
X89076Y114582D01*
X89090Y114568D01*
X89100Y114551D01*
X89104Y114548D01*
X89096Y114540D01*
X89052Y114494D01*
X89044Y114476D01*
X89031Y114461D01*
X88992Y114364D01*
X88949Y114271D01*
X88947Y114251D01*
X88939Y114233D01*
X88921Y114066D01*
X88921Y109663D01*
X88700Y109707D01*
X87713Y110116D01*
X87710Y110116D01*
X87690Y110125D01*
X87581Y110176D01*
X87578Y110176D01*
X87575Y110178D01*
X87457Y110190D01*
X87337Y110203D01*
X87334Y110202D01*
X87331Y110203D01*
X87214Y110177D01*
X87096Y110151D01*
X87094Y110149D01*
X87091Y110149D01*
X86987Y110086D01*
X86885Y110025D01*
X86883Y110022D01*
X86880Y110021D01*
X86803Y109929D01*
X86725Y109838D01*
X86724Y109835D01*
X86722Y109833D01*
X86678Y109722D01*
X86633Y109610D01*
X86633Y109606D01*
X86632Y109604D01*
X86631Y109593D01*
X86615Y109443D01*
X86615Y106965D01*
X86634Y106846D01*
X86653Y106728D01*
X86654Y106725D01*
X86655Y106722D01*
X86710Y106618D01*
X86766Y106510D01*
X86768Y106508D01*
X86770Y106505D01*
X86855Y106423D01*
X86943Y106339D01*
X86946Y106338D01*
X86948Y106336D01*
X87058Y106285D01*
X87165Y106234D01*
X87168Y106233D01*
X87171Y106232D01*
X87291Y106219D01*
X87409Y106205D01*
X87412Y106205D01*
X87415Y106205D01*
X87534Y106231D01*
X87650Y106255D01*
X87653Y106257D01*
X87656Y106257D01*
X87665Y106263D01*
X87759Y106311D01*
X88700Y106701D01*
X88921Y106745D01*
X88921Y102342D01*
X88924Y102323D01*
X88922Y102303D01*
X88944Y102201D01*
X88960Y102099D01*
X88970Y102082D01*
X88974Y102062D01*
X89027Y101973D01*
X89076Y101882D01*
X89090Y101868D01*
X89100Y101851D01*
X89179Y101784D01*
X89254Y101713D01*
X89272Y101704D01*
X89287Y101691D01*
X89383Y101653D01*
X89477Y101609D01*
X89497Y101607D01*
X89515Y101599D01*
X89682Y101581D01*
X89897Y101581D01*
X89897Y101366D01*
X89900Y101346D01*
X89898Y101326D01*
X89920Y101225D01*
X89937Y101123D01*
X89946Y101106D01*
X89950Y101086D01*
X90003Y100997D01*
X90052Y100906D01*
X90066Y100892D01*
X90076Y100875D01*
X90155Y100808D01*
X90230Y100736D01*
X90248Y100728D01*
X90263Y100715D01*
X90360Y100676D01*
X90453Y100633D01*
X90473Y100631D01*
X90491Y100623D01*
X90658Y100605D01*
X95061Y100605D01*
X95017Y100384D01*
X94637Y99466D01*
X94085Y98641D01*
X93519Y98074D01*
X93477Y98016D01*
X93428Y97964D01*
X93406Y97917D01*
X93375Y97875D01*
X93354Y97806D01*
X93324Y97741D01*
X93318Y97689D01*
X93303Y97639D01*
X93305Y97568D01*
X93297Y97497D01*
X93308Y97446D01*
X93309Y97394D01*
X93334Y97326D01*
X93349Y97256D01*
X93376Y97211D01*
X93394Y97163D01*
X93439Y97107D01*
X93475Y97045D01*
X93515Y97011D01*
X93548Y96971D01*
X93608Y96932D01*
X93662Y96885D01*
X93711Y96866D01*
X93754Y96838D01*
X93824Y96820D01*
X93891Y96793D01*
X93962Y96785D01*
X93993Y96777D01*
X94016Y96779D01*
X94057Y96775D01*
X98983Y96775D01*
X99053Y96786D01*
X99125Y96788D01*
X99174Y96806D01*
X99226Y96815D01*
X99289Y96848D01*
X99356Y96873D01*
X99397Y96905D01*
X99443Y96930D01*
X99492Y96982D01*
X99548Y97026D01*
X99576Y97070D01*
X99612Y97108D01*
X99642Y97173D01*
X99681Y97233D01*
X99694Y97284D01*
X99716Y97331D01*
X99724Y97402D01*
X99741Y97472D01*
X99737Y97524D01*
X99743Y97575D01*
X99728Y97646D01*
X99722Y97717D01*
X99702Y97765D01*
X99691Y97816D01*
X99654Y97877D01*
X99626Y97943D01*
X99581Y97999D01*
X99565Y98027D01*
X99547Y98042D01*
X99521Y98074D01*
X98955Y98641D01*
X98403Y99466D01*
X98023Y100384D01*
X97979Y100605D01*
X102382Y100605D01*
X102401Y100608D01*
X102421Y100606D01*
X102523Y100628D01*
X102625Y100644D01*
X102642Y100654D01*
X102662Y100658D01*
X102751Y100711D01*
X102842Y100760D01*
X102856Y100774D01*
X102873Y100784D01*
X102876Y100788D01*
X102930Y100736D01*
X102948Y100728D01*
X102963Y100715D01*
X103060Y100676D01*
X103153Y100633D01*
X103173Y100631D01*
X103191Y100623D01*
X103358Y100605D01*
X107761Y100605D01*
X107717Y100384D01*
X107337Y99466D01*
X106785Y98641D01*
X106219Y98074D01*
X106177Y98016D01*
X106128Y97964D01*
X106106Y97917D01*
X106075Y97875D01*
X106054Y97806D01*
X106024Y97741D01*
X106018Y97689D01*
X106003Y97639D01*
X106005Y97568D01*
X105997Y97497D01*
X106008Y97446D01*
X106009Y97394D01*
X106034Y97326D01*
X106049Y97256D01*
X106076Y97211D01*
X106094Y97163D01*
X106139Y97107D01*
X106175Y97045D01*
X106215Y97011D01*
X106248Y96971D01*
X106308Y96932D01*
X106362Y96885D01*
X106411Y96866D01*
X106454Y96838D01*
X106524Y96820D01*
X106591Y96793D01*
X106662Y96785D01*
X106693Y96777D01*
X106716Y96779D01*
X106757Y96775D01*
X110999Y96775D01*
X110999Y93549D01*
X111010Y93478D01*
X111012Y93407D01*
X111030Y93358D01*
X111039Y93306D01*
X111072Y93243D01*
X111097Y93176D01*
X111129Y93135D01*
X111154Y93089D01*
X111206Y93040D01*
X111250Y92984D01*
X111294Y92956D01*
X111332Y92920D01*
X111397Y92889D01*
X111457Y92851D01*
X111508Y92838D01*
X111555Y92816D01*
X111626Y92808D01*
X111696Y92791D01*
X111748Y92795D01*
X111799Y92789D01*
X111870Y92804D01*
X111941Y92810D01*
X111989Y92830D01*
X112040Y92841D01*
X112101Y92878D01*
X112167Y92906D01*
X112223Y92951D01*
X112251Y92967D01*
X112266Y92985D01*
X112298Y93011D01*
X112357Y93069D01*
X113182Y93621D01*
X114100Y94001D01*
X114321Y94045D01*
X114321Y89642D01*
X114324Y89623D01*
X114322Y89603D01*
X114344Y89501D01*
X114360Y89399D01*
X114370Y89382D01*
X114374Y89362D01*
X114427Y89273D01*
X114476Y89182D01*
X114490Y89168D01*
X114500Y89151D01*
X114579Y89084D01*
X114654Y89013D01*
X114672Y89004D01*
X114687Y88991D01*
X114783Y88953D01*
X114877Y88909D01*
X114897Y88907D01*
X114915Y88899D01*
X115082Y88881D01*
X115297Y88881D01*
X115297Y88666D01*
X115300Y88646D01*
X115298Y88626D01*
X115320Y88525D01*
X115337Y88423D01*
X115346Y88406D01*
X115350Y88386D01*
X115403Y88297D01*
X115452Y88206D01*
X115466Y88192D01*
X115476Y88175D01*
X115555Y88108D01*
X115630Y88036D01*
X115648Y88028D01*
X115663Y88015D01*
X115760Y87976D01*
X115853Y87933D01*
X115873Y87931D01*
X115891Y87923D01*
X116058Y87905D01*
X120461Y87905D01*
X120417Y87684D01*
X120200Y87159D01*
X120189Y87115D01*
X120170Y87073D01*
X120161Y86996D01*
X120144Y86920D01*
X120148Y86874D01*
X120143Y86829D01*
X120159Y86752D01*
X120167Y86675D01*
X120185Y86633D01*
X120195Y86588D01*
X120235Y86521D01*
X120267Y86450D01*
X120298Y86416D01*
X120321Y86377D01*
X120381Y86326D01*
X120433Y86269D01*
X120473Y86247D01*
X120508Y86217D01*
X120581Y86188D01*
X120649Y86151D01*
X120694Y86142D01*
X120736Y86125D01*
X120872Y86110D01*
X120891Y86107D01*
X120896Y86108D01*
X120903Y86107D01*
X122937Y86107D01*
X122982Y86114D01*
G37*
G36*
X98546Y122694D02*
X98546Y122694D01*
X98617Y122696D01*
X98666Y122714D01*
X98718Y122723D01*
X98781Y122756D01*
X98848Y122781D01*
X98889Y122813D01*
X98935Y122838D01*
X98984Y122890D01*
X99040Y122934D01*
X99068Y122978D01*
X99104Y123016D01*
X99135Y123081D01*
X99173Y123141D01*
X99186Y123192D01*
X99208Y123239D01*
X99216Y123310D01*
X99233Y123380D01*
X99229Y123432D01*
X99235Y123483D01*
X99220Y123554D01*
X99214Y123625D01*
X99194Y123673D01*
X99183Y123724D01*
X99146Y123785D01*
X99118Y123851D01*
X99073Y123907D01*
X99057Y123935D01*
X99039Y123950D01*
X99013Y123982D01*
X98955Y124041D01*
X98403Y124866D01*
X98023Y125784D01*
X97979Y126005D01*
X102382Y126005D01*
X102401Y126008D01*
X102421Y126006D01*
X102523Y126028D01*
X102625Y126044D01*
X102642Y126054D01*
X102662Y126058D01*
X102751Y126111D01*
X102842Y126160D01*
X102856Y126174D01*
X102873Y126184D01*
X102876Y126188D01*
X102930Y126136D01*
X102948Y126128D01*
X102963Y126115D01*
X103060Y126076D01*
X103153Y126033D01*
X103173Y126031D01*
X103191Y126023D01*
X103358Y126005D01*
X107761Y126005D01*
X107717Y125784D01*
X107337Y124866D01*
X106785Y124041D01*
X106727Y123982D01*
X106685Y123924D01*
X106636Y123872D01*
X106614Y123825D01*
X106583Y123783D01*
X106562Y123714D01*
X106532Y123649D01*
X106526Y123597D01*
X106511Y123548D01*
X106513Y123476D01*
X106505Y123405D01*
X106516Y123354D01*
X106517Y123302D01*
X106542Y123234D01*
X106557Y123164D01*
X106584Y123120D01*
X106602Y123071D01*
X106647Y123015D01*
X106683Y122953D01*
X106723Y122919D01*
X106755Y122879D01*
X106816Y122840D01*
X106870Y122793D01*
X106919Y122774D01*
X106962Y122746D01*
X107032Y122728D01*
X107099Y122701D01*
X107170Y122693D01*
X107201Y122685D01*
X107224Y122687D01*
X107265Y122683D01*
X111175Y122683D01*
X111246Y122694D01*
X111317Y122696D01*
X111366Y122714D01*
X111418Y122723D01*
X111481Y122756D01*
X111548Y122781D01*
X111589Y122813D01*
X111635Y122838D01*
X111684Y122890D01*
X111740Y122934D01*
X111768Y122978D01*
X111804Y123016D01*
X111835Y123081D01*
X111873Y123141D01*
X111886Y123192D01*
X111908Y123239D01*
X111916Y123310D01*
X111933Y123380D01*
X111929Y123432D01*
X111935Y123483D01*
X111920Y123554D01*
X111914Y123625D01*
X111894Y123673D01*
X111883Y123724D01*
X111846Y123785D01*
X111818Y123851D01*
X111773Y123907D01*
X111757Y123935D01*
X111739Y123950D01*
X111713Y123982D01*
X111655Y124041D01*
X111103Y124866D01*
X110723Y125784D01*
X110679Y126005D01*
X115082Y126005D01*
X115101Y126008D01*
X115121Y126006D01*
X115223Y126028D01*
X115325Y126044D01*
X115342Y126054D01*
X115362Y126058D01*
X115451Y126111D01*
X115542Y126160D01*
X115556Y126174D01*
X115573Y126184D01*
X115576Y126188D01*
X115630Y126136D01*
X115648Y126128D01*
X115663Y126115D01*
X115760Y126076D01*
X115853Y126033D01*
X115873Y126031D01*
X115891Y126023D01*
X116058Y126005D01*
X120461Y126005D01*
X120417Y125784D01*
X120037Y124866D01*
X119485Y124041D01*
X119427Y123982D01*
X119385Y123924D01*
X119336Y123872D01*
X119314Y123825D01*
X119283Y123783D01*
X119262Y123714D01*
X119232Y123649D01*
X119226Y123597D01*
X119211Y123548D01*
X119213Y123476D01*
X119205Y123405D01*
X119216Y123354D01*
X119217Y123302D01*
X119242Y123234D01*
X119257Y123164D01*
X119284Y123120D01*
X119302Y123071D01*
X119347Y123015D01*
X119383Y122953D01*
X119423Y122919D01*
X119455Y122879D01*
X119516Y122840D01*
X119570Y122793D01*
X119619Y122774D01*
X119662Y122746D01*
X119732Y122728D01*
X119799Y122701D01*
X119870Y122693D01*
X119901Y122685D01*
X119924Y122687D01*
X119965Y122683D01*
X123875Y122683D01*
X123946Y122694D01*
X124017Y122696D01*
X124066Y122714D01*
X124118Y122723D01*
X124181Y122756D01*
X124248Y122781D01*
X124289Y122813D01*
X124335Y122838D01*
X124384Y122890D01*
X124440Y122934D01*
X124468Y122978D01*
X124504Y123016D01*
X124535Y123081D01*
X124573Y123141D01*
X124586Y123192D01*
X124608Y123239D01*
X124616Y123310D01*
X124633Y123380D01*
X124629Y123432D01*
X124635Y123483D01*
X124620Y123554D01*
X124614Y123625D01*
X124594Y123673D01*
X124583Y123724D01*
X124546Y123785D01*
X124518Y123851D01*
X124473Y123907D01*
X124457Y123935D01*
X124439Y123950D01*
X124413Y123982D01*
X124355Y124041D01*
X123803Y124866D01*
X123423Y125784D01*
X123379Y126005D01*
X127782Y126005D01*
X127801Y126008D01*
X127821Y126006D01*
X127923Y126028D01*
X128025Y126044D01*
X128042Y126054D01*
X128062Y126058D01*
X128151Y126111D01*
X128242Y126160D01*
X128256Y126174D01*
X128273Y126184D01*
X128276Y126188D01*
X128330Y126136D01*
X128348Y126128D01*
X128363Y126115D01*
X128460Y126076D01*
X128553Y126033D01*
X128573Y126031D01*
X128591Y126023D01*
X128758Y126005D01*
X133161Y126005D01*
X133117Y125784D01*
X132737Y124866D01*
X132185Y124041D01*
X132127Y123982D01*
X132085Y123924D01*
X132036Y123872D01*
X132014Y123825D01*
X131983Y123783D01*
X131962Y123714D01*
X131932Y123649D01*
X131926Y123597D01*
X131911Y123548D01*
X131913Y123476D01*
X131905Y123405D01*
X131916Y123354D01*
X131917Y123302D01*
X131942Y123234D01*
X131957Y123164D01*
X131984Y123120D01*
X132002Y123071D01*
X132047Y123015D01*
X132083Y122953D01*
X132123Y122919D01*
X132155Y122879D01*
X132216Y122840D01*
X132270Y122793D01*
X132319Y122774D01*
X132362Y122746D01*
X132432Y122728D01*
X132499Y122701D01*
X132570Y122693D01*
X132601Y122685D01*
X132624Y122687D01*
X132665Y122683D01*
X136575Y122683D01*
X136646Y122694D01*
X136717Y122696D01*
X136766Y122714D01*
X136818Y122723D01*
X136881Y122756D01*
X136948Y122781D01*
X136989Y122813D01*
X137035Y122838D01*
X137084Y122890D01*
X137140Y122934D01*
X137168Y122978D01*
X137204Y123016D01*
X137235Y123081D01*
X137273Y123141D01*
X137286Y123192D01*
X137308Y123239D01*
X137316Y123310D01*
X137333Y123380D01*
X137329Y123432D01*
X137335Y123483D01*
X137320Y123554D01*
X137314Y123625D01*
X137294Y123673D01*
X137283Y123724D01*
X137246Y123785D01*
X137218Y123851D01*
X137173Y123907D01*
X137157Y123935D01*
X137139Y123950D01*
X137113Y123982D01*
X137055Y124041D01*
X136503Y124866D01*
X136123Y125784D01*
X136079Y126005D01*
X140482Y126005D01*
X140501Y126008D01*
X140521Y126006D01*
X140623Y126028D01*
X140725Y126044D01*
X140742Y126054D01*
X140762Y126058D01*
X140851Y126111D01*
X140942Y126160D01*
X140956Y126174D01*
X140973Y126184D01*
X140976Y126188D01*
X141030Y126136D01*
X141048Y126128D01*
X141063Y126115D01*
X141160Y126076D01*
X141253Y126033D01*
X141273Y126031D01*
X141291Y126023D01*
X141458Y126005D01*
X145861Y126005D01*
X145817Y125784D01*
X145437Y124866D01*
X144885Y124041D01*
X144827Y123982D01*
X144785Y123924D01*
X144736Y123872D01*
X144714Y123825D01*
X144683Y123783D01*
X144662Y123714D01*
X144632Y123649D01*
X144626Y123597D01*
X144611Y123548D01*
X144613Y123476D01*
X144605Y123405D01*
X144616Y123354D01*
X144617Y123302D01*
X144642Y123234D01*
X144657Y123164D01*
X144684Y123120D01*
X144702Y123071D01*
X144747Y123015D01*
X144783Y122953D01*
X144823Y122919D01*
X144855Y122879D01*
X144916Y122840D01*
X144970Y122793D01*
X145019Y122774D01*
X145062Y122746D01*
X145132Y122728D01*
X145199Y122701D01*
X145270Y122693D01*
X145301Y122685D01*
X145324Y122687D01*
X145365Y122683D01*
X149275Y122683D01*
X149346Y122694D01*
X149417Y122696D01*
X149466Y122714D01*
X149518Y122723D01*
X149581Y122756D01*
X149648Y122781D01*
X149689Y122813D01*
X149735Y122838D01*
X149784Y122890D01*
X149840Y122934D01*
X149868Y122978D01*
X149904Y123016D01*
X149935Y123081D01*
X149973Y123141D01*
X149986Y123192D01*
X150008Y123239D01*
X150016Y123310D01*
X150033Y123380D01*
X150029Y123432D01*
X150035Y123483D01*
X150020Y123554D01*
X150014Y123625D01*
X149994Y123673D01*
X149983Y123724D01*
X149946Y123785D01*
X149918Y123851D01*
X149873Y123907D01*
X149857Y123935D01*
X149839Y123950D01*
X149813Y123982D01*
X149755Y124041D01*
X149203Y124866D01*
X148823Y125784D01*
X148779Y126005D01*
X153182Y126005D01*
X153201Y126008D01*
X153221Y126006D01*
X153323Y126028D01*
X153425Y126044D01*
X153442Y126054D01*
X153462Y126058D01*
X153551Y126111D01*
X153642Y126160D01*
X153656Y126174D01*
X153673Y126184D01*
X153740Y126263D01*
X153811Y126338D01*
X153820Y126356D01*
X153833Y126371D01*
X153871Y126467D01*
X153915Y126561D01*
X153917Y126581D01*
X153925Y126599D01*
X153943Y126766D01*
X153943Y126981D01*
X154158Y126981D01*
X154178Y126984D01*
X154197Y126982D01*
X154299Y127004D01*
X154401Y127021D01*
X154418Y127030D01*
X154438Y127034D01*
X154527Y127087D01*
X154618Y127136D01*
X154632Y127150D01*
X154649Y127160D01*
X154716Y127239D01*
X154788Y127314D01*
X154796Y127332D01*
X154809Y127347D01*
X154848Y127444D01*
X154891Y127537D01*
X154893Y127557D01*
X154901Y127575D01*
X154919Y127742D01*
X154919Y132145D01*
X155140Y132101D01*
X155665Y131884D01*
X155709Y131873D01*
X155751Y131854D01*
X155828Y131845D01*
X155904Y131828D01*
X155950Y131832D01*
X155995Y131827D01*
X156072Y131843D01*
X156149Y131851D01*
X156191Y131869D01*
X156236Y131879D01*
X156303Y131919D01*
X156374Y131951D01*
X156408Y131982D01*
X156447Y132005D01*
X156498Y132064D01*
X156555Y132117D01*
X156577Y132157D01*
X156607Y132192D01*
X156636Y132264D01*
X156673Y132333D01*
X156682Y132378D01*
X156699Y132420D01*
X156714Y132556D01*
X156717Y132575D01*
X156716Y132580D01*
X156717Y132587D01*
X156717Y134112D01*
X156715Y134127D01*
X156716Y134141D01*
X156715Y134145D01*
X156716Y134151D01*
X156694Y134253D01*
X156678Y134355D01*
X156668Y134372D01*
X156664Y134392D01*
X156611Y134481D01*
X156562Y134572D01*
X156548Y134586D01*
X156538Y134603D01*
X156459Y134670D01*
X156384Y134742D01*
X156366Y134750D01*
X156351Y134763D01*
X156255Y134802D01*
X156161Y134845D01*
X156141Y134847D01*
X156123Y134855D01*
X155956Y134873D01*
X135381Y134873D01*
X135381Y144780D01*
X135379Y144791D01*
X135380Y144798D01*
X135379Y144806D01*
X135380Y144819D01*
X135358Y144921D01*
X135342Y145023D01*
X135332Y145040D01*
X135328Y145060D01*
X135275Y145149D01*
X135226Y145240D01*
X135212Y145254D01*
X135202Y145271D01*
X135123Y145338D01*
X135048Y145410D01*
X135030Y145418D01*
X135015Y145431D01*
X134919Y145470D01*
X134825Y145513D01*
X134805Y145515D01*
X134787Y145523D01*
X134620Y145541D01*
X131491Y145541D01*
X131468Y145538D01*
X131445Y145540D01*
X131347Y145518D01*
X131248Y145502D01*
X131228Y145491D01*
X131205Y145486D01*
X131119Y145433D01*
X131031Y145386D01*
X131015Y145370D01*
X130995Y145358D01*
X130930Y145281D01*
X130861Y145208D01*
X130851Y145187D01*
X130837Y145170D01*
X130800Y145076D01*
X130758Y144985D01*
X130755Y144962D01*
X130747Y144941D01*
X130741Y144840D01*
X130730Y144741D01*
X130735Y144718D01*
X130734Y144695D01*
X130761Y144598D01*
X130783Y144500D01*
X130794Y144480D01*
X130801Y144458D01*
X130857Y144375D01*
X130909Y144289D01*
X130926Y144274D01*
X130939Y144255D01*
X131068Y144147D01*
X131483Y143869D01*
X132185Y143167D01*
X132737Y142342D01*
X133117Y141424D01*
X133161Y141203D01*
X128758Y141203D01*
X128739Y141200D01*
X128719Y141202D01*
X128617Y141180D01*
X128515Y141164D01*
X128498Y141154D01*
X128478Y141150D01*
X128389Y141097D01*
X128298Y141048D01*
X128284Y141034D01*
X128267Y141024D01*
X128264Y141020D01*
X128210Y141072D01*
X128192Y141080D01*
X128177Y141093D01*
X128080Y141132D01*
X127987Y141175D01*
X127967Y141177D01*
X127949Y141185D01*
X127782Y141203D01*
X123379Y141203D01*
X123423Y141424D01*
X123803Y142342D01*
X124355Y143167D01*
X125057Y143869D01*
X125472Y144147D01*
X125489Y144163D01*
X125509Y144174D01*
X125579Y144246D01*
X125652Y144315D01*
X125663Y144335D01*
X125679Y144352D01*
X125721Y144443D01*
X125769Y144531D01*
X125773Y144554D01*
X125782Y144575D01*
X125794Y144675D01*
X125811Y144774D01*
X125807Y144797D01*
X125810Y144819D01*
X125788Y144918D01*
X125773Y145017D01*
X125762Y145037D01*
X125757Y145060D01*
X125706Y145146D01*
X125660Y145235D01*
X125643Y145251D01*
X125631Y145271D01*
X125555Y145336D01*
X125483Y145406D01*
X125462Y145416D01*
X125444Y145431D01*
X125351Y145468D01*
X125260Y145511D01*
X125237Y145514D01*
X125216Y145523D01*
X125049Y145541D01*
X118791Y145541D01*
X118768Y145538D01*
X118745Y145540D01*
X118647Y145518D01*
X118548Y145502D01*
X118528Y145491D01*
X118505Y145486D01*
X118419Y145433D01*
X118331Y145386D01*
X118315Y145370D01*
X118295Y145358D01*
X118230Y145281D01*
X118161Y145208D01*
X118151Y145187D01*
X118137Y145170D01*
X118100Y145076D01*
X118058Y144985D01*
X118055Y144962D01*
X118047Y144941D01*
X118041Y144840D01*
X118030Y144741D01*
X118035Y144718D01*
X118034Y144695D01*
X118061Y144598D01*
X118083Y144500D01*
X118094Y144480D01*
X118101Y144458D01*
X118157Y144375D01*
X118209Y144289D01*
X118226Y144274D01*
X118239Y144255D01*
X118368Y144147D01*
X118783Y143869D01*
X119485Y143167D01*
X120037Y142342D01*
X120417Y141424D01*
X120461Y141203D01*
X116058Y141203D01*
X116039Y141200D01*
X116019Y141202D01*
X115917Y141180D01*
X115815Y141164D01*
X115798Y141154D01*
X115778Y141150D01*
X115689Y141097D01*
X115598Y141048D01*
X115584Y141034D01*
X115567Y141024D01*
X115564Y141020D01*
X115510Y141072D01*
X115492Y141080D01*
X115477Y141093D01*
X115380Y141132D01*
X115287Y141175D01*
X115267Y141177D01*
X115249Y141185D01*
X115082Y141203D01*
X110679Y141203D01*
X110723Y141424D01*
X111103Y142342D01*
X111655Y143167D01*
X112357Y143869D01*
X112772Y144147D01*
X112789Y144163D01*
X112809Y144174D01*
X112879Y144246D01*
X112952Y144315D01*
X112963Y144335D01*
X112979Y144352D01*
X113021Y144443D01*
X113069Y144531D01*
X113073Y144554D01*
X113082Y144575D01*
X113094Y144675D01*
X113111Y144774D01*
X113107Y144797D01*
X113110Y144819D01*
X113088Y144918D01*
X113073Y145017D01*
X113062Y145037D01*
X113057Y145060D01*
X113006Y145146D01*
X112960Y145235D01*
X112943Y145251D01*
X112931Y145271D01*
X112855Y145336D01*
X112783Y145406D01*
X112762Y145416D01*
X112744Y145431D01*
X112651Y145468D01*
X112560Y145511D01*
X112537Y145514D01*
X112516Y145523D01*
X112349Y145541D01*
X108712Y145541D01*
X108692Y145538D01*
X108673Y145540D01*
X108571Y145518D01*
X108469Y145502D01*
X108452Y145492D01*
X108432Y145488D01*
X108343Y145435D01*
X108252Y145386D01*
X108238Y145372D01*
X108221Y145362D01*
X108154Y145283D01*
X108083Y145208D01*
X108074Y145190D01*
X108061Y145175D01*
X108022Y145079D01*
X107979Y144985D01*
X107977Y144965D01*
X107969Y144947D01*
X107951Y144780D01*
X107951Y134873D01*
X87376Y134873D01*
X87356Y134870D01*
X87337Y134872D01*
X87235Y134850D01*
X87133Y134834D01*
X87116Y134824D01*
X87096Y134820D01*
X87007Y134767D01*
X86916Y134718D01*
X86902Y134704D01*
X86885Y134694D01*
X86818Y134615D01*
X86747Y134540D01*
X86738Y134522D01*
X86725Y134507D01*
X86686Y134411D01*
X86643Y134317D01*
X86641Y134297D01*
X86633Y134279D01*
X86615Y134112D01*
X86615Y132365D01*
X86634Y132246D01*
X86653Y132128D01*
X86654Y132125D01*
X86655Y132122D01*
X86710Y132018D01*
X86766Y131910D01*
X86768Y131908D01*
X86770Y131905D01*
X86855Y131823D01*
X86943Y131739D01*
X86946Y131738D01*
X86948Y131736D01*
X87058Y131685D01*
X87165Y131634D01*
X87168Y131633D01*
X87171Y131632D01*
X87291Y131619D01*
X87409Y131605D01*
X87412Y131605D01*
X87415Y131605D01*
X87534Y131631D01*
X87650Y131655D01*
X87653Y131657D01*
X87656Y131657D01*
X87665Y131663D01*
X87759Y131711D01*
X88700Y132101D01*
X88921Y132145D01*
X88921Y127742D01*
X88924Y127723D01*
X88922Y127703D01*
X88944Y127601D01*
X88960Y127499D01*
X88970Y127482D01*
X88974Y127462D01*
X89027Y127373D01*
X89076Y127282D01*
X89090Y127268D01*
X89100Y127251D01*
X89179Y127184D01*
X89254Y127113D01*
X89272Y127104D01*
X89287Y127091D01*
X89383Y127053D01*
X89477Y127009D01*
X89497Y127007D01*
X89515Y126999D01*
X89682Y126981D01*
X89897Y126981D01*
X89897Y126766D01*
X89900Y126746D01*
X89898Y126726D01*
X89920Y126625D01*
X89937Y126523D01*
X89946Y126506D01*
X89950Y126486D01*
X90003Y126397D01*
X90052Y126306D01*
X90066Y126292D01*
X90076Y126275D01*
X90155Y126208D01*
X90230Y126136D01*
X90248Y126128D01*
X90263Y126115D01*
X90360Y126076D01*
X90453Y126033D01*
X90473Y126031D01*
X90491Y126023D01*
X90658Y126005D01*
X95061Y126005D01*
X95017Y125784D01*
X94637Y124866D01*
X94085Y124041D01*
X94027Y123982D01*
X93985Y123924D01*
X93936Y123872D01*
X93914Y123825D01*
X93883Y123783D01*
X93862Y123714D01*
X93832Y123649D01*
X93826Y123597D01*
X93811Y123548D01*
X93813Y123476D01*
X93805Y123405D01*
X93816Y123354D01*
X93817Y123302D01*
X93842Y123234D01*
X93857Y123164D01*
X93884Y123120D01*
X93902Y123071D01*
X93947Y123015D01*
X93983Y122953D01*
X94023Y122919D01*
X94055Y122879D01*
X94116Y122840D01*
X94170Y122793D01*
X94219Y122774D01*
X94262Y122746D01*
X94332Y122728D01*
X94399Y122701D01*
X94470Y122693D01*
X94501Y122685D01*
X94524Y122687D01*
X94565Y122683D01*
X98475Y122683D01*
X98546Y122694D01*
G37*
G36*
X189664Y92980D02*
X189664Y92980D01*
X189755Y92987D01*
X189784Y92999D01*
X189816Y93005D01*
X189897Y93047D01*
X189981Y93083D01*
X190013Y93109D01*
X190034Y93120D01*
X190056Y93143D01*
X190101Y93179D01*
X193441Y93179D01*
X193502Y93135D01*
X193572Y93075D01*
X193602Y93063D01*
X193628Y93044D01*
X193715Y93017D01*
X193800Y92983D01*
X193841Y92979D01*
X193863Y92972D01*
X193895Y92973D01*
X193966Y92965D01*
X202274Y92965D01*
X202364Y92980D01*
X202455Y92987D01*
X202484Y92999D01*
X202516Y93005D01*
X202597Y93047D01*
X202681Y93083D01*
X202713Y93109D01*
X202734Y93120D01*
X202756Y93143D01*
X202801Y93179D01*
X206141Y93179D01*
X206202Y93135D01*
X206272Y93075D01*
X206302Y93063D01*
X206328Y93044D01*
X206415Y93017D01*
X206500Y92983D01*
X206541Y92979D01*
X206563Y92972D01*
X206595Y92973D01*
X206666Y92965D01*
X214974Y92965D01*
X215064Y92980D01*
X215155Y92987D01*
X215184Y92999D01*
X215216Y93005D01*
X215297Y93047D01*
X215381Y93083D01*
X215413Y93109D01*
X215434Y93120D01*
X215456Y93143D01*
X215501Y93179D01*
X218841Y93179D01*
X218902Y93135D01*
X218972Y93075D01*
X219002Y93063D01*
X219028Y93044D01*
X219115Y93017D01*
X219200Y92983D01*
X219241Y92979D01*
X219263Y92972D01*
X219295Y92973D01*
X219366Y92965D01*
X224536Y92965D01*
X224556Y92968D01*
X224575Y92966D01*
X224677Y92988D01*
X224779Y93005D01*
X224796Y93014D01*
X224816Y93018D01*
X224905Y93071D01*
X224996Y93120D01*
X225010Y93134D01*
X225027Y93144D01*
X225094Y93223D01*
X225166Y93298D01*
X225174Y93316D01*
X225187Y93331D01*
X225226Y93427D01*
X225269Y93521D01*
X225271Y93541D01*
X225279Y93559D01*
X225297Y93726D01*
X225297Y110490D01*
X225295Y110503D01*
X225296Y110513D01*
X225295Y110519D01*
X225296Y110529D01*
X225274Y110631D01*
X225258Y110733D01*
X225248Y110750D01*
X225244Y110770D01*
X225191Y110859D01*
X225142Y110950D01*
X225128Y110964D01*
X225118Y110981D01*
X225039Y111048D01*
X224964Y111120D01*
X224946Y111128D01*
X224931Y111141D01*
X224835Y111180D01*
X224741Y111223D01*
X224721Y111225D01*
X224703Y111233D01*
X224536Y111251D01*
X219874Y111251D01*
X219784Y111237D01*
X219693Y111229D01*
X219664Y111217D01*
X219632Y111212D01*
X219551Y111169D01*
X219467Y111133D01*
X219435Y111107D01*
X219414Y111096D01*
X219399Y111081D01*
X219398Y111080D01*
X219389Y111070D01*
X219336Y111028D01*
X218837Y110529D01*
X215503Y110529D01*
X215004Y111028D01*
X214930Y111081D01*
X214860Y111141D01*
X214830Y111153D01*
X214804Y111172D01*
X214717Y111199D01*
X214632Y111233D01*
X214591Y111237D01*
X214569Y111244D01*
X214537Y111243D01*
X214466Y111251D01*
X207174Y111251D01*
X207084Y111237D01*
X206993Y111229D01*
X206964Y111217D01*
X206932Y111212D01*
X206851Y111169D01*
X206767Y111133D01*
X206735Y111107D01*
X206714Y111096D01*
X206699Y111081D01*
X206698Y111080D01*
X206689Y111070D01*
X206636Y111028D01*
X206137Y110529D01*
X202803Y110529D01*
X202304Y111028D01*
X202230Y111081D01*
X202160Y111141D01*
X202130Y111153D01*
X202104Y111172D01*
X202017Y111199D01*
X201932Y111233D01*
X201891Y111237D01*
X201869Y111244D01*
X201837Y111243D01*
X201766Y111251D01*
X194474Y111251D01*
X194384Y111237D01*
X194293Y111229D01*
X194264Y111217D01*
X194232Y111212D01*
X194151Y111169D01*
X194067Y111133D01*
X194035Y111107D01*
X194014Y111096D01*
X193999Y111081D01*
X193998Y111080D01*
X193989Y111070D01*
X193936Y111028D01*
X193437Y110529D01*
X190103Y110529D01*
X189604Y111028D01*
X189530Y111081D01*
X189460Y111141D01*
X189430Y111153D01*
X189404Y111172D01*
X189317Y111199D01*
X189232Y111233D01*
X189191Y111237D01*
X189169Y111244D01*
X189137Y111243D01*
X189066Y111251D01*
X188722Y111251D01*
X188702Y111248D01*
X188683Y111250D01*
X188581Y111228D01*
X188479Y111212D01*
X188462Y111202D01*
X188442Y111198D01*
X188353Y111145D01*
X188262Y111096D01*
X188248Y111082D01*
X188231Y111072D01*
X188164Y110993D01*
X188093Y110918D01*
X188084Y110900D01*
X188071Y110885D01*
X188032Y110789D01*
X187989Y110695D01*
X187987Y110675D01*
X187979Y110657D01*
X187961Y110490D01*
X187961Y106795D01*
X187980Y106678D01*
X187999Y106558D01*
X188000Y106556D01*
X188001Y106553D01*
X188056Y106448D01*
X188112Y106340D01*
X188114Y106338D01*
X188116Y106335D01*
X188203Y106253D01*
X188289Y106169D01*
X188292Y106168D01*
X188294Y106166D01*
X188403Y106115D01*
X188511Y106064D01*
X188514Y106064D01*
X188517Y106062D01*
X188635Y106049D01*
X188755Y106035D01*
X188758Y106035D01*
X188761Y106035D01*
X188878Y106060D01*
X188996Y106085D01*
X188999Y106087D01*
X189002Y106087D01*
X189011Y106093D01*
X189145Y106162D01*
X189382Y106321D01*
X190300Y106701D01*
X190521Y106745D01*
X190521Y102342D01*
X190524Y102323D01*
X190522Y102303D01*
X190544Y102201D01*
X190560Y102099D01*
X190570Y102082D01*
X190574Y102062D01*
X190627Y101973D01*
X190676Y101882D01*
X190690Y101868D01*
X190700Y101851D01*
X190704Y101848D01*
X190652Y101794D01*
X190644Y101776D01*
X190631Y101761D01*
X190592Y101664D01*
X190549Y101571D01*
X190547Y101551D01*
X190539Y101533D01*
X190521Y101366D01*
X190521Y96963D01*
X190300Y97007D01*
X189382Y97387D01*
X189145Y97546D01*
X189035Y97595D01*
X188927Y97646D01*
X188924Y97646D01*
X188921Y97647D01*
X188801Y97660D01*
X188683Y97673D01*
X188679Y97672D01*
X188676Y97673D01*
X188560Y97646D01*
X188442Y97621D01*
X188439Y97619D01*
X188436Y97618D01*
X188334Y97556D01*
X188231Y97494D01*
X188229Y97492D01*
X188226Y97490D01*
X188149Y97398D01*
X188071Y97308D01*
X188070Y97305D01*
X188068Y97302D01*
X188024Y97192D01*
X187979Y97079D01*
X187979Y97076D01*
X187978Y97073D01*
X187977Y97063D01*
X187961Y96913D01*
X187961Y93726D01*
X187964Y93706D01*
X187962Y93687D01*
X187984Y93585D01*
X188001Y93483D01*
X188010Y93466D01*
X188014Y93446D01*
X188067Y93357D01*
X188116Y93266D01*
X188130Y93252D01*
X188140Y93235D01*
X188219Y93168D01*
X188294Y93097D01*
X188312Y93088D01*
X188327Y93075D01*
X188423Y93036D01*
X188517Y92993D01*
X188537Y92991D01*
X188555Y92983D01*
X188722Y92965D01*
X189574Y92965D01*
X189664Y92980D01*
G37*
G36*
X455978Y42422D02*
X455978Y42422D01*
X455997Y42420D01*
X456099Y42442D01*
X456201Y42459D01*
X456218Y42468D01*
X456238Y42472D01*
X456327Y42525D01*
X456418Y42574D01*
X456432Y42588D01*
X456449Y42598D01*
X456516Y42677D01*
X456588Y42752D01*
X456596Y42770D01*
X456609Y42785D01*
X456648Y42881D01*
X456691Y42975D01*
X456693Y42995D01*
X456701Y43013D01*
X456719Y43180D01*
X456719Y43301D01*
X465772Y43301D01*
X465791Y43304D01*
X465811Y43302D01*
X465913Y43324D01*
X466015Y43340D01*
X466032Y43350D01*
X466052Y43354D01*
X466141Y43407D01*
X466232Y43456D01*
X466246Y43470D01*
X466263Y43480D01*
X466330Y43559D01*
X466401Y43634D01*
X466410Y43652D01*
X466423Y43667D01*
X466461Y43763D01*
X466486Y43816D01*
X466491Y43817D01*
X466508Y43826D01*
X466528Y43830D01*
X466617Y43883D01*
X466708Y43932D01*
X466722Y43946D01*
X466739Y43956D01*
X466806Y44035D01*
X466878Y44110D01*
X466886Y44128D01*
X466899Y44143D01*
X466938Y44240D01*
X466981Y44333D01*
X466983Y44353D01*
X466991Y44371D01*
X467009Y44538D01*
X467009Y50562D01*
X467006Y50581D01*
X467008Y50601D01*
X466986Y50703D01*
X466970Y50805D01*
X466969Y50806D01*
X466981Y50833D01*
X466983Y50853D01*
X466991Y50871D01*
X467009Y51038D01*
X467009Y57062D01*
X467006Y57081D01*
X467008Y57101D01*
X466986Y57203D01*
X466970Y57305D01*
X466969Y57306D01*
X466981Y57333D01*
X466983Y57353D01*
X466991Y57371D01*
X467009Y57538D01*
X467009Y63562D01*
X467006Y63581D01*
X467008Y63601D01*
X466986Y63703D01*
X466970Y63805D01*
X466960Y63822D01*
X466956Y63842D01*
X466903Y63931D01*
X466854Y64022D01*
X466840Y64036D01*
X466830Y64053D01*
X466751Y64120D01*
X466676Y64191D01*
X466658Y64200D01*
X466643Y64213D01*
X466547Y64251D01*
X466453Y64295D01*
X466433Y64297D01*
X466415Y64305D01*
X466248Y64323D01*
X465772Y64323D01*
X465752Y64320D01*
X465732Y64322D01*
X465631Y64300D01*
X465529Y64283D01*
X465512Y64274D01*
X465492Y64270D01*
X465403Y64217D01*
X465312Y64168D01*
X465298Y64154D01*
X465281Y64144D01*
X465214Y64065D01*
X465142Y63990D01*
X465134Y63972D01*
X465121Y63957D01*
X465082Y63860D01*
X465039Y63767D01*
X465037Y63747D01*
X465029Y63729D01*
X465011Y63562D01*
X465011Y58299D01*
X456719Y58299D01*
X456719Y59634D01*
X456912Y60353D01*
X456923Y60467D01*
X456937Y60581D01*
X456936Y60591D01*
X456936Y60598D01*
X456931Y60619D01*
X456912Y60747D01*
X456719Y61466D01*
X456719Y62335D01*
X456700Y62452D01*
X456682Y62570D01*
X456680Y62574D01*
X456680Y62578D01*
X456624Y62682D01*
X456569Y62789D01*
X456566Y62792D01*
X456564Y62795D01*
X456479Y62876D01*
X456393Y62960D01*
X456389Y62962D01*
X456386Y62964D01*
X456278Y63015D01*
X456171Y63066D01*
X456167Y63066D01*
X456163Y63068D01*
X456045Y63081D01*
X455927Y63096D01*
X455922Y63095D01*
X455919Y63095D01*
X455905Y63092D01*
X455820Y63079D01*
X451983Y63079D01*
X451983Y66040D01*
X451981Y66051D01*
X451982Y66057D01*
X451980Y66065D01*
X451982Y66079D01*
X451960Y66181D01*
X451943Y66283D01*
X451934Y66300D01*
X451930Y66320D01*
X451877Y66409D01*
X451828Y66500D01*
X451814Y66514D01*
X451804Y66531D01*
X451725Y66598D01*
X451650Y66670D01*
X451632Y66678D01*
X451617Y66691D01*
X451521Y66730D01*
X451427Y66773D01*
X451407Y66775D01*
X451389Y66783D01*
X451222Y66801D01*
X449698Y66801D01*
X449678Y66798D01*
X449659Y66800D01*
X449557Y66778D01*
X449455Y66762D01*
X449438Y66752D01*
X449418Y66748D01*
X449329Y66695D01*
X449238Y66646D01*
X449224Y66632D01*
X449207Y66622D01*
X449140Y66543D01*
X449069Y66468D01*
X449060Y66450D01*
X449047Y66435D01*
X449008Y66339D01*
X448965Y66245D01*
X448963Y66225D01*
X448955Y66207D01*
X448937Y66040D01*
X448937Y63079D01*
X447040Y63079D01*
X447020Y63076D01*
X447001Y63078D01*
X446899Y63056D01*
X446797Y63040D01*
X446780Y63030D01*
X446760Y63026D01*
X446671Y62973D01*
X446580Y62924D01*
X446566Y62910D01*
X446549Y62900D01*
X446482Y62821D01*
X446411Y62746D01*
X446402Y62728D01*
X446389Y62713D01*
X446350Y62617D01*
X446307Y62523D01*
X446305Y62503D01*
X446297Y62485D01*
X446279Y62318D01*
X446279Y43180D01*
X446282Y43160D01*
X446280Y43141D01*
X446302Y43039D01*
X446319Y42937D01*
X446328Y42920D01*
X446332Y42900D01*
X446385Y42811D01*
X446434Y42720D01*
X446448Y42706D01*
X446458Y42689D01*
X446537Y42622D01*
X446612Y42551D01*
X446630Y42542D01*
X446645Y42529D01*
X446741Y42490D01*
X446835Y42447D01*
X446855Y42445D01*
X446873Y42437D01*
X447040Y42419D01*
X455958Y42419D01*
X455978Y42422D01*
G37*
G36*
X307458Y209566D02*
X307458Y209566D01*
X307577Y209573D01*
X307615Y209586D01*
X307656Y209591D01*
X307766Y209634D01*
X307879Y209671D01*
X307914Y209693D01*
X307951Y209708D01*
X308047Y209778D01*
X308148Y209841D01*
X308176Y209871D01*
X308209Y209894D01*
X308285Y209986D01*
X308366Y210073D01*
X308386Y210108D01*
X308411Y210139D01*
X308462Y210247D01*
X308520Y210351D01*
X308530Y210391D01*
X308547Y210427D01*
X308569Y210544D01*
X308599Y210659D01*
X308603Y210720D01*
X308607Y210740D01*
X308605Y210760D01*
X308609Y210820D01*
X308609Y231140D01*
X308594Y231258D01*
X308587Y231377D01*
X308574Y231415D01*
X308569Y231456D01*
X308526Y231566D01*
X308489Y231679D01*
X308467Y231714D01*
X308452Y231751D01*
X308383Y231847D01*
X308319Y231948D01*
X308289Y231976D01*
X308266Y232009D01*
X308174Y232085D01*
X308087Y232166D01*
X308052Y232186D01*
X308021Y232211D01*
X307913Y232262D01*
X307809Y232320D01*
X307769Y232330D01*
X307733Y232347D01*
X307616Y232369D01*
X307501Y232399D01*
X307441Y232403D01*
X307421Y232407D01*
X307400Y232405D01*
X307340Y232409D01*
X299884Y232409D01*
X299747Y232392D01*
X299608Y232379D01*
X299589Y232372D01*
X299569Y232369D01*
X299440Y232318D01*
X299308Y232271D01*
X299292Y232260D01*
X299273Y232252D01*
X299161Y232171D01*
X299045Y232093D01*
X299032Y232077D01*
X299016Y232066D01*
X298927Y231958D01*
X298835Y231854D01*
X298826Y231836D01*
X298813Y231821D01*
X298754Y231695D01*
X298690Y231571D01*
X298686Y231551D01*
X298677Y231533D01*
X298651Y231397D01*
X298621Y231261D01*
X298621Y231240D01*
X298617Y231221D01*
X298626Y231082D01*
X298630Y230943D01*
X298636Y230923D01*
X298637Y230903D01*
X298680Y230771D01*
X298719Y230637D01*
X298729Y230620D01*
X298735Y230601D01*
X298810Y230483D01*
X298880Y230363D01*
X298899Y230342D01*
X298905Y230332D01*
X298916Y230322D01*
X298917Y230320D01*
X298924Y230314D01*
X298987Y230243D01*
X299141Y230088D01*
X299476Y229509D01*
X299649Y228862D01*
X299649Y223229D01*
X290540Y223229D01*
X290422Y223214D01*
X290303Y223207D01*
X290265Y223194D01*
X290225Y223189D01*
X290114Y223146D01*
X290001Y223109D01*
X289967Y223087D01*
X289929Y223072D01*
X289833Y223003D01*
X289732Y222939D01*
X289704Y222909D01*
X289672Y222886D01*
X289596Y222794D01*
X289514Y222707D01*
X289495Y222672D01*
X289469Y222641D01*
X289418Y222533D01*
X289361Y222429D01*
X289351Y222389D01*
X289333Y222353D01*
X289311Y222236D01*
X289281Y222121D01*
X289277Y222061D01*
X289274Y222041D01*
X289275Y222020D01*
X289271Y221960D01*
X289271Y220000D01*
X289286Y219882D01*
X289293Y219763D01*
X289306Y219725D01*
X289311Y219684D01*
X289355Y219574D01*
X289391Y219461D01*
X289413Y219426D01*
X289428Y219389D01*
X289498Y219292D01*
X289561Y219192D01*
X289591Y219164D01*
X289615Y219131D01*
X289706Y219055D01*
X289793Y218974D01*
X289828Y218954D01*
X289860Y218929D01*
X289967Y218878D01*
X290072Y218820D01*
X290111Y218810D01*
X290147Y218793D01*
X290264Y218771D01*
X290380Y218741D01*
X290440Y218737D01*
X290460Y218733D01*
X290480Y218735D01*
X290540Y218731D01*
X299649Y218731D01*
X299649Y213098D01*
X299476Y212451D01*
X299141Y211872D01*
X298987Y211718D01*
X298902Y211608D01*
X298813Y211501D01*
X298804Y211482D01*
X298792Y211466D01*
X298736Y211338D01*
X298677Y211213D01*
X298673Y211193D01*
X298665Y211174D01*
X298644Y211037D01*
X298617Y210901D01*
X298619Y210880D01*
X298616Y210860D01*
X298629Y210722D01*
X298637Y210583D01*
X298643Y210564D01*
X298645Y210544D01*
X298692Y210413D01*
X298735Y210281D01*
X298746Y210264D01*
X298753Y210244D01*
X298831Y210129D01*
X298905Y210012D01*
X298920Y209998D01*
X298931Y209981D01*
X299035Y209889D01*
X299137Y209794D01*
X299155Y209784D01*
X299170Y209771D01*
X299293Y209708D01*
X299415Y209640D01*
X299435Y209635D01*
X299453Y209626D01*
X299589Y209596D01*
X299723Y209561D01*
X299751Y209559D01*
X299763Y209557D01*
X299784Y209557D01*
X299884Y209551D01*
X307340Y209551D01*
X307458Y209566D01*
G37*
G36*
X330174Y209568D02*
X330174Y209568D01*
X330312Y209581D01*
X330331Y209588D01*
X330351Y209591D01*
X330481Y209642D01*
X330612Y209689D01*
X330628Y209700D01*
X330647Y209708D01*
X330760Y209789D01*
X330875Y209867D01*
X330888Y209883D01*
X330904Y209894D01*
X330993Y210002D01*
X331085Y210106D01*
X331094Y210124D01*
X331107Y210139D01*
X331166Y210265D01*
X331230Y210389D01*
X331234Y210409D01*
X331243Y210427D01*
X331269Y210564D01*
X331299Y210699D01*
X331299Y210720D01*
X331303Y210740D01*
X331294Y210878D01*
X331290Y211017D01*
X331284Y211037D01*
X331283Y211057D01*
X331240Y211189D01*
X331201Y211323D01*
X331191Y211340D01*
X331185Y211359D01*
X331110Y211477D01*
X331040Y211597D01*
X331021Y211618D01*
X331015Y211628D01*
X331000Y211642D01*
X330933Y211718D01*
X330779Y211872D01*
X330444Y212451D01*
X330271Y213098D01*
X330271Y218731D01*
X339380Y218731D01*
X339498Y218746D01*
X339617Y218753D01*
X339655Y218765D01*
X339695Y218771D01*
X339806Y218814D01*
X339919Y218851D01*
X339953Y218873D01*
X339991Y218888D01*
X340087Y218957D01*
X340188Y219021D01*
X340216Y219051D01*
X340248Y219074D01*
X340324Y219166D01*
X340406Y219253D01*
X340425Y219288D01*
X340451Y219319D01*
X340502Y219427D01*
X340559Y219531D01*
X340569Y219571D01*
X340587Y219607D01*
X340609Y219724D01*
X340639Y219839D01*
X340643Y219899D01*
X340646Y219919D01*
X340645Y219940D01*
X340649Y220000D01*
X340649Y221960D01*
X340634Y222078D01*
X340627Y222197D01*
X340614Y222235D01*
X340609Y222276D01*
X340565Y222386D01*
X340529Y222499D01*
X340507Y222534D01*
X340492Y222571D01*
X340422Y222667D01*
X340359Y222768D01*
X340329Y222796D01*
X340305Y222829D01*
X340214Y222905D01*
X340127Y222986D01*
X340092Y223006D01*
X340060Y223031D01*
X339953Y223082D01*
X339848Y223140D01*
X339809Y223150D01*
X339773Y223167D01*
X339656Y223189D01*
X339540Y223219D01*
X339480Y223223D01*
X339460Y223227D01*
X339440Y223225D01*
X339380Y223229D01*
X330271Y223229D01*
X330271Y228862D01*
X330444Y229509D01*
X330779Y230088D01*
X330933Y230243D01*
X331019Y230352D01*
X331107Y230459D01*
X331116Y230478D01*
X331128Y230494D01*
X331184Y230622D01*
X331243Y230747D01*
X331247Y230767D01*
X331255Y230786D01*
X331277Y230924D01*
X331303Y231060D01*
X331301Y231080D01*
X331305Y231100D01*
X331291Y231239D01*
X331283Y231377D01*
X331277Y231396D01*
X331275Y231416D01*
X331228Y231548D01*
X331185Y231679D01*
X331174Y231697D01*
X331167Y231716D01*
X331089Y231831D01*
X331015Y231948D01*
X331000Y231962D01*
X330989Y231979D01*
X330884Y232071D01*
X330783Y232166D01*
X330765Y232176D01*
X330750Y232189D01*
X330626Y232252D01*
X330505Y232320D01*
X330485Y232325D01*
X330467Y232334D01*
X330331Y232364D01*
X330197Y232399D01*
X330169Y232401D01*
X330157Y232404D01*
X330136Y232403D01*
X330036Y232409D01*
X322580Y232409D01*
X322462Y232394D01*
X322343Y232387D01*
X322305Y232374D01*
X322264Y232369D01*
X322154Y232326D01*
X322041Y232289D01*
X322006Y232267D01*
X321969Y232252D01*
X321873Y232183D01*
X321772Y232119D01*
X321744Y232089D01*
X321711Y232066D01*
X321636Y231974D01*
X321554Y231887D01*
X321534Y231852D01*
X321509Y231821D01*
X321458Y231713D01*
X321400Y231609D01*
X321390Y231569D01*
X321373Y231533D01*
X321351Y231416D01*
X321321Y231301D01*
X321317Y231241D01*
X321313Y231221D01*
X321314Y231211D01*
X321313Y231209D01*
X321314Y231194D01*
X321311Y231140D01*
X321311Y210820D01*
X321326Y210702D01*
X321333Y210583D01*
X321346Y210545D01*
X321351Y210504D01*
X321394Y210394D01*
X321431Y210281D01*
X321453Y210246D01*
X321468Y210209D01*
X321538Y210113D01*
X321601Y210012D01*
X321631Y209984D01*
X321654Y209951D01*
X321746Y209876D01*
X321833Y209794D01*
X321868Y209774D01*
X321899Y209749D01*
X322007Y209698D01*
X322111Y209640D01*
X322151Y209630D01*
X322187Y209613D01*
X322304Y209591D01*
X322419Y209561D01*
X322480Y209557D01*
X322500Y209553D01*
X322520Y209555D01*
X322580Y209551D01*
X330036Y209551D01*
X330174Y209568D01*
G37*
G36*
X97372Y73922D02*
X97372Y73922D01*
X97418Y73920D01*
X97492Y73942D01*
X97569Y73955D01*
X97610Y73976D01*
X97654Y73989D01*
X97718Y74033D01*
X97787Y74070D01*
X97818Y74103D01*
X97856Y74129D01*
X97902Y74192D01*
X97956Y74248D01*
X97975Y74290D01*
X98003Y74326D01*
X98027Y74401D01*
X98060Y74471D01*
X98065Y74517D01*
X98079Y74560D01*
X98078Y74638D01*
X98087Y74715D01*
X98077Y74760D01*
X98076Y74806D01*
X98038Y74937D01*
X98034Y74956D01*
X98032Y74960D01*
X98030Y74967D01*
X98023Y74984D01*
X97979Y75205D01*
X102382Y75205D01*
X102401Y75208D01*
X102421Y75206D01*
X102523Y75228D01*
X102625Y75244D01*
X102642Y75254D01*
X102662Y75258D01*
X102751Y75311D01*
X102842Y75360D01*
X102856Y75374D01*
X102873Y75384D01*
X102940Y75463D01*
X103011Y75538D01*
X103020Y75556D01*
X103033Y75571D01*
X103071Y75667D01*
X103115Y75761D01*
X103117Y75781D01*
X103125Y75799D01*
X103143Y75966D01*
X103143Y76181D01*
X103358Y76181D01*
X103378Y76184D01*
X103397Y76182D01*
X103499Y76204D01*
X103601Y76221D01*
X103618Y76230D01*
X103638Y76234D01*
X103727Y76287D01*
X103818Y76336D01*
X103832Y76350D01*
X103849Y76360D01*
X103916Y76439D01*
X103988Y76514D01*
X103996Y76532D01*
X104009Y76547D01*
X104048Y76644D01*
X104091Y76737D01*
X104093Y76757D01*
X104101Y76775D01*
X104119Y76942D01*
X104119Y81345D01*
X104340Y81301D01*
X104865Y81084D01*
X104909Y81073D01*
X104951Y81054D01*
X105028Y81045D01*
X105104Y81028D01*
X105150Y81032D01*
X105195Y81027D01*
X105272Y81043D01*
X105349Y81051D01*
X105391Y81069D01*
X105436Y81079D01*
X105503Y81119D01*
X105574Y81151D01*
X105608Y81182D01*
X105647Y81205D01*
X105698Y81264D01*
X105755Y81317D01*
X105777Y81357D01*
X105807Y81392D01*
X105836Y81464D01*
X105873Y81533D01*
X105882Y81578D01*
X105899Y81620D01*
X105914Y81756D01*
X105917Y81775D01*
X105916Y81780D01*
X105917Y81787D01*
X105917Y83821D01*
X105915Y83837D01*
X105916Y83850D01*
X105910Y83878D01*
X105912Y83912D01*
X105890Y83987D01*
X105878Y84064D01*
X105865Y84088D01*
X105864Y84091D01*
X105856Y84103D01*
X105856Y84104D01*
X105843Y84148D01*
X105799Y84212D01*
X105762Y84281D01*
X105729Y84313D01*
X105703Y84350D01*
X105640Y84397D01*
X105584Y84450D01*
X105542Y84470D01*
X105506Y84497D01*
X105432Y84521D01*
X105361Y84554D01*
X105315Y84559D01*
X105272Y84573D01*
X105194Y84573D01*
X105117Y84581D01*
X105072Y84571D01*
X105026Y84571D01*
X104899Y84534D01*
X104889Y84533D01*
X104887Y84531D01*
X104876Y84529D01*
X104872Y84526D01*
X104865Y84524D01*
X104340Y84307D01*
X104119Y84263D01*
X104119Y88666D01*
X104116Y88685D01*
X104118Y88705D01*
X104096Y88807D01*
X104080Y88909D01*
X104070Y88926D01*
X104066Y88946D01*
X104013Y89035D01*
X103964Y89126D01*
X103950Y89140D01*
X103940Y89157D01*
X103861Y89224D01*
X103786Y89295D01*
X103768Y89304D01*
X103753Y89317D01*
X103657Y89355D01*
X103563Y89399D01*
X103543Y89401D01*
X103525Y89409D01*
X103358Y89427D01*
X103143Y89427D01*
X103143Y89642D01*
X103140Y89662D01*
X103142Y89681D01*
X103120Y89783D01*
X103103Y89885D01*
X103094Y89902D01*
X103090Y89922D01*
X103037Y90011D01*
X102988Y90102D01*
X102974Y90116D01*
X102964Y90133D01*
X102885Y90200D01*
X102810Y90272D01*
X102792Y90280D01*
X102777Y90293D01*
X102680Y90332D01*
X102587Y90375D01*
X102567Y90377D01*
X102549Y90385D01*
X102382Y90403D01*
X97979Y90403D01*
X98023Y90624D01*
X98240Y91149D01*
X98250Y91190D01*
X98263Y91219D01*
X98263Y91221D01*
X98270Y91235D01*
X98279Y91312D01*
X98296Y91388D01*
X98292Y91434D01*
X98297Y91479D01*
X98281Y91556D01*
X98273Y91633D01*
X98255Y91675D01*
X98245Y91720D01*
X98205Y91787D01*
X98173Y91858D01*
X98142Y91892D01*
X98119Y91931D01*
X98060Y91982D01*
X98007Y92039D01*
X97967Y92061D01*
X97932Y92091D01*
X97860Y92120D01*
X97791Y92157D01*
X97746Y92166D01*
X97704Y92183D01*
X97568Y92198D01*
X97549Y92201D01*
X97544Y92200D01*
X97537Y92201D01*
X95503Y92201D01*
X95458Y92194D01*
X95412Y92196D01*
X95337Y92174D01*
X95260Y92162D01*
X95220Y92140D01*
X95176Y92127D01*
X95112Y92083D01*
X95043Y92046D01*
X95011Y92013D01*
X94974Y91987D01*
X94927Y91924D01*
X94874Y91868D01*
X94854Y91826D01*
X94827Y91790D01*
X94803Y91716D01*
X94770Y91645D01*
X94765Y91599D01*
X94751Y91556D01*
X94751Y91478D01*
X94743Y91401D01*
X94753Y91356D01*
X94753Y91310D01*
X94791Y91179D01*
X94795Y91160D01*
X94798Y91156D01*
X94800Y91149D01*
X95017Y90624D01*
X95061Y90403D01*
X90658Y90403D01*
X90639Y90400D01*
X90619Y90402D01*
X90517Y90380D01*
X90415Y90364D01*
X90398Y90354D01*
X90378Y90350D01*
X90289Y90297D01*
X90198Y90248D01*
X90184Y90234D01*
X90167Y90224D01*
X90100Y90145D01*
X90029Y90070D01*
X90020Y90052D01*
X90007Y90037D01*
X89969Y89941D01*
X89925Y89847D01*
X89923Y89827D01*
X89915Y89809D01*
X89897Y89642D01*
X89897Y89427D01*
X89682Y89427D01*
X89662Y89424D01*
X89642Y89426D01*
X89541Y89404D01*
X89439Y89387D01*
X89422Y89378D01*
X89402Y89374D01*
X89313Y89321D01*
X89222Y89272D01*
X89208Y89258D01*
X89191Y89248D01*
X89124Y89169D01*
X89052Y89094D01*
X89044Y89076D01*
X89031Y89061D01*
X88992Y88964D01*
X88949Y88871D01*
X88947Y88851D01*
X88939Y88833D01*
X88921Y88666D01*
X88921Y84263D01*
X88700Y84307D01*
X87713Y84716D01*
X87710Y84716D01*
X87690Y84725D01*
X87581Y84776D01*
X87578Y84776D01*
X87575Y84778D01*
X87457Y84790D01*
X87337Y84803D01*
X87334Y84802D01*
X87331Y84803D01*
X87214Y84777D01*
X87096Y84751D01*
X87094Y84749D01*
X87091Y84749D01*
X86987Y84686D01*
X86885Y84625D01*
X86883Y84622D01*
X86880Y84621D01*
X86803Y84529D01*
X86725Y84438D01*
X86724Y84435D01*
X86722Y84433D01*
X86678Y84322D01*
X86633Y84210D01*
X86633Y84206D01*
X86632Y84204D01*
X86631Y84193D01*
X86615Y84043D01*
X86615Y81565D01*
X86634Y81446D01*
X86653Y81328D01*
X86654Y81325D01*
X86655Y81322D01*
X86710Y81218D01*
X86766Y81110D01*
X86768Y81108D01*
X86770Y81105D01*
X86855Y81023D01*
X86943Y80939D01*
X86946Y80938D01*
X86948Y80936D01*
X87058Y80885D01*
X87165Y80834D01*
X87168Y80833D01*
X87171Y80832D01*
X87291Y80819D01*
X87409Y80805D01*
X87412Y80805D01*
X87415Y80805D01*
X87534Y80831D01*
X87650Y80855D01*
X87653Y80857D01*
X87656Y80857D01*
X87665Y80863D01*
X87759Y80911D01*
X88700Y81301D01*
X88921Y81345D01*
X88921Y76942D01*
X88923Y76930D01*
X88922Y76920D01*
X88923Y76914D01*
X88922Y76903D01*
X88944Y76801D01*
X88960Y76699D01*
X88970Y76682D01*
X88974Y76662D01*
X89027Y76573D01*
X89076Y76482D01*
X89090Y76468D01*
X89100Y76451D01*
X89179Y76384D01*
X89254Y76313D01*
X89272Y76304D01*
X89287Y76291D01*
X89383Y76253D01*
X89477Y76209D01*
X89497Y76207D01*
X89515Y76199D01*
X89682Y76181D01*
X89897Y76181D01*
X89897Y75966D01*
X89900Y75946D01*
X89898Y75926D01*
X89920Y75825D01*
X89937Y75723D01*
X89946Y75706D01*
X89950Y75686D01*
X90003Y75597D01*
X90052Y75506D01*
X90066Y75492D01*
X90076Y75475D01*
X90155Y75408D01*
X90230Y75336D01*
X90248Y75328D01*
X90263Y75315D01*
X90360Y75276D01*
X90453Y75233D01*
X90473Y75231D01*
X90491Y75223D01*
X90658Y75205D01*
X95061Y75205D01*
X95017Y74984D01*
X95010Y74967D01*
X95000Y74923D01*
X94980Y74881D01*
X94972Y74804D01*
X94954Y74728D01*
X94958Y74682D01*
X94953Y74637D01*
X94970Y74561D01*
X94977Y74483D01*
X94996Y74441D01*
X95006Y74396D01*
X95046Y74329D01*
X95077Y74258D01*
X95108Y74225D01*
X95132Y74185D01*
X95191Y74134D01*
X95244Y74077D01*
X95284Y74055D01*
X95319Y74025D01*
X95391Y73996D01*
X95459Y73959D01*
X95504Y73950D01*
X95547Y73933D01*
X95682Y73918D01*
X95701Y73915D01*
X95706Y73916D01*
X95714Y73915D01*
X97326Y73915D01*
X97372Y73922D01*
G37*
G36*
X148382Y73414D02*
X148382Y73414D01*
X148428Y73412D01*
X148503Y73434D01*
X148580Y73447D01*
X148620Y73468D01*
X148664Y73481D01*
X148728Y73525D01*
X148797Y73562D01*
X148829Y73595D01*
X148866Y73621D01*
X148913Y73684D01*
X148966Y73740D01*
X148986Y73782D01*
X149013Y73818D01*
X149037Y73892D01*
X149070Y73963D01*
X149075Y74009D01*
X149089Y74052D01*
X149089Y74130D01*
X149097Y74207D01*
X149087Y74252D01*
X149087Y74298D01*
X149049Y74429D01*
X149045Y74448D01*
X149042Y74452D01*
X149040Y74459D01*
X148823Y74984D01*
X148779Y75205D01*
X153182Y75205D01*
X153201Y75208D01*
X153221Y75206D01*
X153323Y75228D01*
X153425Y75244D01*
X153442Y75254D01*
X153462Y75258D01*
X153551Y75311D01*
X153642Y75360D01*
X153656Y75374D01*
X153673Y75384D01*
X153740Y75463D01*
X153811Y75538D01*
X153820Y75556D01*
X153833Y75571D01*
X153871Y75667D01*
X153915Y75761D01*
X153917Y75781D01*
X153925Y75799D01*
X153943Y75966D01*
X153943Y76181D01*
X154158Y76181D01*
X154178Y76184D01*
X154197Y76182D01*
X154299Y76204D01*
X154401Y76221D01*
X154418Y76230D01*
X154438Y76234D01*
X154527Y76287D01*
X154618Y76336D01*
X154632Y76350D01*
X154649Y76360D01*
X154716Y76439D01*
X154788Y76514D01*
X154796Y76532D01*
X154809Y76547D01*
X154848Y76644D01*
X154891Y76737D01*
X154893Y76757D01*
X154901Y76775D01*
X154919Y76942D01*
X154919Y81345D01*
X155140Y81301D01*
X155665Y81084D01*
X155709Y81073D01*
X155751Y81054D01*
X155828Y81045D01*
X155904Y81028D01*
X155950Y81032D01*
X155995Y81027D01*
X156072Y81043D01*
X156149Y81051D01*
X156191Y81069D01*
X156236Y81079D01*
X156303Y81119D01*
X156374Y81151D01*
X156408Y81182D01*
X156447Y81205D01*
X156498Y81264D01*
X156555Y81317D01*
X156577Y81357D01*
X156607Y81392D01*
X156636Y81464D01*
X156673Y81533D01*
X156682Y81578D01*
X156699Y81620D01*
X156714Y81756D01*
X156717Y81775D01*
X156716Y81780D01*
X156717Y81787D01*
X156717Y83821D01*
X156710Y83866D01*
X156712Y83912D01*
X156690Y83987D01*
X156678Y84064D01*
X156656Y84104D01*
X156643Y84148D01*
X156599Y84212D01*
X156562Y84281D01*
X156529Y84313D01*
X156503Y84350D01*
X156440Y84397D01*
X156384Y84450D01*
X156342Y84470D01*
X156306Y84497D01*
X156232Y84521D01*
X156161Y84554D01*
X156115Y84559D01*
X156072Y84573D01*
X155994Y84573D01*
X155917Y84581D01*
X155872Y84571D01*
X155826Y84571D01*
X155695Y84533D01*
X155676Y84529D01*
X155672Y84526D01*
X155665Y84524D01*
X155140Y84307D01*
X154919Y84263D01*
X154919Y88666D01*
X154916Y88685D01*
X154918Y88705D01*
X154896Y88807D01*
X154880Y88909D01*
X154870Y88926D01*
X154866Y88946D01*
X154813Y89035D01*
X154764Y89126D01*
X154750Y89140D01*
X154740Y89157D01*
X154661Y89224D01*
X154586Y89295D01*
X154568Y89304D01*
X154553Y89317D01*
X154457Y89355D01*
X154363Y89399D01*
X154343Y89401D01*
X154325Y89409D01*
X154158Y89427D01*
X153943Y89427D01*
X153943Y89642D01*
X153940Y89662D01*
X153942Y89681D01*
X153920Y89783D01*
X153903Y89885D01*
X153894Y89902D01*
X153890Y89922D01*
X153837Y90011D01*
X153788Y90102D01*
X153774Y90116D01*
X153764Y90133D01*
X153685Y90200D01*
X153610Y90272D01*
X153592Y90280D01*
X153577Y90293D01*
X153480Y90332D01*
X153387Y90375D01*
X153367Y90377D01*
X153349Y90385D01*
X153182Y90403D01*
X148779Y90403D01*
X148823Y90624D01*
X149040Y91149D01*
X149051Y91193D01*
X149070Y91235D01*
X149079Y91312D01*
X149096Y91388D01*
X149092Y91434D01*
X149097Y91479D01*
X149081Y91556D01*
X149073Y91633D01*
X149055Y91675D01*
X149045Y91720D01*
X149005Y91787D01*
X148973Y91858D01*
X148942Y91892D01*
X148919Y91931D01*
X148860Y91982D01*
X148807Y92039D01*
X148767Y92061D01*
X148732Y92091D01*
X148660Y92120D01*
X148591Y92157D01*
X148546Y92166D01*
X148504Y92183D01*
X148368Y92198D01*
X148349Y92201D01*
X148344Y92200D01*
X148337Y92201D01*
X146303Y92201D01*
X146258Y92194D01*
X146212Y92196D01*
X146137Y92174D01*
X146060Y92162D01*
X146020Y92140D01*
X145976Y92127D01*
X145912Y92083D01*
X145843Y92046D01*
X145811Y92013D01*
X145774Y91987D01*
X145727Y91924D01*
X145674Y91868D01*
X145654Y91826D01*
X145627Y91790D01*
X145603Y91716D01*
X145570Y91645D01*
X145565Y91599D01*
X145551Y91556D01*
X145551Y91478D01*
X145543Y91401D01*
X145553Y91356D01*
X145553Y91310D01*
X145591Y91179D01*
X145595Y91160D01*
X145598Y91156D01*
X145600Y91149D01*
X145817Y90624D01*
X145861Y90403D01*
X141458Y90403D01*
X141439Y90400D01*
X141419Y90402D01*
X141317Y90380D01*
X141215Y90364D01*
X141198Y90354D01*
X141178Y90350D01*
X141089Y90297D01*
X140998Y90248D01*
X140984Y90234D01*
X140967Y90224D01*
X140900Y90145D01*
X140829Y90070D01*
X140820Y90052D01*
X140807Y90037D01*
X140769Y89941D01*
X140725Y89847D01*
X140723Y89827D01*
X140715Y89809D01*
X140697Y89642D01*
X140697Y89427D01*
X140482Y89427D01*
X140462Y89424D01*
X140442Y89426D01*
X140341Y89404D01*
X140239Y89387D01*
X140222Y89378D01*
X140202Y89374D01*
X140113Y89321D01*
X140022Y89272D01*
X140008Y89258D01*
X139991Y89248D01*
X139924Y89169D01*
X139852Y89094D01*
X139844Y89076D01*
X139831Y89061D01*
X139792Y88964D01*
X139749Y88871D01*
X139747Y88851D01*
X139739Y88833D01*
X139721Y88666D01*
X139721Y84263D01*
X139500Y84307D01*
X138975Y84524D01*
X138931Y84535D01*
X138889Y84554D01*
X138812Y84563D01*
X138736Y84580D01*
X138690Y84576D01*
X138645Y84581D01*
X138568Y84565D01*
X138491Y84557D01*
X138449Y84539D01*
X138404Y84529D01*
X138337Y84489D01*
X138266Y84457D01*
X138232Y84426D01*
X138193Y84403D01*
X138142Y84343D01*
X138085Y84291D01*
X138063Y84251D01*
X138033Y84216D01*
X138004Y84143D01*
X137967Y84075D01*
X137958Y84030D01*
X137941Y83988D01*
X137926Y83852D01*
X137923Y83833D01*
X137924Y83828D01*
X137923Y83821D01*
X137923Y81787D01*
X137930Y81742D01*
X137928Y81696D01*
X137950Y81621D01*
X137963Y81544D01*
X137984Y81504D01*
X137997Y81460D01*
X138041Y81396D01*
X138078Y81327D01*
X138111Y81295D01*
X138137Y81258D01*
X138200Y81211D01*
X138256Y81158D01*
X138298Y81138D01*
X138334Y81111D01*
X138408Y81087D01*
X138479Y81054D01*
X138525Y81049D01*
X138568Y81035D01*
X138646Y81035D01*
X138723Y81027D01*
X138768Y81037D01*
X138814Y81037D01*
X138945Y81075D01*
X138964Y81079D01*
X138968Y81082D01*
X138975Y81084D01*
X139500Y81301D01*
X139721Y81345D01*
X139721Y76942D01*
X139724Y76923D01*
X139722Y76903D01*
X139744Y76801D01*
X139760Y76699D01*
X139770Y76682D01*
X139774Y76662D01*
X139827Y76573D01*
X139876Y76482D01*
X139890Y76468D01*
X139900Y76451D01*
X139979Y76384D01*
X140054Y76313D01*
X140072Y76304D01*
X140087Y76291D01*
X140183Y76253D01*
X140277Y76209D01*
X140297Y76207D01*
X140315Y76199D01*
X140482Y76181D01*
X140697Y76181D01*
X140697Y75966D01*
X140700Y75946D01*
X140698Y75926D01*
X140720Y75825D01*
X140737Y75723D01*
X140746Y75706D01*
X140750Y75686D01*
X140803Y75597D01*
X140852Y75506D01*
X140866Y75492D01*
X140876Y75475D01*
X140955Y75408D01*
X141030Y75336D01*
X141048Y75328D01*
X141063Y75315D01*
X141160Y75276D01*
X141253Y75233D01*
X141273Y75231D01*
X141291Y75223D01*
X141458Y75205D01*
X145861Y75205D01*
X145817Y74984D01*
X145600Y74459D01*
X145589Y74415D01*
X145570Y74373D01*
X145561Y74296D01*
X145544Y74220D01*
X145548Y74174D01*
X145543Y74129D01*
X145559Y74052D01*
X145567Y73975D01*
X145585Y73933D01*
X145595Y73888D01*
X145635Y73821D01*
X145667Y73750D01*
X145698Y73716D01*
X145721Y73677D01*
X145781Y73626D01*
X145833Y73569D01*
X145873Y73547D01*
X145908Y73517D01*
X145981Y73488D01*
X146049Y73451D01*
X146094Y73442D01*
X146136Y73425D01*
X146272Y73410D01*
X146291Y73407D01*
X146296Y73408D01*
X146303Y73407D01*
X148337Y73407D01*
X148382Y73414D01*
G37*
G36*
X329120Y135906D02*
X329120Y135906D01*
X329239Y135913D01*
X329277Y135926D01*
X329318Y135931D01*
X329428Y135974D01*
X329541Y136011D01*
X329576Y136033D01*
X329613Y136048D01*
X329709Y136118D01*
X329810Y136181D01*
X329838Y136211D01*
X329871Y136234D01*
X329947Y136326D01*
X330028Y136413D01*
X330048Y136448D01*
X330073Y136479D01*
X330124Y136587D01*
X330182Y136691D01*
X330192Y136731D01*
X330209Y136767D01*
X330231Y136884D01*
X330261Y136999D01*
X330265Y137060D01*
X330269Y137080D01*
X330267Y137100D01*
X330271Y137160D01*
X330271Y142531D01*
X339380Y142531D01*
X339498Y142546D01*
X339617Y142553D01*
X339655Y142565D01*
X339695Y142571D01*
X339806Y142614D01*
X339919Y142651D01*
X339953Y142673D01*
X339991Y142688D01*
X340087Y142757D01*
X340188Y142821D01*
X340216Y142851D01*
X340248Y142874D01*
X340324Y142966D01*
X340406Y143053D01*
X340425Y143088D01*
X340451Y143119D01*
X340502Y143227D01*
X340559Y143331D01*
X340569Y143371D01*
X340587Y143407D01*
X340609Y143524D01*
X340639Y143639D01*
X340643Y143699D01*
X340646Y143719D01*
X340645Y143740D01*
X340649Y143800D01*
X340649Y145760D01*
X340634Y145878D01*
X340627Y145997D01*
X340614Y146035D01*
X340609Y146076D01*
X340565Y146186D01*
X340529Y146299D01*
X340507Y146334D01*
X340492Y146371D01*
X340422Y146467D01*
X340359Y146568D01*
X340329Y146596D01*
X340305Y146629D01*
X340214Y146705D01*
X340127Y146786D01*
X340092Y146806D01*
X340060Y146831D01*
X339953Y146882D01*
X339848Y146940D01*
X339809Y146950D01*
X339773Y146967D01*
X339656Y146989D01*
X339540Y147019D01*
X339480Y147023D01*
X339460Y147027D01*
X339440Y147025D01*
X339380Y147029D01*
X330271Y147029D01*
X330271Y152400D01*
X330256Y152518D01*
X330249Y152637D01*
X330236Y152675D01*
X330231Y152716D01*
X330188Y152826D01*
X330151Y152939D01*
X330129Y152974D01*
X330114Y153011D01*
X330045Y153107D01*
X329981Y153208D01*
X329951Y153236D01*
X329928Y153269D01*
X329836Y153345D01*
X329749Y153426D01*
X329714Y153446D01*
X329683Y153471D01*
X329575Y153522D01*
X329471Y153580D01*
X329431Y153590D01*
X329395Y153607D01*
X329278Y153629D01*
X329163Y153659D01*
X329103Y153663D01*
X329083Y153667D01*
X329062Y153665D01*
X329002Y153669D01*
X322580Y153669D01*
X322462Y153654D01*
X322343Y153647D01*
X322305Y153634D01*
X322264Y153629D01*
X322154Y153586D01*
X322041Y153549D01*
X322006Y153527D01*
X321969Y153512D01*
X321873Y153443D01*
X321772Y153379D01*
X321744Y153349D01*
X321711Y153326D01*
X321636Y153234D01*
X321554Y153147D01*
X321534Y153112D01*
X321509Y153081D01*
X321458Y152973D01*
X321400Y152869D01*
X321390Y152829D01*
X321373Y152793D01*
X321351Y152676D01*
X321321Y152561D01*
X321317Y152501D01*
X321313Y152481D01*
X321314Y152474D01*
X321313Y152472D01*
X321314Y152456D01*
X321311Y152400D01*
X321311Y137160D01*
X321326Y137042D01*
X321333Y136923D01*
X321346Y136885D01*
X321351Y136844D01*
X321394Y136734D01*
X321431Y136621D01*
X321453Y136586D01*
X321468Y136549D01*
X321538Y136453D01*
X321601Y136352D01*
X321631Y136324D01*
X321654Y136291D01*
X321746Y136216D01*
X321833Y136134D01*
X321868Y136114D01*
X321899Y136089D01*
X322007Y136038D01*
X322111Y135980D01*
X322151Y135970D01*
X322187Y135953D01*
X322304Y135931D01*
X322419Y135901D01*
X322480Y135897D01*
X322500Y135893D01*
X322520Y135895D01*
X322580Y135891D01*
X329002Y135891D01*
X329120Y135906D01*
G37*
G36*
X36299Y79515D02*
X36299Y79515D01*
X36398Y79518D01*
X36457Y79535D01*
X36517Y79543D01*
X36609Y79579D01*
X36704Y79607D01*
X36756Y79637D01*
X36812Y79660D01*
X36892Y79718D01*
X36978Y79768D01*
X37053Y79834D01*
X37070Y79846D01*
X37078Y79856D01*
X37099Y79875D01*
X37703Y80479D01*
X41037Y80479D01*
X41641Y79875D01*
X41720Y79814D01*
X41792Y79746D01*
X41845Y79717D01*
X41893Y79680D01*
X41984Y79640D01*
X42070Y79592D01*
X42129Y79577D01*
X42184Y79553D01*
X42282Y79538D01*
X42378Y79513D01*
X42478Y79507D01*
X42499Y79503D01*
X42511Y79505D01*
X42539Y79503D01*
X43180Y79503D01*
X43298Y79518D01*
X43417Y79525D01*
X43455Y79538D01*
X43496Y79543D01*
X43606Y79586D01*
X43719Y79623D01*
X43754Y79645D01*
X43791Y79660D01*
X43887Y79730D01*
X43988Y79793D01*
X44016Y79823D01*
X44049Y79846D01*
X44125Y79938D01*
X44206Y80025D01*
X44226Y80060D01*
X44251Y80091D01*
X44302Y80199D01*
X44360Y80303D01*
X44370Y80343D01*
X44387Y80379D01*
X44409Y80496D01*
X44439Y80611D01*
X44443Y80672D01*
X44447Y80692D01*
X44445Y80712D01*
X44449Y80772D01*
X44449Y84111D01*
X44447Y84125D01*
X44449Y84140D01*
X44428Y84283D01*
X44409Y84426D01*
X44404Y84440D01*
X44402Y84455D01*
X44346Y84588D01*
X44292Y84722D01*
X44284Y84734D01*
X44278Y84748D01*
X44190Y84862D01*
X44106Y84979D01*
X44094Y84989D01*
X44085Y85001D01*
X43972Y85090D01*
X43861Y85182D01*
X43847Y85188D01*
X43836Y85198D01*
X43703Y85256D01*
X43573Y85318D01*
X43558Y85320D01*
X43545Y85326D01*
X43402Y85350D01*
X43261Y85377D01*
X43246Y85377D01*
X43231Y85379D01*
X43087Y85367D01*
X42943Y85358D01*
X42929Y85353D01*
X42914Y85352D01*
X42778Y85304D01*
X42641Y85260D01*
X42628Y85252D01*
X42614Y85247D01*
X42475Y85166D01*
X41758Y84687D01*
X40840Y84307D01*
X40639Y84267D01*
X40639Y89154D01*
X40624Y89272D01*
X40617Y89391D01*
X40605Y89429D01*
X40600Y89469D01*
X40556Y89580D01*
X40519Y89693D01*
X40497Y89727D01*
X40483Y89765D01*
X40413Y89861D01*
X40349Y89962D01*
X40348Y89962D01*
X40319Y89990D01*
X40296Y90022D01*
X40295Y90023D01*
X40203Y90099D01*
X40117Y90180D01*
X40081Y90200D01*
X40050Y90226D01*
X39943Y90276D01*
X39838Y90334D01*
X39799Y90344D01*
X39763Y90361D01*
X39646Y90383D01*
X39530Y90413D01*
X39470Y90417D01*
X39450Y90421D01*
X39430Y90420D01*
X39370Y90423D01*
X34483Y90423D01*
X34523Y90624D01*
X34903Y91542D01*
X35043Y91751D01*
X35049Y91764D01*
X35059Y91775D01*
X35120Y91906D01*
X35185Y92035D01*
X35188Y92050D01*
X35194Y92063D01*
X35221Y92204D01*
X35252Y92346D01*
X35251Y92361D01*
X35254Y92376D01*
X35245Y92519D01*
X35239Y92664D01*
X35235Y92678D01*
X35234Y92693D01*
X35190Y92830D01*
X35148Y92969D01*
X35141Y92981D01*
X35136Y92995D01*
X35059Y93118D01*
X34985Y93241D01*
X34974Y93252D01*
X34966Y93264D01*
X34861Y93363D01*
X34758Y93465D01*
X34745Y93472D01*
X34734Y93482D01*
X34608Y93552D01*
X34483Y93624D01*
X34469Y93628D01*
X34456Y93636D01*
X34317Y93672D01*
X34177Y93711D01*
X34162Y93711D01*
X34148Y93715D01*
X33987Y93725D01*
X32053Y93725D01*
X32038Y93723D01*
X32023Y93725D01*
X31880Y93703D01*
X31737Y93685D01*
X31723Y93680D01*
X31709Y93678D01*
X31575Y93621D01*
X31441Y93568D01*
X31429Y93560D01*
X31416Y93554D01*
X31301Y93466D01*
X31184Y93382D01*
X31175Y93370D01*
X31163Y93361D01*
X31074Y93248D01*
X30981Y93137D01*
X30975Y93123D01*
X30966Y93112D01*
X30907Y92980D01*
X30846Y92849D01*
X30843Y92834D01*
X30837Y92821D01*
X30813Y92678D01*
X30786Y92537D01*
X30787Y92522D01*
X30784Y92507D01*
X30797Y92363D01*
X30806Y92219D01*
X30810Y92205D01*
X30811Y92190D01*
X30859Y92054D01*
X30904Y91917D01*
X30912Y91904D01*
X30917Y91890D01*
X30997Y91751D01*
X31137Y91542D01*
X31517Y90624D01*
X31557Y90423D01*
X26670Y90423D01*
X26552Y90408D01*
X26433Y90401D01*
X26395Y90389D01*
X26355Y90384D01*
X26244Y90340D01*
X26131Y90303D01*
X26097Y90281D01*
X26059Y90267D01*
X25963Y90197D01*
X25862Y90133D01*
X25862Y90132D01*
X25834Y90103D01*
X25802Y90080D01*
X25802Y90079D01*
X25801Y90079D01*
X25725Y89987D01*
X25644Y89901D01*
X25624Y89865D01*
X25598Y89834D01*
X25548Y89727D01*
X25490Y89622D01*
X25480Y89583D01*
X25463Y89547D01*
X25441Y89430D01*
X25411Y89314D01*
X25407Y89254D01*
X25403Y89234D01*
X25404Y89214D01*
X25401Y89154D01*
X25401Y84267D01*
X25200Y84307D01*
X24362Y84654D01*
X24314Y84667D01*
X24269Y84688D01*
X24161Y84709D01*
X24055Y84738D01*
X24005Y84739D01*
X23957Y84748D01*
X23847Y84741D01*
X23737Y84743D01*
X23689Y84731D01*
X23639Y84728D01*
X23535Y84695D01*
X23428Y84669D01*
X23384Y84646D01*
X23337Y84630D01*
X23244Y84572D01*
X23147Y84520D01*
X23110Y84487D01*
X23068Y84460D01*
X22993Y84380D01*
X22911Y84306D01*
X22884Y84265D01*
X22850Y84229D01*
X22797Y84132D01*
X22737Y84041D01*
X22720Y83994D01*
X22696Y83950D01*
X22669Y83844D01*
X22633Y83740D01*
X22629Y83690D01*
X22617Y83642D01*
X22607Y83481D01*
X22607Y81147D01*
X22624Y81009D01*
X22637Y80870D01*
X22644Y80851D01*
X22647Y80831D01*
X22698Y80702D01*
X22745Y80571D01*
X22756Y80554D01*
X22764Y80536D01*
X22845Y80423D01*
X22923Y80308D01*
X22939Y80295D01*
X22950Y80278D01*
X23058Y80189D01*
X23162Y80098D01*
X23180Y80088D01*
X23195Y80075D01*
X23321Y80016D01*
X23445Y79953D01*
X23465Y79948D01*
X23483Y79940D01*
X23619Y79914D01*
X23755Y79883D01*
X23776Y79884D01*
X23796Y79880D01*
X23934Y79889D01*
X24073Y79893D01*
X24093Y79899D01*
X24113Y79900D01*
X24245Y79943D01*
X24379Y79981D01*
X24396Y79992D01*
X24415Y79998D01*
X24533Y80072D01*
X24653Y80143D01*
X24674Y80162D01*
X24684Y80168D01*
X24698Y80183D01*
X24774Y80249D01*
X25003Y80479D01*
X28337Y80479D01*
X28941Y79875D01*
X29020Y79814D01*
X29092Y79746D01*
X29145Y79717D01*
X29193Y79680D01*
X29284Y79640D01*
X29370Y79592D01*
X29429Y79577D01*
X29484Y79553D01*
X29582Y79538D01*
X29678Y79513D01*
X29778Y79507D01*
X29799Y79503D01*
X29811Y79505D01*
X29839Y79503D01*
X36201Y79503D01*
X36299Y79515D01*
G37*
%LPC*%
G36*
X456719Y51799D02*
X456719Y51799D01*
X456719Y53134D01*
X456912Y53853D01*
X456923Y53967D01*
X456937Y54081D01*
X456936Y54091D01*
X456936Y54098D01*
X456931Y54119D01*
X456912Y54247D01*
X456719Y54966D01*
X456719Y56301D01*
X465011Y56301D01*
X465011Y51799D01*
X456719Y51799D01*
G37*
%LPD*%
%LPC*%
G36*
X456719Y45299D02*
X456719Y45299D01*
X456719Y46634D01*
X456912Y47353D01*
X456923Y47467D01*
X456937Y47581D01*
X456936Y47591D01*
X456936Y47598D01*
X456931Y47619D01*
X456912Y47747D01*
X456719Y48466D01*
X456719Y49801D01*
X465011Y49801D01*
X465011Y45299D01*
X456719Y45299D01*
G37*
%LPD*%
%LPC*%
G36*
X50600Y97007D02*
X50600Y97007D01*
X49682Y97387D01*
X48937Y97885D01*
X48828Y97935D01*
X48719Y97985D01*
X48716Y97986D01*
X48713Y97987D01*
X48659Y97992D01*
X48648Y98019D01*
X48637Y98070D01*
X48600Y98131D01*
X48572Y98197D01*
X48527Y98253D01*
X48511Y98281D01*
X48493Y98296D01*
X48467Y98328D01*
X48155Y98641D01*
X47603Y99466D01*
X47223Y100384D01*
X47179Y100605D01*
X50821Y100605D01*
X50821Y96963D01*
X50600Y97007D01*
G37*
%LPD*%
%LPC*%
G36*
X129519Y100605D02*
X129519Y100605D01*
X133161Y100605D01*
X133117Y100384D01*
X132737Y99466D01*
X132185Y98641D01*
X131619Y98074D01*
X131577Y98016D01*
X131528Y97964D01*
X131506Y97917D01*
X131475Y97875D01*
X131461Y97827D01*
X131416Y97817D01*
X131298Y97793D01*
X131295Y97791D01*
X131292Y97790D01*
X131283Y97785D01*
X131149Y97715D01*
X130658Y97387D01*
X129740Y97007D01*
X129519Y96963D01*
X129519Y100605D01*
G37*
%LPD*%
%LPC*%
G36*
X114100Y97007D02*
X114100Y97007D01*
X113182Y97387D01*
X112357Y97939D01*
X112298Y97997D01*
X112270Y98017D01*
X112265Y98027D01*
X112247Y98042D01*
X112221Y98074D01*
X111655Y98641D01*
X111103Y99466D01*
X110723Y100384D01*
X110679Y100605D01*
X114321Y100605D01*
X114321Y96963D01*
X114100Y97007D01*
G37*
%LPD*%
%LPC*%
G36*
X142219Y115803D02*
X142219Y115803D01*
X142219Y119445D01*
X142440Y119401D01*
X143358Y119021D01*
X144183Y118469D01*
X144885Y117767D01*
X145437Y116942D01*
X145490Y116813D01*
X145817Y116024D01*
X145861Y115803D01*
X142219Y115803D01*
G37*
%LPD*%
%LPC*%
G36*
X91419Y115803D02*
X91419Y115803D01*
X91419Y119445D01*
X91640Y119401D01*
X92558Y119021D01*
X93383Y118469D01*
X94085Y117767D01*
X94637Y116942D01*
X94690Y116813D01*
X95017Y116024D01*
X95061Y115803D01*
X91419Y115803D01*
G37*
%LPD*%
%LPC*%
G36*
X129519Y115803D02*
X129519Y115803D01*
X129519Y119445D01*
X129740Y119401D01*
X130658Y119021D01*
X131483Y118469D01*
X132185Y117767D01*
X132737Y116942D01*
X132790Y116813D01*
X133117Y116024D01*
X133161Y115803D01*
X129519Y115803D01*
G37*
%LPD*%
%LPC*%
G36*
X104119Y115803D02*
X104119Y115803D01*
X104119Y119445D01*
X104340Y119401D01*
X105258Y119021D01*
X106083Y118469D01*
X106785Y117767D01*
X107337Y116942D01*
X107390Y116813D01*
X107717Y116024D01*
X107761Y115803D01*
X104119Y115803D01*
G37*
%LPD*%
%LPC*%
G36*
X116819Y115803D02*
X116819Y115803D01*
X116819Y119445D01*
X117040Y119401D01*
X117958Y119021D01*
X118783Y118469D01*
X119485Y117767D01*
X120037Y116942D01*
X120417Y116024D01*
X120461Y115803D01*
X116819Y115803D01*
G37*
%LPD*%
%LPC*%
G36*
X53319Y103103D02*
X53319Y103103D01*
X53319Y106745D01*
X53540Y106701D01*
X54458Y106321D01*
X55283Y105769D01*
X55985Y105067D01*
X56537Y104242D01*
X56917Y103324D01*
X56961Y103103D01*
X53319Y103103D01*
G37*
%LPD*%
%LPC*%
G36*
X218419Y103103D02*
X218419Y103103D01*
X218419Y106745D01*
X218640Y106701D01*
X219558Y106321D01*
X220383Y105769D01*
X221085Y105067D01*
X221637Y104242D01*
X222017Y103324D01*
X222061Y103103D01*
X218419Y103103D01*
G37*
%LPD*%
%LPC*%
G36*
X193019Y103103D02*
X193019Y103103D01*
X193019Y106745D01*
X193240Y106701D01*
X194158Y106321D01*
X194983Y105769D01*
X195685Y105067D01*
X196237Y104242D01*
X196617Y103324D01*
X196661Y103103D01*
X193019Y103103D01*
G37*
%LPD*%
%LPC*%
G36*
X129519Y153903D02*
X129519Y153903D01*
X129519Y157545D01*
X129740Y157501D01*
X130658Y157121D01*
X131483Y156569D01*
X132185Y155867D01*
X132737Y155042D01*
X133117Y154124D01*
X133161Y153903D01*
X129519Y153903D01*
G37*
%LPD*%
%LPC*%
G36*
X104119Y153903D02*
X104119Y153903D01*
X104119Y157545D01*
X104340Y157501D01*
X105258Y157121D01*
X106083Y156569D01*
X106785Y155867D01*
X107337Y155042D01*
X107717Y154124D01*
X107761Y153903D01*
X104119Y153903D01*
G37*
%LPD*%
%LPC*%
G36*
X116819Y153903D02*
X116819Y153903D01*
X116819Y157545D01*
X117040Y157501D01*
X117958Y157121D01*
X118783Y156569D01*
X119485Y155867D01*
X120037Y155042D01*
X120417Y154124D01*
X120461Y153903D01*
X116819Y153903D01*
G37*
%LPD*%
%LPC*%
G36*
X167619Y153903D02*
X167619Y153903D01*
X167619Y157545D01*
X167840Y157501D01*
X168758Y157121D01*
X169583Y156569D01*
X170285Y155867D01*
X170837Y155042D01*
X171217Y154124D01*
X171261Y153903D01*
X167619Y153903D01*
G37*
%LPD*%
%LPC*%
G36*
X142219Y153903D02*
X142219Y153903D01*
X142219Y157545D01*
X142440Y157501D01*
X143358Y157121D01*
X144183Y156569D01*
X144885Y155867D01*
X145437Y155042D01*
X145817Y154124D01*
X145861Y153903D01*
X142219Y153903D01*
G37*
%LPD*%
%LPC*%
G36*
X205719Y103103D02*
X205719Y103103D01*
X205719Y106745D01*
X205940Y106701D01*
X206858Y106321D01*
X207683Y105769D01*
X208385Y105067D01*
X208937Y104242D01*
X209317Y103324D01*
X209361Y103103D01*
X205719Y103103D01*
G37*
%LPD*%
%LPC*%
G36*
X154919Y153903D02*
X154919Y153903D01*
X154919Y157545D01*
X155140Y157501D01*
X156058Y157121D01*
X156883Y156569D01*
X157585Y155867D01*
X158137Y155042D01*
X158517Y154124D01*
X158561Y153903D01*
X154919Y153903D01*
G37*
%LPD*%
%LPC*%
G36*
X129519Y103103D02*
X129519Y103103D01*
X129519Y106745D01*
X129740Y106701D01*
X130658Y106321D01*
X131483Y105769D01*
X132185Y105067D01*
X132737Y104242D01*
X133117Y103324D01*
X133161Y103103D01*
X129519Y103103D01*
G37*
%LPD*%
%LPC*%
G36*
X91419Y103103D02*
X91419Y103103D01*
X91419Y106745D01*
X91640Y106701D01*
X92558Y106321D01*
X93383Y105769D01*
X94085Y105067D01*
X94637Y104242D01*
X95017Y103324D01*
X95061Y103103D01*
X91419Y103103D01*
G37*
%LPD*%
%LPC*%
G36*
X78719Y153903D02*
X78719Y153903D01*
X78719Y157545D01*
X78940Y157501D01*
X79858Y157121D01*
X80683Y156569D01*
X81385Y155867D01*
X81937Y155042D01*
X82317Y154124D01*
X82361Y153903D01*
X78719Y153903D01*
G37*
%LPD*%
%LPC*%
G36*
X91419Y153903D02*
X91419Y153903D01*
X91419Y157545D01*
X91640Y157501D01*
X92558Y157121D01*
X93383Y156569D01*
X94085Y155867D01*
X94637Y155042D01*
X95017Y154124D01*
X95061Y153903D01*
X91419Y153903D01*
G37*
%LPD*%
%LPC*%
G36*
X104119Y103103D02*
X104119Y103103D01*
X104119Y106745D01*
X104340Y106701D01*
X105258Y106321D01*
X106083Y105769D01*
X106785Y105067D01*
X107337Y104242D01*
X107717Y103324D01*
X107761Y103103D01*
X104119Y103103D01*
G37*
%LPD*%
%LPC*%
G36*
X66019Y115803D02*
X66019Y115803D01*
X66019Y119445D01*
X66240Y119401D01*
X67158Y119021D01*
X67983Y118469D01*
X68685Y117767D01*
X69237Y116942D01*
X69617Y116024D01*
X69661Y115803D01*
X66019Y115803D01*
G37*
%LPD*%
%LPC*%
G36*
X167619Y115803D02*
X167619Y115803D01*
X167619Y119445D01*
X167840Y119401D01*
X168758Y119021D01*
X169583Y118469D01*
X170285Y117767D01*
X170837Y116942D01*
X171217Y116024D01*
X171261Y115803D01*
X167619Y115803D01*
G37*
%LPD*%
%LPC*%
G36*
X142219Y103103D02*
X142219Y103103D01*
X142219Y106745D01*
X142440Y106701D01*
X143358Y106321D01*
X144183Y105769D01*
X144885Y105067D01*
X145437Y104242D01*
X145817Y103324D01*
X145861Y103103D01*
X142219Y103103D01*
G37*
%LPD*%
%LPC*%
G36*
X116819Y103103D02*
X116819Y103103D01*
X116819Y106745D01*
X117040Y106701D01*
X117958Y106321D01*
X118783Y105769D01*
X119485Y105067D01*
X120037Y104242D01*
X120417Y103324D01*
X120461Y103103D01*
X116819Y103103D01*
G37*
%LPD*%
%LPC*%
G36*
X66019Y103103D02*
X66019Y103103D01*
X66019Y106745D01*
X66240Y106701D01*
X67158Y106321D01*
X67983Y105769D01*
X68685Y105067D01*
X69237Y104242D01*
X69617Y103324D01*
X69661Y103103D01*
X66019Y103103D01*
G37*
%LPD*%
%LPC*%
G36*
X167619Y103103D02*
X167619Y103103D01*
X167619Y106745D01*
X167840Y106701D01*
X168758Y106321D01*
X169583Y105769D01*
X170285Y105067D01*
X170837Y104242D01*
X171217Y103324D01*
X171261Y103103D01*
X167619Y103103D01*
G37*
%LPD*%
%LPC*%
G36*
X167619Y90403D02*
X167619Y90403D01*
X167619Y94045D01*
X167840Y94001D01*
X168758Y93621D01*
X169583Y93069D01*
X170285Y92367D01*
X170837Y91542D01*
X171217Y90624D01*
X171261Y90403D01*
X167619Y90403D01*
G37*
%LPD*%
%LPC*%
G36*
X27919Y115803D02*
X27919Y115803D01*
X27919Y119445D01*
X28140Y119401D01*
X29058Y119021D01*
X29883Y118469D01*
X30585Y117767D01*
X31137Y116942D01*
X31517Y116024D01*
X31561Y115803D01*
X27919Y115803D01*
G37*
%LPD*%
%LPC*%
G36*
X167619Y141203D02*
X167619Y141203D01*
X167619Y144845D01*
X167840Y144801D01*
X168758Y144421D01*
X169583Y143869D01*
X170285Y143167D01*
X170837Y142342D01*
X171217Y141424D01*
X171261Y141203D01*
X167619Y141203D01*
G37*
%LPD*%
%LPC*%
G36*
X205719Y115803D02*
X205719Y115803D01*
X205719Y119445D01*
X205940Y119401D01*
X206858Y119021D01*
X207683Y118469D01*
X208385Y117767D01*
X208937Y116942D01*
X209317Y116024D01*
X209361Y115803D01*
X205719Y115803D01*
G37*
%LPD*%
%LPC*%
G36*
X40619Y115803D02*
X40619Y115803D01*
X40619Y119445D01*
X40840Y119401D01*
X41758Y119021D01*
X42583Y118469D01*
X43285Y117767D01*
X43837Y116942D01*
X44217Y116024D01*
X44261Y115803D01*
X40619Y115803D01*
G37*
%LPD*%
%LPC*%
G36*
X53319Y90403D02*
X53319Y90403D01*
X53319Y94045D01*
X53540Y94001D01*
X54458Y93621D01*
X55283Y93069D01*
X55985Y92367D01*
X56537Y91542D01*
X56917Y90624D01*
X56961Y90403D01*
X53319Y90403D01*
G37*
%LPD*%
%LPC*%
G36*
X66019Y90403D02*
X66019Y90403D01*
X66019Y94045D01*
X66240Y94001D01*
X67158Y93621D01*
X67983Y93069D01*
X68685Y92367D01*
X69237Y91542D01*
X69617Y90624D01*
X69661Y90403D01*
X66019Y90403D01*
G37*
%LPD*%
%LPC*%
G36*
X53319Y115803D02*
X53319Y115803D01*
X53319Y119445D01*
X53540Y119401D01*
X54458Y119021D01*
X55283Y118469D01*
X55985Y117767D01*
X56537Y116942D01*
X56917Y116024D01*
X56961Y115803D01*
X53319Y115803D01*
G37*
%LPD*%
%LPC*%
G36*
X218419Y115803D02*
X218419Y115803D01*
X218419Y119445D01*
X218640Y119401D01*
X219558Y119021D01*
X220383Y118469D01*
X221085Y117767D01*
X221637Y116942D01*
X222017Y116024D01*
X222061Y115803D01*
X218419Y115803D01*
G37*
%LPD*%
%LPC*%
G36*
X193019Y115803D02*
X193019Y115803D01*
X193019Y119445D01*
X193240Y119401D01*
X194158Y119021D01*
X194983Y118469D01*
X195685Y117767D01*
X196237Y116942D01*
X196617Y116024D01*
X196661Y115803D01*
X193019Y115803D01*
G37*
%LPD*%
%LPC*%
G36*
X116819Y90403D02*
X116819Y90403D01*
X116819Y94045D01*
X117040Y94001D01*
X117958Y93621D01*
X118783Y93069D01*
X119485Y92367D01*
X120037Y91542D01*
X120417Y90624D01*
X120461Y90403D01*
X116819Y90403D01*
G37*
%LPD*%
%LPC*%
G36*
X180319Y115803D02*
X180319Y115803D01*
X180319Y119445D01*
X180540Y119401D01*
X181458Y119021D01*
X182283Y118469D01*
X182985Y117767D01*
X183537Y116942D01*
X183917Y116024D01*
X183961Y115803D01*
X180319Y115803D01*
G37*
%LPD*%
%LPC*%
G36*
X218419Y128503D02*
X218419Y128503D01*
X218419Y132145D01*
X218640Y132101D01*
X219558Y131721D01*
X220383Y131169D01*
X221085Y130467D01*
X221637Y129642D01*
X222017Y128724D01*
X222061Y128503D01*
X218419Y128503D01*
G37*
%LPD*%
%LPC*%
G36*
X142219Y77703D02*
X142219Y77703D01*
X142219Y81345D01*
X142440Y81301D01*
X143358Y80921D01*
X144183Y80369D01*
X144885Y79667D01*
X145437Y78842D01*
X145817Y77924D01*
X145861Y77703D01*
X142219Y77703D01*
G37*
%LPD*%
%LPC*%
G36*
X104119Y128503D02*
X104119Y128503D01*
X104119Y132145D01*
X104340Y132101D01*
X105258Y131721D01*
X106083Y131169D01*
X106785Y130467D01*
X107337Y129642D01*
X107717Y128724D01*
X107761Y128503D01*
X104119Y128503D01*
G37*
%LPD*%
%LPC*%
G36*
X91419Y77703D02*
X91419Y77703D01*
X91419Y81345D01*
X91640Y81301D01*
X92558Y80921D01*
X93383Y80369D01*
X94085Y79667D01*
X94637Y78842D01*
X95017Y77924D01*
X95061Y77703D01*
X91419Y77703D01*
G37*
%LPD*%
%LPC*%
G36*
X66019Y77703D02*
X66019Y77703D01*
X66019Y81345D01*
X66240Y81301D01*
X67158Y80921D01*
X67983Y80369D01*
X68685Y79667D01*
X69237Y78842D01*
X69617Y77924D01*
X69661Y77703D01*
X66019Y77703D01*
G37*
%LPD*%
%LPC*%
G36*
X205719Y128503D02*
X205719Y128503D01*
X205719Y132145D01*
X205940Y132101D01*
X206858Y131721D01*
X207683Y131169D01*
X208385Y130467D01*
X208937Y129642D01*
X209317Y128724D01*
X209361Y128503D01*
X205719Y128503D01*
G37*
%LPD*%
%LPC*%
G36*
X53319Y77703D02*
X53319Y77703D01*
X53319Y81345D01*
X53540Y81301D01*
X54458Y80921D01*
X55283Y80369D01*
X55985Y79667D01*
X56537Y78842D01*
X56917Y77924D01*
X56961Y77703D01*
X53319Y77703D01*
G37*
%LPD*%
%LPC*%
G36*
X91419Y128503D02*
X91419Y128503D01*
X91419Y132145D01*
X91640Y132101D01*
X92558Y131721D01*
X93383Y131169D01*
X94085Y130467D01*
X94637Y129642D01*
X95017Y128724D01*
X95061Y128503D01*
X91419Y128503D01*
G37*
%LPD*%
%LPC*%
G36*
X167619Y77703D02*
X167619Y77703D01*
X167619Y81345D01*
X167840Y81301D01*
X168758Y80921D01*
X169583Y80369D01*
X170285Y79667D01*
X170837Y78842D01*
X171217Y77924D01*
X171261Y77703D01*
X167619Y77703D01*
G37*
%LPD*%
%LPC*%
G36*
X142219Y128503D02*
X142219Y128503D01*
X142219Y132145D01*
X142440Y132101D01*
X143358Y131721D01*
X144183Y131169D01*
X144885Y130467D01*
X145437Y129642D01*
X145817Y128724D01*
X145861Y128503D01*
X142219Y128503D01*
G37*
%LPD*%
%LPC*%
G36*
X167619Y128503D02*
X167619Y128503D01*
X167619Y132145D01*
X167840Y132101D01*
X168758Y131721D01*
X169583Y131169D01*
X170285Y130467D01*
X170837Y129642D01*
X171217Y128724D01*
X171261Y128503D01*
X167619Y128503D01*
G37*
%LPD*%
%LPC*%
G36*
X78719Y65003D02*
X78719Y65003D01*
X78719Y68645D01*
X78940Y68601D01*
X79858Y68221D01*
X80683Y67669D01*
X81385Y66967D01*
X81937Y66142D01*
X82317Y65224D01*
X82361Y65003D01*
X78719Y65003D01*
G37*
%LPD*%
%LPC*%
G36*
X167619Y65003D02*
X167619Y65003D01*
X167619Y68645D01*
X167840Y68601D01*
X168758Y68221D01*
X169583Y67669D01*
X170285Y66967D01*
X170837Y66142D01*
X171217Y65224D01*
X171261Y65003D01*
X167619Y65003D01*
G37*
%LPD*%
%LPC*%
G36*
X116819Y128503D02*
X116819Y128503D01*
X116819Y132145D01*
X117040Y132101D01*
X117958Y131721D01*
X118783Y131169D01*
X119485Y130467D01*
X120037Y129642D01*
X120417Y128724D01*
X120461Y128503D01*
X116819Y128503D01*
G37*
%LPD*%
%LPC*%
G36*
X193019Y128503D02*
X193019Y128503D01*
X193019Y132145D01*
X193240Y132101D01*
X194158Y131721D01*
X194983Y131169D01*
X195685Y130467D01*
X196237Y129642D01*
X196617Y128724D01*
X196661Y128503D01*
X193019Y128503D01*
G37*
%LPD*%
%LPC*%
G36*
X154919Y65003D02*
X154919Y65003D01*
X154919Y68645D01*
X155140Y68601D01*
X156058Y68221D01*
X156883Y67669D01*
X157585Y66967D01*
X158137Y66142D01*
X158517Y65224D01*
X158561Y65003D01*
X154919Y65003D01*
G37*
%LPD*%
%LPC*%
G36*
X142219Y65003D02*
X142219Y65003D01*
X142219Y68645D01*
X142440Y68601D01*
X143358Y68221D01*
X144183Y67669D01*
X144885Y66967D01*
X145437Y66142D01*
X145817Y65224D01*
X145861Y65003D01*
X142219Y65003D01*
G37*
%LPD*%
%LPC*%
G36*
X129519Y128503D02*
X129519Y128503D01*
X129519Y132145D01*
X129740Y132101D01*
X130658Y131721D01*
X131483Y131169D01*
X132185Y130467D01*
X132737Y129642D01*
X133117Y128724D01*
X133161Y128503D01*
X129519Y128503D01*
G37*
%LPD*%
%LPC*%
G36*
X129519Y65003D02*
X129519Y65003D01*
X129519Y68645D01*
X129740Y68601D01*
X130658Y68221D01*
X131483Y67669D01*
X132185Y66967D01*
X132737Y66142D01*
X133117Y65224D01*
X133161Y65003D01*
X129519Y65003D01*
G37*
%LPD*%
%LPC*%
G36*
X104119Y65003D02*
X104119Y65003D01*
X104119Y68645D01*
X104340Y68601D01*
X105258Y68221D01*
X106083Y67669D01*
X106785Y66967D01*
X107337Y66142D01*
X107717Y65224D01*
X107761Y65003D01*
X104119Y65003D01*
G37*
%LPD*%
%LPC*%
G36*
X116819Y65003D02*
X116819Y65003D01*
X116819Y68645D01*
X117040Y68601D01*
X117958Y68221D01*
X118783Y67669D01*
X119485Y66967D01*
X120037Y66142D01*
X120417Y65224D01*
X120461Y65003D01*
X116819Y65003D01*
G37*
%LPD*%
%LPC*%
G36*
X116819Y52303D02*
X116819Y52303D01*
X116819Y55945D01*
X117040Y55901D01*
X117958Y55521D01*
X118783Y54969D01*
X119485Y54267D01*
X120037Y53442D01*
X120417Y52524D01*
X120461Y52303D01*
X116819Y52303D01*
G37*
%LPD*%
%LPC*%
G36*
X129519Y52303D02*
X129519Y52303D01*
X129519Y55945D01*
X129740Y55901D01*
X130658Y55521D01*
X131483Y54969D01*
X132185Y54267D01*
X132737Y53442D01*
X133117Y52524D01*
X133161Y52303D01*
X129519Y52303D01*
G37*
%LPD*%
%LPC*%
G36*
X91419Y65003D02*
X91419Y65003D01*
X91419Y68645D01*
X91640Y68601D01*
X92558Y68221D01*
X93383Y67669D01*
X94085Y66967D01*
X94363Y66552D01*
X94637Y66142D01*
X95017Y65224D01*
X95061Y65003D01*
X91419Y65003D01*
G37*
%LPD*%
%LPC*%
G36*
X78719Y62505D02*
X78719Y62505D01*
X82361Y62505D01*
X82317Y62284D01*
X82070Y61687D01*
X81937Y61366D01*
X81888Y61294D01*
X81385Y60541D01*
X80683Y59839D01*
X79858Y59287D01*
X78940Y58907D01*
X78719Y58863D01*
X78719Y62505D01*
G37*
%LPD*%
%LPC*%
G36*
X91419Y62505D02*
X91419Y62505D01*
X95061Y62505D01*
X95017Y62284D01*
X94637Y61366D01*
X94256Y60796D01*
X94085Y60541D01*
X93383Y59839D01*
X92558Y59287D01*
X91640Y58907D01*
X91419Y58863D01*
X91419Y62505D01*
G37*
%LPD*%
%LPC*%
G36*
X116819Y164105D02*
X116819Y164105D01*
X120461Y164105D01*
X120417Y163884D01*
X120037Y162966D01*
X119485Y162141D01*
X118783Y161439D01*
X117958Y160887D01*
X117040Y160507D01*
X116819Y160463D01*
X116819Y164105D01*
G37*
%LPD*%
%LPC*%
G36*
X72579Y77703D02*
X72579Y77703D01*
X72623Y77924D01*
X73003Y78842D01*
X73555Y79667D01*
X74257Y80369D01*
X75082Y80921D01*
X76000Y81301D01*
X76221Y81345D01*
X76221Y77703D01*
X72579Y77703D01*
G37*
%LPD*%
%LPC*%
G36*
X129519Y164105D02*
X129519Y164105D01*
X133161Y164105D01*
X133117Y163884D01*
X132737Y162966D01*
X132185Y162141D01*
X131483Y161439D01*
X130658Y160887D01*
X129740Y160507D01*
X129519Y160463D01*
X129519Y164105D01*
G37*
%LPD*%
%LPC*%
G36*
X148779Y153903D02*
X148779Y153903D01*
X148823Y154124D01*
X149203Y155042D01*
X149755Y155867D01*
X150457Y156569D01*
X151282Y157121D01*
X152200Y157501D01*
X152421Y157545D01*
X152421Y153903D01*
X148779Y153903D01*
G37*
%LPD*%
%LPC*%
G36*
X97979Y153903D02*
X97979Y153903D01*
X98023Y154124D01*
X98403Y155042D01*
X98955Y155867D01*
X99657Y156569D01*
X100482Y157121D01*
X101400Y157501D01*
X101621Y157545D01*
X101621Y153903D01*
X97979Y153903D01*
G37*
%LPD*%
%LPC*%
G36*
X85279Y153903D02*
X85279Y153903D01*
X85323Y154124D01*
X85703Y155042D01*
X86255Y155867D01*
X86957Y156569D01*
X87782Y157121D01*
X88700Y157501D01*
X88921Y157545D01*
X88921Y153903D01*
X85279Y153903D01*
G37*
%LPD*%
%LPC*%
G36*
X161479Y153903D02*
X161479Y153903D01*
X161523Y154124D01*
X161903Y155042D01*
X162455Y155867D01*
X163157Y156569D01*
X163982Y157121D01*
X164900Y157501D01*
X165121Y157545D01*
X165121Y153903D01*
X161479Y153903D01*
G37*
%LPD*%
%LPC*%
G36*
X72579Y153903D02*
X72579Y153903D01*
X72623Y154124D01*
X73003Y155042D01*
X73555Y155867D01*
X74257Y156569D01*
X75082Y157121D01*
X76000Y157501D01*
X76221Y157545D01*
X76221Y153903D01*
X72579Y153903D01*
G37*
%LPD*%
%LPC*%
G36*
X136079Y153903D02*
X136079Y153903D01*
X136123Y154124D01*
X136503Y155042D01*
X137055Y155867D01*
X137757Y156569D01*
X138582Y157121D01*
X139500Y157501D01*
X139721Y157545D01*
X139721Y153903D01*
X136079Y153903D01*
G37*
%LPD*%
%LPC*%
G36*
X123379Y153903D02*
X123379Y153903D01*
X123423Y154124D01*
X123803Y155042D01*
X124355Y155867D01*
X125057Y156569D01*
X125882Y157121D01*
X126800Y157501D01*
X127021Y157545D01*
X127021Y153903D01*
X123379Y153903D01*
G37*
%LPD*%
%LPC*%
G36*
X110679Y153903D02*
X110679Y153903D01*
X110723Y154124D01*
X111103Y155042D01*
X111655Y155867D01*
X112357Y156569D01*
X113182Y157121D01*
X114100Y157501D01*
X114321Y157545D01*
X114321Y153903D01*
X110679Y153903D01*
G37*
%LPD*%
%LPC*%
G36*
X167619Y75205D02*
X167619Y75205D01*
X171261Y75205D01*
X171217Y74984D01*
X170837Y74066D01*
X170285Y73241D01*
X169583Y72539D01*
X168758Y71987D01*
X167840Y71607D01*
X167619Y71563D01*
X167619Y75205D01*
G37*
%LPD*%
%LPC*%
G36*
X78719Y151405D02*
X78719Y151405D01*
X82361Y151405D01*
X82317Y151184D01*
X81937Y150266D01*
X81385Y149441D01*
X80683Y148739D01*
X79858Y148187D01*
X78940Y147807D01*
X78719Y147763D01*
X78719Y151405D01*
G37*
%LPD*%
%LPC*%
G36*
X66019Y75205D02*
X66019Y75205D01*
X69661Y75205D01*
X69617Y74984D01*
X69237Y74066D01*
X68685Y73241D01*
X67983Y72539D01*
X67158Y71987D01*
X66240Y71607D01*
X66019Y71563D01*
X66019Y75205D01*
G37*
%LPD*%
%LPC*%
G36*
X167619Y151405D02*
X167619Y151405D01*
X171261Y151405D01*
X171217Y151184D01*
X170837Y150266D01*
X170285Y149441D01*
X169583Y148739D01*
X168758Y148187D01*
X167840Y147807D01*
X167619Y147763D01*
X167619Y151405D01*
G37*
%LPD*%
%LPC*%
G36*
X161479Y141203D02*
X161479Y141203D01*
X161523Y141424D01*
X161903Y142342D01*
X162455Y143167D01*
X163157Y143869D01*
X163982Y144421D01*
X164900Y144801D01*
X165121Y144845D01*
X165121Y141203D01*
X161479Y141203D01*
G37*
%LPD*%
%LPC*%
G36*
X72579Y141203D02*
X72579Y141203D01*
X72623Y141424D01*
X73003Y142342D01*
X73555Y143167D01*
X74257Y143869D01*
X75082Y144421D01*
X76000Y144801D01*
X76221Y144845D01*
X76221Y141203D01*
X72579Y141203D01*
G37*
%LPD*%
%LPC*%
G36*
X53319Y75205D02*
X53319Y75205D01*
X56961Y75205D01*
X56917Y74984D01*
X56537Y74066D01*
X55985Y73241D01*
X55283Y72539D01*
X54458Y71987D01*
X53540Y71607D01*
X53319Y71563D01*
X53319Y75205D01*
G37*
%LPD*%
%LPC*%
G36*
X116819Y138705D02*
X116819Y138705D01*
X120461Y138705D01*
X120417Y138484D01*
X120037Y137566D01*
X119485Y136741D01*
X118783Y136039D01*
X117958Y135487D01*
X117040Y135107D01*
X116819Y135063D01*
X116819Y138705D01*
G37*
%LPD*%
%LPC*%
G36*
X167619Y126005D02*
X167619Y126005D01*
X171261Y126005D01*
X171217Y125784D01*
X170837Y124866D01*
X170285Y124041D01*
X169583Y123339D01*
X168758Y122787D01*
X167840Y122407D01*
X167619Y122363D01*
X167619Y126005D01*
G37*
%LPD*%
%LPC*%
G36*
X167619Y138705D02*
X167619Y138705D01*
X171261Y138705D01*
X171217Y138484D01*
X170837Y137566D01*
X170285Y136741D01*
X169583Y136039D01*
X168758Y135487D01*
X167840Y135107D01*
X167619Y135063D01*
X167619Y138705D01*
G37*
%LPD*%
%LPC*%
G36*
X110679Y103103D02*
X110679Y103103D01*
X110723Y103324D01*
X111103Y104242D01*
X111655Y105067D01*
X112357Y105769D01*
X113182Y106321D01*
X114100Y106701D01*
X114321Y106745D01*
X114321Y103103D01*
X110679Y103103D01*
G37*
%LPD*%
%LPC*%
G36*
X129519Y138705D02*
X129519Y138705D01*
X133161Y138705D01*
X133117Y138484D01*
X132737Y137566D01*
X132185Y136741D01*
X131483Y136039D01*
X130658Y135487D01*
X129740Y135107D01*
X129519Y135063D01*
X129519Y138705D01*
G37*
%LPD*%
%LPC*%
G36*
X174179Y103103D02*
X174179Y103103D01*
X174223Y103324D01*
X174603Y104242D01*
X175155Y105067D01*
X175857Y105769D01*
X176682Y106321D01*
X177600Y106701D01*
X177821Y106745D01*
X177821Y103103D01*
X174179Y103103D01*
G37*
%LPD*%
%LPC*%
G36*
X110679Y128503D02*
X110679Y128503D01*
X110723Y128724D01*
X111103Y129642D01*
X111655Y130467D01*
X112357Y131169D01*
X113182Y131721D01*
X114100Y132101D01*
X114321Y132145D01*
X114321Y128503D01*
X110679Y128503D01*
G37*
%LPD*%
%LPC*%
G36*
X186879Y128503D02*
X186879Y128503D01*
X186923Y128724D01*
X187303Y129642D01*
X187855Y130467D01*
X188557Y131169D01*
X189382Y131721D01*
X190300Y132101D01*
X190521Y132145D01*
X190521Y128503D01*
X186879Y128503D01*
G37*
%LPD*%
%LPC*%
G36*
X199579Y128503D02*
X199579Y128503D01*
X199623Y128724D01*
X200003Y129642D01*
X200555Y130467D01*
X201257Y131169D01*
X202082Y131721D01*
X203000Y132101D01*
X203221Y132145D01*
X203221Y128503D01*
X199579Y128503D01*
G37*
%LPD*%
%LPC*%
G36*
X148779Y128503D02*
X148779Y128503D01*
X148823Y128724D01*
X149203Y129642D01*
X149755Y130467D01*
X150457Y131169D01*
X151282Y131721D01*
X152200Y132101D01*
X152421Y132145D01*
X152421Y128503D01*
X148779Y128503D01*
G37*
%LPD*%
%LPC*%
G36*
X97979Y128503D02*
X97979Y128503D01*
X98023Y128724D01*
X98403Y129642D01*
X98955Y130467D01*
X99657Y131169D01*
X100482Y131721D01*
X101400Y132101D01*
X101621Y132145D01*
X101621Y128503D01*
X97979Y128503D01*
G37*
%LPD*%
%LPC*%
G36*
X72579Y128503D02*
X72579Y128503D01*
X72623Y128724D01*
X73003Y129642D01*
X73555Y130467D01*
X74257Y131169D01*
X75082Y131721D01*
X76000Y132101D01*
X76221Y132145D01*
X76221Y128503D01*
X72579Y128503D01*
G37*
%LPD*%
%LPC*%
G36*
X161479Y128503D02*
X161479Y128503D01*
X161523Y128724D01*
X161903Y129642D01*
X162455Y130467D01*
X163157Y131169D01*
X163982Y131721D01*
X164900Y132101D01*
X165121Y132145D01*
X165121Y128503D01*
X161479Y128503D01*
G37*
%LPD*%
%LPC*%
G36*
X212279Y128503D02*
X212279Y128503D01*
X212323Y128724D01*
X212703Y129642D01*
X213255Y130467D01*
X213957Y131169D01*
X214782Y131721D01*
X215700Y132101D01*
X215921Y132145D01*
X215921Y128503D01*
X212279Y128503D01*
G37*
%LPD*%
%LPC*%
G36*
X136079Y128503D02*
X136079Y128503D01*
X136123Y128724D01*
X136503Y129642D01*
X137055Y130467D01*
X137757Y131169D01*
X138582Y131721D01*
X139500Y132101D01*
X139721Y132145D01*
X139721Y128503D01*
X136079Y128503D01*
G37*
%LPD*%
%LPC*%
G36*
X123379Y128503D02*
X123379Y128503D01*
X123423Y128724D01*
X123803Y129642D01*
X124355Y130467D01*
X125057Y131169D01*
X125882Y131721D01*
X126800Y132101D01*
X127021Y132145D01*
X127021Y128503D01*
X123379Y128503D01*
G37*
%LPD*%
%LPC*%
G36*
X161479Y65003D02*
X161479Y65003D01*
X161523Y65224D01*
X161903Y66142D01*
X162455Y66967D01*
X163157Y67669D01*
X163982Y68221D01*
X164900Y68601D01*
X165121Y68645D01*
X165121Y65003D01*
X161479Y65003D01*
G37*
%LPD*%
%LPC*%
G36*
X193019Y126005D02*
X193019Y126005D01*
X196661Y126005D01*
X196617Y125784D01*
X196237Y124866D01*
X195685Y124041D01*
X194983Y123339D01*
X194158Y122787D01*
X193240Y122407D01*
X193019Y122363D01*
X193019Y126005D01*
G37*
%LPD*%
%LPC*%
G36*
X167619Y100605D02*
X167619Y100605D01*
X171261Y100605D01*
X171217Y100384D01*
X170837Y99466D01*
X170285Y98641D01*
X169583Y97939D01*
X168758Y97387D01*
X167840Y97007D01*
X167619Y96963D01*
X167619Y100605D01*
G37*
%LPD*%
%LPC*%
G36*
X148779Y65003D02*
X148779Y65003D01*
X148823Y65224D01*
X149203Y66142D01*
X149755Y66967D01*
X150457Y67669D01*
X151282Y68221D01*
X152200Y68601D01*
X152421Y68645D01*
X152421Y65003D01*
X148779Y65003D01*
G37*
%LPD*%
%LPC*%
G36*
X136079Y65003D02*
X136079Y65003D01*
X136123Y65224D01*
X136503Y66142D01*
X137055Y66967D01*
X137757Y67669D01*
X138582Y68221D01*
X139500Y68601D01*
X139721Y68645D01*
X139721Y65003D01*
X136079Y65003D01*
G37*
%LPD*%
%LPC*%
G36*
X218419Y126005D02*
X218419Y126005D01*
X222061Y126005D01*
X222017Y125784D01*
X221637Y124866D01*
X221085Y124041D01*
X220383Y123339D01*
X219558Y122787D01*
X218640Y122407D01*
X218419Y122363D01*
X218419Y126005D01*
G37*
%LPD*%
%LPC*%
G36*
X123379Y65003D02*
X123379Y65003D01*
X123423Y65224D01*
X123803Y66142D01*
X124355Y66967D01*
X125057Y67669D01*
X125882Y68221D01*
X126800Y68601D01*
X127021Y68645D01*
X127021Y65003D01*
X123379Y65003D01*
G37*
%LPD*%
%LPC*%
G36*
X205719Y126005D02*
X205719Y126005D01*
X209361Y126005D01*
X209317Y125784D01*
X208937Y124866D01*
X208385Y124041D01*
X207683Y123339D01*
X206858Y122787D01*
X205940Y122407D01*
X205719Y122363D01*
X205719Y126005D01*
G37*
%LPD*%
%LPC*%
G36*
X110679Y65003D02*
X110679Y65003D01*
X110723Y65224D01*
X111103Y66142D01*
X111655Y66967D01*
X112357Y67669D01*
X113182Y68221D01*
X114100Y68601D01*
X114321Y68645D01*
X114321Y65003D01*
X110679Y65003D01*
G37*
%LPD*%
%LPC*%
G36*
X72579Y115803D02*
X72579Y115803D01*
X72623Y116024D01*
X73003Y116942D01*
X73555Y117767D01*
X74257Y118469D01*
X75082Y119021D01*
X76000Y119401D01*
X76221Y119445D01*
X76221Y115803D01*
X72579Y115803D01*
G37*
%LPD*%
%LPC*%
G36*
X59879Y115803D02*
X59879Y115803D01*
X59923Y116024D01*
X60303Y116942D01*
X60855Y117767D01*
X61557Y118469D01*
X62382Y119021D01*
X63300Y119401D01*
X63521Y119445D01*
X63521Y115803D01*
X59879Y115803D01*
G37*
%LPD*%
%LPC*%
G36*
X193019Y100605D02*
X193019Y100605D01*
X196661Y100605D01*
X196617Y100384D01*
X196237Y99466D01*
X195685Y98641D01*
X194983Y97939D01*
X194158Y97387D01*
X193240Y97007D01*
X193019Y96963D01*
X193019Y100605D01*
G37*
%LPD*%
%LPC*%
G36*
X97979Y65003D02*
X97979Y65003D01*
X98023Y65224D01*
X98403Y66142D01*
X98955Y66967D01*
X99657Y67669D01*
X100482Y68221D01*
X101400Y68601D01*
X101621Y68645D01*
X101621Y65003D01*
X97979Y65003D01*
G37*
%LPD*%
%LPC*%
G36*
X212279Y115803D02*
X212279Y115803D01*
X212323Y116024D01*
X212703Y116942D01*
X213255Y117767D01*
X213957Y118469D01*
X214782Y119021D01*
X215700Y119401D01*
X215921Y119445D01*
X215921Y115803D01*
X212279Y115803D01*
G37*
%LPD*%
%LPC*%
G36*
X34479Y115803D02*
X34479Y115803D01*
X34523Y116024D01*
X34903Y116942D01*
X35455Y117767D01*
X36157Y118469D01*
X36982Y119021D01*
X37900Y119401D01*
X38121Y119445D01*
X38121Y115803D01*
X34479Y115803D01*
G37*
%LPD*%
%LPC*%
G36*
X186879Y115803D02*
X186879Y115803D01*
X186923Y116024D01*
X187303Y116942D01*
X187855Y117767D01*
X188557Y118469D01*
X189382Y119021D01*
X190300Y119401D01*
X190521Y119445D01*
X190521Y115803D01*
X186879Y115803D01*
G37*
%LPD*%
%LPC*%
G36*
X47179Y115803D02*
X47179Y115803D01*
X47223Y116024D01*
X47603Y116942D01*
X48155Y117767D01*
X48857Y118469D01*
X49682Y119021D01*
X50600Y119401D01*
X50821Y119445D01*
X50821Y115803D01*
X47179Y115803D01*
G37*
%LPD*%
%LPC*%
G36*
X199579Y115803D02*
X199579Y115803D01*
X199623Y116024D01*
X200003Y116942D01*
X200555Y117767D01*
X201257Y118469D01*
X202082Y119021D01*
X203000Y119401D01*
X203221Y119445D01*
X203221Y115803D01*
X199579Y115803D01*
G37*
%LPD*%
%LPC*%
G36*
X136079Y103103D02*
X136079Y103103D01*
X136123Y103324D01*
X136503Y104242D01*
X137055Y105067D01*
X137757Y105769D01*
X138582Y106321D01*
X139500Y106701D01*
X139721Y106745D01*
X139721Y103103D01*
X136079Y103103D01*
G37*
%LPD*%
%LPC*%
G36*
X161479Y115803D02*
X161479Y115803D01*
X161523Y116024D01*
X161903Y116942D01*
X162455Y117767D01*
X163157Y118469D01*
X163982Y119021D01*
X164900Y119401D01*
X165121Y119445D01*
X165121Y115803D01*
X161479Y115803D01*
G37*
%LPD*%
%LPC*%
G36*
X72579Y65003D02*
X72579Y65003D01*
X72623Y65224D01*
X73003Y66142D01*
X73555Y66967D01*
X74257Y67669D01*
X75082Y68221D01*
X76000Y68601D01*
X76221Y68645D01*
X76221Y65003D01*
X72579Y65003D01*
G37*
%LPD*%
%LPC*%
G36*
X104119Y62505D02*
X104119Y62505D01*
X107761Y62505D01*
X107717Y62284D01*
X107337Y61366D01*
X106785Y60541D01*
X106083Y59839D01*
X105258Y59287D01*
X104340Y58907D01*
X104119Y58863D01*
X104119Y62505D01*
G37*
%LPD*%
%LPC*%
G36*
X116819Y62505D02*
X116819Y62505D01*
X120461Y62505D01*
X120417Y62284D01*
X120037Y61366D01*
X119485Y60541D01*
X118783Y59839D01*
X117958Y59287D01*
X117040Y58907D01*
X116819Y58863D01*
X116819Y62505D01*
G37*
%LPD*%
%LPC*%
G36*
X66019Y113305D02*
X66019Y113305D01*
X69661Y113305D01*
X69617Y113084D01*
X69237Y112166D01*
X68685Y111341D01*
X67983Y110639D01*
X67158Y110087D01*
X66240Y109707D01*
X66019Y109663D01*
X66019Y113305D01*
G37*
%LPD*%
%LPC*%
G36*
X129519Y62505D02*
X129519Y62505D01*
X133161Y62505D01*
X133117Y62284D01*
X132737Y61366D01*
X132185Y60541D01*
X131483Y59839D01*
X130658Y59287D01*
X129740Y58907D01*
X129519Y58863D01*
X129519Y62505D01*
G37*
%LPD*%
%LPC*%
G36*
X59879Y103103D02*
X59879Y103103D01*
X59923Y103324D01*
X60303Y104242D01*
X60855Y105067D01*
X61557Y105769D01*
X62382Y106321D01*
X63300Y106701D01*
X63521Y106745D01*
X63521Y103103D01*
X59879Y103103D01*
G37*
%LPD*%
%LPC*%
G36*
X142219Y62505D02*
X142219Y62505D01*
X145861Y62505D01*
X145817Y62284D01*
X145437Y61366D01*
X144885Y60541D01*
X144183Y59839D01*
X143358Y59287D01*
X142440Y58907D01*
X142219Y58863D01*
X142219Y62505D01*
G37*
%LPD*%
%LPC*%
G36*
X167619Y113305D02*
X167619Y113305D01*
X171261Y113305D01*
X171217Y113084D01*
X170837Y112166D01*
X170285Y111341D01*
X169583Y110639D01*
X168758Y110087D01*
X167840Y109707D01*
X167619Y109663D01*
X167619Y113305D01*
G37*
%LPD*%
%LPC*%
G36*
X154919Y62505D02*
X154919Y62505D01*
X158561Y62505D01*
X158517Y62284D01*
X158137Y61366D01*
X157585Y60541D01*
X156883Y59839D01*
X156058Y59287D01*
X155140Y58907D01*
X154919Y58863D01*
X154919Y62505D01*
G37*
%LPD*%
%LPC*%
G36*
X53319Y113305D02*
X53319Y113305D01*
X56961Y113305D01*
X56917Y113084D01*
X56537Y112166D01*
X55985Y111341D01*
X55283Y110639D01*
X54458Y110087D01*
X53540Y109707D01*
X53319Y109663D01*
X53319Y113305D01*
G37*
%LPD*%
%LPC*%
G36*
X129519Y113305D02*
X129519Y113305D01*
X133161Y113305D01*
X133117Y113084D01*
X132737Y112166D01*
X132185Y111341D01*
X131483Y110639D01*
X130658Y110087D01*
X129740Y109707D01*
X129519Y109663D01*
X129519Y113305D01*
G37*
%LPD*%
%LPC*%
G36*
X167619Y62505D02*
X167619Y62505D01*
X171261Y62505D01*
X171217Y62284D01*
X170837Y61366D01*
X170285Y60541D01*
X169583Y59839D01*
X168758Y59287D01*
X167840Y58907D01*
X167619Y58863D01*
X167619Y62505D01*
G37*
%LPD*%
%LPC*%
G36*
X91419Y113305D02*
X91419Y113305D01*
X95061Y113305D01*
X95017Y113084D01*
X94637Y112166D01*
X94085Y111341D01*
X93383Y110639D01*
X92558Y110087D01*
X91640Y109707D01*
X91419Y109663D01*
X91419Y113305D01*
G37*
%LPD*%
%LPC*%
G36*
X218419Y100605D02*
X218419Y100605D01*
X222061Y100605D01*
X222017Y100384D01*
X221637Y99466D01*
X221085Y98641D01*
X220383Y97939D01*
X219558Y97387D01*
X218640Y97007D01*
X218419Y96963D01*
X218419Y100605D01*
G37*
%LPD*%
%LPC*%
G36*
X123379Y52303D02*
X123379Y52303D01*
X123423Y52524D01*
X123803Y53442D01*
X124355Y54267D01*
X125057Y54969D01*
X125882Y55521D01*
X126800Y55901D01*
X127021Y55945D01*
X127021Y52303D01*
X123379Y52303D01*
G37*
%LPD*%
%LPC*%
G36*
X205719Y100605D02*
X205719Y100605D01*
X209361Y100605D01*
X209317Y100384D01*
X208937Y99466D01*
X208385Y98641D01*
X207683Y97939D01*
X206858Y97387D01*
X205940Y97007D01*
X205719Y96963D01*
X205719Y100605D01*
G37*
%LPD*%
%LPC*%
G36*
X53319Y100605D02*
X53319Y100605D01*
X56961Y100605D01*
X56917Y100384D01*
X56537Y99466D01*
X55985Y98641D01*
X55283Y97939D01*
X54458Y97387D01*
X53540Y97007D01*
X53319Y96963D01*
X53319Y100605D01*
G37*
%LPD*%
%LPC*%
G36*
X129519Y49805D02*
X129519Y49805D01*
X133161Y49805D01*
X133117Y49584D01*
X132737Y48666D01*
X132185Y47841D01*
X131483Y47139D01*
X130658Y46587D01*
X129740Y46207D01*
X129519Y46163D01*
X129519Y49805D01*
G37*
%LPD*%
%LPC*%
G36*
X116819Y49805D02*
X116819Y49805D01*
X120461Y49805D01*
X120417Y49584D01*
X120037Y48666D01*
X119485Y47841D01*
X118783Y47139D01*
X117958Y46587D01*
X117040Y46207D01*
X116819Y46163D01*
X116819Y49805D01*
G37*
%LPD*%
%LPC*%
G36*
X116819Y100605D02*
X116819Y100605D01*
X120461Y100605D01*
X120417Y100384D01*
X120037Y99466D01*
X119485Y98641D01*
X118783Y97939D01*
X117958Y97387D01*
X117040Y97007D01*
X116819Y96963D01*
X116819Y100605D01*
G37*
%LPD*%
%LPC*%
G36*
X97979Y103103D02*
X97979Y103103D01*
X98023Y103324D01*
X98403Y104242D01*
X98955Y105067D01*
X99657Y105769D01*
X100482Y106321D01*
X101400Y106701D01*
X101621Y106745D01*
X101621Y103103D01*
X97979Y103103D01*
G37*
%LPD*%
%LPC*%
G36*
X167619Y87905D02*
X167619Y87905D01*
X171261Y87905D01*
X171217Y87684D01*
X170837Y86766D01*
X170285Y85941D01*
X169583Y85239D01*
X168758Y84687D01*
X167840Y84307D01*
X167619Y84263D01*
X167619Y87905D01*
G37*
%LPD*%
%LPC*%
G36*
X123379Y90403D02*
X123379Y90403D01*
X123423Y90624D01*
X123803Y91542D01*
X124355Y92367D01*
X125057Y93069D01*
X125882Y93621D01*
X126800Y94001D01*
X127021Y94045D01*
X127021Y90403D01*
X123379Y90403D01*
G37*
%LPD*%
%LPC*%
G36*
X199579Y103103D02*
X199579Y103103D01*
X199623Y103324D01*
X200003Y104242D01*
X200555Y105067D01*
X201257Y105769D01*
X202082Y106321D01*
X203000Y106701D01*
X203221Y106745D01*
X203221Y103103D01*
X199579Y103103D01*
G37*
%LPD*%
%LPC*%
G36*
X47179Y103103D02*
X47179Y103103D01*
X47223Y103324D01*
X47603Y104242D01*
X48155Y105067D01*
X48857Y105769D01*
X49682Y106321D01*
X50600Y106701D01*
X50821Y106745D01*
X50821Y103103D01*
X47179Y103103D01*
G37*
%LPD*%
%LPC*%
G36*
X161479Y90403D02*
X161479Y90403D01*
X161523Y90624D01*
X161903Y91542D01*
X162455Y92367D01*
X163157Y93069D01*
X163982Y93621D01*
X164900Y94001D01*
X165121Y94045D01*
X165121Y90403D01*
X161479Y90403D01*
G37*
%LPD*%
%LPC*%
G36*
X72579Y90403D02*
X72579Y90403D01*
X72623Y90624D01*
X73003Y91542D01*
X73555Y92367D01*
X74257Y93069D01*
X75082Y93621D01*
X76000Y94001D01*
X76221Y94045D01*
X76221Y90403D01*
X72579Y90403D01*
G37*
%LPD*%
%LPC*%
G36*
X59879Y90403D02*
X59879Y90403D01*
X59923Y90624D01*
X60303Y91542D01*
X60855Y92367D01*
X61557Y93069D01*
X62382Y93621D01*
X63300Y94001D01*
X63521Y94045D01*
X63521Y90403D01*
X59879Y90403D01*
G37*
%LPD*%
%LPC*%
G36*
X116819Y113305D02*
X116819Y113305D01*
X120461Y113305D01*
X120417Y113084D01*
X120037Y112166D01*
X119485Y111341D01*
X118783Y110639D01*
X117958Y110087D01*
X117040Y109707D01*
X116819Y109663D01*
X116819Y113305D01*
G37*
%LPD*%
%LPC*%
G36*
X142219Y113305D02*
X142219Y113305D01*
X145861Y113305D01*
X145817Y113084D01*
X145437Y112166D01*
X144885Y111341D01*
X144183Y110639D01*
X143358Y110087D01*
X142440Y109707D01*
X142219Y109663D01*
X142219Y113305D01*
G37*
%LPD*%
%LPC*%
G36*
X142219Y87905D02*
X142219Y87905D01*
X145861Y87905D01*
X145817Y87684D01*
X145437Y86766D01*
X144885Y85941D01*
X144183Y85239D01*
X143358Y84687D01*
X142440Y84307D01*
X142219Y84263D01*
X142219Y87905D01*
G37*
%LPD*%
%LPC*%
G36*
X66019Y87905D02*
X66019Y87905D01*
X69661Y87905D01*
X69617Y87684D01*
X69237Y86766D01*
X68685Y85941D01*
X67983Y85239D01*
X67158Y84687D01*
X66240Y84307D01*
X66019Y84263D01*
X66019Y87905D01*
G37*
%LPD*%
%LPC*%
G36*
X53319Y87905D02*
X53319Y87905D01*
X56961Y87905D01*
X56917Y87684D01*
X56537Y86766D01*
X55985Y85941D01*
X55283Y85239D01*
X54458Y84687D01*
X53540Y84307D01*
X53319Y84263D01*
X53319Y87905D01*
G37*
%LPD*%
%LPC*%
G36*
X91419Y87905D02*
X91419Y87905D01*
X95061Y87905D01*
X95017Y87684D01*
X94637Y86766D01*
X94085Y85941D01*
X93383Y85239D01*
X92558Y84687D01*
X91640Y84307D01*
X91419Y84263D01*
X91419Y87905D01*
G37*
%LPD*%
%LPC*%
G36*
X104119Y113305D02*
X104119Y113305D01*
X107761Y113305D01*
X107717Y113084D01*
X107337Y112166D01*
X106785Y111341D01*
X106083Y110639D01*
X105258Y110087D01*
X104340Y109707D01*
X104119Y109663D01*
X104119Y113305D01*
G37*
%LPD*%
%LPC*%
G36*
X59879Y77703D02*
X59879Y77703D01*
X59923Y77924D01*
X60303Y78842D01*
X60855Y79667D01*
X61557Y80369D01*
X62382Y80921D01*
X63300Y81301D01*
X63521Y81345D01*
X63521Y77703D01*
X59879Y77703D01*
G37*
%LPD*%
%LPC*%
G36*
X97979Y77703D02*
X97979Y77703D01*
X98023Y77924D01*
X98403Y78842D01*
X98955Y79667D01*
X99657Y80369D01*
X100482Y80921D01*
X101400Y81301D01*
X101621Y81345D01*
X101621Y77703D01*
X97979Y77703D01*
G37*
%LPD*%
%LPC*%
G36*
X148779Y77703D02*
X148779Y77703D01*
X148823Y77924D01*
X149203Y78842D01*
X149755Y79667D01*
X150457Y80369D01*
X151282Y80921D01*
X152200Y81301D01*
X152421Y81345D01*
X152421Y77703D01*
X148779Y77703D01*
G37*
%LPD*%
%LPC*%
G36*
X123379Y103103D02*
X123379Y103103D01*
X123423Y103324D01*
X123803Y104242D01*
X124355Y105067D01*
X125057Y105769D01*
X125882Y106321D01*
X126800Y106701D01*
X127021Y106745D01*
X127021Y103103D01*
X123379Y103103D01*
G37*
%LPD*%
%LPC*%
G36*
X212279Y103103D02*
X212279Y103103D01*
X212323Y103324D01*
X212703Y104242D01*
X213255Y105067D01*
X213957Y105769D01*
X214782Y106321D01*
X215700Y106701D01*
X215921Y106745D01*
X215921Y103103D01*
X212279Y103103D01*
G37*
%LPD*%
%LPC*%
G36*
X148779Y103103D02*
X148779Y103103D01*
X148823Y103324D01*
X149203Y104242D01*
X149755Y105067D01*
X150457Y105769D01*
X151282Y106321D01*
X152200Y106701D01*
X152421Y106745D01*
X152421Y103103D01*
X148779Y103103D01*
G37*
%LPD*%
%LPC*%
G36*
X72579Y103103D02*
X72579Y103103D01*
X72623Y103324D01*
X73003Y104242D01*
X73555Y105067D01*
X74257Y105769D01*
X75082Y106321D01*
X76000Y106701D01*
X76221Y106745D01*
X76221Y103103D01*
X72579Y103103D01*
G37*
%LPD*%
%LPC*%
G36*
X161479Y77703D02*
X161479Y77703D01*
X161523Y77924D01*
X161903Y78842D01*
X162455Y79667D01*
X163157Y80369D01*
X163982Y80921D01*
X164900Y81301D01*
X165121Y81345D01*
X165121Y77703D01*
X161479Y77703D01*
G37*
%LPD*%
%LPC*%
G36*
X161479Y103103D02*
X161479Y103103D01*
X161523Y103324D01*
X161903Y104242D01*
X162455Y105067D01*
X163157Y105769D01*
X163982Y106321D01*
X164900Y106701D01*
X165121Y106745D01*
X165121Y103103D01*
X161479Y103103D01*
G37*
%LPD*%
%LPC*%
G36*
X123379Y115803D02*
X123379Y115803D01*
X123423Y116024D01*
X123550Y116330D01*
X123803Y116942D01*
X124355Y117767D01*
X125057Y118469D01*
X125882Y119021D01*
X126800Y119401D01*
X127021Y119445D01*
X127021Y115803D01*
X123379Y115803D01*
G37*
%LPD*%
%LPC*%
G36*
X110679Y115803D02*
X110679Y115803D01*
X110723Y116024D01*
X110850Y116330D01*
X111103Y116942D01*
X111655Y117767D01*
X112357Y118469D01*
X113182Y119021D01*
X114100Y119401D01*
X114321Y119445D01*
X114321Y115803D01*
X110679Y115803D01*
G37*
%LPD*%
%LPC*%
G36*
X136079Y115803D02*
X136079Y115803D01*
X136123Y116024D01*
X136250Y116330D01*
X136503Y116942D01*
X137055Y117767D01*
X137757Y118469D01*
X138582Y119021D01*
X139500Y119401D01*
X139721Y119445D01*
X139721Y115803D01*
X136079Y115803D01*
G37*
%LPD*%
%LPC*%
G36*
X148779Y115803D02*
X148779Y115803D01*
X148823Y116024D01*
X148950Y116330D01*
X149203Y116942D01*
X149755Y117767D01*
X150457Y118469D01*
X151282Y119021D01*
X152200Y119401D01*
X152421Y119445D01*
X152421Y115803D01*
X148779Y115803D01*
G37*
%LPD*%
%LPC*%
G36*
X97979Y115803D02*
X97979Y115803D01*
X98023Y116024D01*
X98150Y116330D01*
X98403Y116942D01*
X98955Y117767D01*
X99657Y118469D01*
X100482Y119021D01*
X101400Y119401D01*
X101621Y119445D01*
X101621Y115803D01*
X97979Y115803D01*
G37*
%LPD*%
%LPC*%
G36*
X174179Y115803D02*
X174179Y115803D01*
X174223Y116024D01*
X174603Y116942D01*
X174623Y116971D01*
X174623Y116972D01*
X175155Y117767D01*
X175857Y118469D01*
X176682Y119021D01*
X177600Y119401D01*
X177821Y119445D01*
X177821Y115803D01*
X174179Y115803D01*
G37*
%LPD*%
%LPC*%
G36*
X66019Y100605D02*
X66019Y100605D01*
X69661Y100605D01*
X69617Y100384D01*
X69237Y99466D01*
X68685Y98641D01*
X68119Y98074D01*
X67983Y97939D01*
X67158Y97387D01*
X66240Y97007D01*
X66019Y96963D01*
X66019Y100605D01*
G37*
%LPD*%
%LPC*%
G36*
X85279Y65003D02*
X85279Y65003D01*
X85323Y65224D01*
X85703Y66142D01*
X86255Y66967D01*
X86390Y67103D01*
X86957Y67669D01*
X87782Y68221D01*
X88700Y68601D01*
X88921Y68645D01*
X88921Y65003D01*
X85279Y65003D01*
G37*
%LPD*%
%LPC*%
G36*
X76000Y147807D02*
X76000Y147807D01*
X75082Y148187D01*
X74257Y148739D01*
X73555Y149441D01*
X73003Y150266D01*
X72623Y151184D01*
X72579Y151405D01*
X76221Y151405D01*
X76221Y147763D01*
X76000Y147807D01*
G37*
%LPD*%
%LPC*%
G36*
X126800Y135107D02*
X126800Y135107D01*
X125882Y135487D01*
X125057Y136039D01*
X124355Y136741D01*
X123803Y137566D01*
X123423Y138484D01*
X123379Y138705D01*
X127021Y138705D01*
X127021Y135063D01*
X126800Y135107D01*
G37*
%LPD*%
%LPC*%
G36*
X76000Y135107D02*
X76000Y135107D01*
X75082Y135487D01*
X74257Y136039D01*
X73555Y136741D01*
X73003Y137566D01*
X72623Y138484D01*
X72579Y138705D01*
X76221Y138705D01*
X76221Y135063D01*
X76000Y135107D01*
G37*
%LPD*%
%LPC*%
G36*
X164900Y135107D02*
X164900Y135107D01*
X163982Y135487D01*
X163157Y136039D01*
X162455Y136741D01*
X161903Y137566D01*
X161523Y138484D01*
X161479Y138705D01*
X165121Y138705D01*
X165121Y135063D01*
X164900Y135107D01*
G37*
%LPD*%
%LPC*%
G36*
X203000Y122407D02*
X203000Y122407D01*
X202082Y122787D01*
X201257Y123339D01*
X200555Y124041D01*
X200003Y124866D01*
X199623Y125784D01*
X199579Y126005D01*
X203221Y126005D01*
X203221Y122363D01*
X203000Y122407D01*
G37*
%LPD*%
%LPC*%
G36*
X126800Y160507D02*
X126800Y160507D01*
X125882Y160887D01*
X125057Y161439D01*
X124355Y162141D01*
X123803Y162966D01*
X123423Y163884D01*
X123379Y164105D01*
X127021Y164105D01*
X127021Y160463D01*
X126800Y160507D01*
G37*
%LPD*%
%LPC*%
G36*
X164900Y122407D02*
X164900Y122407D01*
X163982Y122787D01*
X163157Y123339D01*
X162455Y124041D01*
X161903Y124866D01*
X161523Y125784D01*
X161479Y126005D01*
X165121Y126005D01*
X165121Y122363D01*
X164900Y122407D01*
G37*
%LPD*%
%LPC*%
G36*
X114100Y135107D02*
X114100Y135107D01*
X113182Y135487D01*
X112357Y136039D01*
X111655Y136741D01*
X111103Y137566D01*
X110723Y138484D01*
X110679Y138705D01*
X114321Y138705D01*
X114321Y135063D01*
X114100Y135107D01*
G37*
%LPD*%
%LPC*%
G36*
X215700Y122407D02*
X215700Y122407D01*
X214782Y122787D01*
X213957Y123339D01*
X213255Y124041D01*
X212703Y124866D01*
X212323Y125784D01*
X212279Y126005D01*
X215921Y126005D01*
X215921Y122363D01*
X215700Y122407D01*
G37*
%LPD*%
%LPC*%
G36*
X190300Y122407D02*
X190300Y122407D01*
X189382Y122787D01*
X188557Y123339D01*
X187855Y124041D01*
X187303Y124866D01*
X186923Y125784D01*
X186879Y126005D01*
X190521Y126005D01*
X190521Y122363D01*
X190300Y122407D01*
G37*
%LPD*%
%LPC*%
G36*
X76000Y122407D02*
X76000Y122407D01*
X75082Y122787D01*
X74257Y123339D01*
X73555Y124041D01*
X73003Y124866D01*
X72623Y125784D01*
X72579Y126005D01*
X76221Y126005D01*
X76221Y122363D01*
X76000Y122407D01*
G37*
%LPD*%
%LPC*%
G36*
X63300Y109707D02*
X63300Y109707D01*
X62382Y110087D01*
X61557Y110639D01*
X60855Y111341D01*
X60303Y112166D01*
X59923Y113084D01*
X59879Y113305D01*
X63521Y113305D01*
X63521Y109663D01*
X63300Y109707D01*
G37*
%LPD*%
%LPC*%
G36*
X164900Y109707D02*
X164900Y109707D01*
X163982Y110087D01*
X163157Y110639D01*
X162455Y111341D01*
X161903Y112166D01*
X161523Y113084D01*
X161479Y113305D01*
X165121Y113305D01*
X165121Y109663D01*
X164900Y109707D01*
G37*
%LPD*%
%LPC*%
G36*
X177600Y109707D02*
X177600Y109707D01*
X176682Y110087D01*
X175857Y110639D01*
X175155Y111341D01*
X174603Y112166D01*
X174223Y113084D01*
X174179Y113305D01*
X177821Y113305D01*
X177821Y109663D01*
X177600Y109707D01*
G37*
%LPD*%
%LPC*%
G36*
X50600Y109707D02*
X50600Y109707D01*
X49682Y110087D01*
X48857Y110639D01*
X48155Y111341D01*
X47603Y112166D01*
X47223Y113084D01*
X47179Y113305D01*
X50821Y113305D01*
X50821Y109663D01*
X50600Y109707D01*
G37*
%LPD*%
%LPC*%
G36*
X139500Y109707D02*
X139500Y109707D01*
X138582Y110087D01*
X137757Y110639D01*
X137055Y111341D01*
X136503Y112166D01*
X136123Y113084D01*
X136079Y113305D01*
X139721Y113305D01*
X139721Y109663D01*
X139500Y109707D01*
G37*
%LPD*%
%LPC*%
G36*
X152200Y109707D02*
X152200Y109707D01*
X151282Y110087D01*
X150457Y110639D01*
X149755Y111341D01*
X149203Y112166D01*
X148823Y113084D01*
X148779Y113305D01*
X152421Y113305D01*
X152421Y109663D01*
X152200Y109707D01*
G37*
%LPD*%
%LPC*%
G36*
X177600Y97007D02*
X177600Y97007D01*
X176682Y97387D01*
X175857Y97939D01*
X175155Y98641D01*
X174603Y99466D01*
X174223Y100384D01*
X174179Y100605D01*
X177821Y100605D01*
X177821Y96963D01*
X177600Y97007D01*
G37*
%LPD*%
%LPC*%
G36*
X101400Y109707D02*
X101400Y109707D01*
X100482Y110087D01*
X99657Y110639D01*
X98955Y111341D01*
X98403Y112166D01*
X98023Y113084D01*
X97979Y113305D01*
X101621Y113305D01*
X101621Y109663D01*
X101400Y109707D01*
G37*
%LPD*%
%LPC*%
G36*
X63300Y71607D02*
X63300Y71607D01*
X62382Y71987D01*
X61557Y72539D01*
X60855Y73241D01*
X60303Y74066D01*
X59923Y74984D01*
X59879Y75205D01*
X63521Y75205D01*
X63521Y71563D01*
X63300Y71607D01*
G37*
%LPD*%
%LPC*%
G36*
X164900Y71607D02*
X164900Y71607D01*
X163982Y71987D01*
X163157Y72539D01*
X162455Y73241D01*
X161903Y74066D01*
X161523Y74984D01*
X161479Y75205D01*
X165121Y75205D01*
X165121Y71563D01*
X164900Y71607D01*
G37*
%LPD*%
%LPC*%
G36*
X76000Y71607D02*
X76000Y71607D01*
X75082Y71987D01*
X74257Y72539D01*
X73555Y73241D01*
X73003Y74066D01*
X72623Y74984D01*
X72579Y75205D01*
X76221Y75205D01*
X76221Y71563D01*
X76000Y71607D01*
G37*
%LPD*%
%LPC*%
G36*
X76000Y109707D02*
X76000Y109707D01*
X75082Y110087D01*
X74257Y110639D01*
X73555Y111341D01*
X73003Y112166D01*
X72623Y113084D01*
X72579Y113305D01*
X76221Y113305D01*
X76221Y109663D01*
X76000Y109707D01*
G37*
%LPD*%
%LPC*%
G36*
X114100Y109707D02*
X114100Y109707D01*
X113182Y110087D01*
X112357Y110639D01*
X111655Y111341D01*
X111103Y112166D01*
X110723Y113084D01*
X110679Y113305D01*
X114321Y113305D01*
X114321Y109663D01*
X114100Y109707D01*
G37*
%LPD*%
%LPC*%
G36*
X76000Y58907D02*
X76000Y58907D01*
X75082Y59287D01*
X74257Y59839D01*
X73555Y60541D01*
X73003Y61366D01*
X72623Y62284D01*
X72579Y62505D01*
X76221Y62505D01*
X76221Y58863D01*
X76000Y58907D01*
G37*
%LPD*%
%LPC*%
G36*
X203000Y97007D02*
X203000Y97007D01*
X202082Y97387D01*
X201257Y97939D01*
X200555Y98641D01*
X200003Y99466D01*
X199623Y100384D01*
X199579Y100605D01*
X203221Y100605D01*
X203221Y96963D01*
X203000Y97007D01*
G37*
%LPD*%
%LPC*%
G36*
X164900Y58907D02*
X164900Y58907D01*
X163982Y59287D01*
X163157Y59839D01*
X162455Y60541D01*
X161903Y61366D01*
X161523Y62284D01*
X161479Y62505D01*
X165121Y62505D01*
X165121Y58863D01*
X164900Y58907D01*
G37*
%LPD*%
%LPC*%
G36*
X101400Y58907D02*
X101400Y58907D01*
X100482Y59287D01*
X99657Y59839D01*
X98955Y60541D01*
X98403Y61366D01*
X98023Y62284D01*
X97979Y62505D01*
X101621Y62505D01*
X101621Y58863D01*
X101400Y58907D01*
G37*
%LPD*%
%LPC*%
G36*
X63300Y84307D02*
X63300Y84307D01*
X62382Y84687D01*
X61557Y85239D01*
X60855Y85941D01*
X60303Y86766D01*
X59923Y87684D01*
X59879Y87905D01*
X63521Y87905D01*
X63521Y84263D01*
X63300Y84307D01*
G37*
%LPD*%
%LPC*%
G36*
X126800Y58907D02*
X126800Y58907D01*
X125882Y59287D01*
X125057Y59839D01*
X124355Y60541D01*
X123803Y61366D01*
X123423Y62284D01*
X123379Y62505D01*
X127021Y62505D01*
X127021Y58863D01*
X126800Y58907D01*
G37*
%LPD*%
%LPC*%
G36*
X152200Y84307D02*
X152200Y84307D01*
X151282Y84687D01*
X150457Y85239D01*
X149755Y85941D01*
X149203Y86766D01*
X148823Y87684D01*
X148779Y87905D01*
X152421Y87905D01*
X152421Y84263D01*
X152200Y84307D01*
G37*
%LPD*%
%LPC*%
G36*
X139500Y58907D02*
X139500Y58907D01*
X138582Y59287D01*
X137757Y59839D01*
X137055Y60541D01*
X136503Y61366D01*
X136123Y62284D01*
X136079Y62505D01*
X139721Y62505D01*
X139721Y58863D01*
X139500Y58907D01*
G37*
%LPD*%
%LPC*%
G36*
X101400Y84307D02*
X101400Y84307D01*
X100482Y84687D01*
X99657Y85239D01*
X98955Y85941D01*
X98403Y86766D01*
X98023Y87684D01*
X97979Y87905D01*
X101621Y87905D01*
X101621Y84263D01*
X101400Y84307D01*
G37*
%LPD*%
%LPC*%
G36*
X152200Y58907D02*
X152200Y58907D01*
X151282Y59287D01*
X150457Y59839D01*
X149755Y60541D01*
X149203Y61366D01*
X148823Y62284D01*
X148779Y62505D01*
X152421Y62505D01*
X152421Y58863D01*
X152200Y58907D01*
G37*
%LPD*%
%LPC*%
G36*
X164900Y97007D02*
X164900Y97007D01*
X163982Y97387D01*
X163157Y97939D01*
X162455Y98641D01*
X161903Y99466D01*
X161523Y100384D01*
X161479Y100605D01*
X165121Y100605D01*
X165121Y96963D01*
X164900Y97007D01*
G37*
%LPD*%
%LPC*%
G36*
X215700Y97007D02*
X215700Y97007D01*
X214782Y97387D01*
X213957Y97939D01*
X213255Y98641D01*
X212703Y99466D01*
X212323Y100384D01*
X212279Y100605D01*
X215921Y100605D01*
X215921Y96963D01*
X215700Y97007D01*
G37*
%LPD*%
%LPC*%
G36*
X126800Y109707D02*
X126800Y109707D01*
X125882Y110087D01*
X125057Y110639D01*
X124355Y111341D01*
X123803Y112166D01*
X123423Y113084D01*
X123379Y113305D01*
X127021Y113305D01*
X127021Y109663D01*
X126800Y109707D01*
G37*
%LPD*%
%LPC*%
G36*
X114100Y58907D02*
X114100Y58907D01*
X113182Y59287D01*
X112357Y59839D01*
X111655Y60541D01*
X111103Y61366D01*
X110723Y62284D01*
X110679Y62505D01*
X114321Y62505D01*
X114321Y58863D01*
X114100Y58907D01*
G37*
%LPD*%
%LPC*%
G36*
X76000Y97007D02*
X76000Y97007D01*
X75082Y97387D01*
X74257Y97939D01*
X73555Y98641D01*
X73003Y99466D01*
X72623Y100384D01*
X72579Y100605D01*
X76221Y100605D01*
X76221Y96963D01*
X76000Y97007D01*
G37*
%LPD*%
%LPC*%
G36*
X126800Y97007D02*
X126800Y97007D01*
X125882Y97387D01*
X125057Y97939D01*
X124355Y98641D01*
X123803Y99466D01*
X123423Y100384D01*
X123379Y100605D01*
X127021Y100605D01*
X127021Y96963D01*
X126800Y97007D01*
G37*
%LPD*%
%LPC*%
G36*
X164900Y84307D02*
X164900Y84307D01*
X163982Y84687D01*
X163157Y85239D01*
X162455Y85941D01*
X161903Y86766D01*
X161523Y87684D01*
X161479Y87905D01*
X165121Y87905D01*
X165121Y84263D01*
X164900Y84307D01*
G37*
%LPD*%
%LPC*%
G36*
X164900Y147807D02*
X164900Y147807D01*
X163982Y148187D01*
X163157Y148739D01*
X162455Y149441D01*
X161903Y150266D01*
X161523Y151184D01*
X161479Y151405D01*
X165121Y151405D01*
X165121Y147763D01*
X164900Y147807D01*
G37*
%LPD*%
%LPC*%
G36*
X126800Y46207D02*
X126800Y46207D01*
X125882Y46587D01*
X125057Y47139D01*
X124355Y47841D01*
X123803Y48666D01*
X123423Y49584D01*
X123379Y49805D01*
X127021Y49805D01*
X127021Y46163D01*
X126800Y46207D01*
G37*
%LPD*%
%LPC*%
G36*
X76000Y84307D02*
X76000Y84307D01*
X75082Y84687D01*
X74257Y85239D01*
X73555Y85941D01*
X73003Y86766D01*
X72623Y87684D01*
X72579Y87905D01*
X76221Y87905D01*
X76221Y84263D01*
X76000Y84307D01*
G37*
%LPD*%
%LPC*%
G36*
X63300Y97007D02*
X63300Y97007D01*
X62382Y97387D01*
X61557Y97939D01*
X61421Y98074D01*
X60855Y98641D01*
X60832Y98675D01*
X60303Y99466D01*
X59923Y100384D01*
X59879Y100605D01*
X63521Y100605D01*
X63521Y96963D01*
X63300Y97007D01*
G37*
%LPD*%
%LPC*%
G36*
X88700Y58907D02*
X88700Y58907D01*
X87782Y59287D01*
X86957Y59839D01*
X86390Y60405D01*
X86255Y60541D01*
X85703Y61366D01*
X85323Y62284D01*
X85279Y62505D01*
X88921Y62505D01*
X88921Y58863D01*
X88700Y58907D01*
G37*
%LPD*%
%LPC*%
G36*
X27939Y87885D02*
X27939Y87885D01*
X31557Y87885D01*
X31517Y87684D01*
X31137Y86766D01*
X30585Y85941D01*
X29883Y85239D01*
X29058Y84687D01*
X28140Y84307D01*
X27939Y84267D01*
X27939Y87885D01*
G37*
%LPD*%
%LPC*%
G36*
X37900Y84307D02*
X37900Y84307D01*
X36982Y84687D01*
X36157Y85239D01*
X35455Y85941D01*
X34903Y86766D01*
X34523Y87684D01*
X34483Y87885D01*
X38101Y87885D01*
X38101Y84267D01*
X37900Y84307D01*
G37*
%LPD*%
D10*
X26670Y12954D03*
X26670Y25654D03*
X26670Y38354D03*
X26670Y51054D03*
X26670Y63754D03*
X26670Y76454D03*
X26670Y89154D03*
X26670Y101854D03*
X26670Y114554D03*
X26670Y127254D03*
X26670Y139954D03*
X26670Y152654D03*
X26670Y165354D03*
X26670Y178054D03*
X26670Y190754D03*
X26670Y203454D03*
X39370Y12954D03*
X39370Y25654D03*
X39370Y38354D03*
X39370Y51054D03*
X39370Y63754D03*
X39370Y76454D03*
X39370Y89154D03*
X39370Y101854D03*
X39370Y114554D03*
X39370Y127254D03*
X39370Y139954D03*
X39370Y152654D03*
X39370Y165354D03*
X39370Y178054D03*
X39370Y190754D03*
X39370Y203454D03*
X52070Y12954D03*
X52070Y25654D03*
X52070Y38354D03*
X52070Y51054D03*
X52070Y63754D03*
X52070Y76454D03*
X52070Y89154D03*
X52070Y101854D03*
X52070Y114554D03*
X52070Y127254D03*
X52070Y139954D03*
X52070Y152654D03*
X52070Y165354D03*
X52070Y178054D03*
X52070Y190754D03*
X52070Y203454D03*
X64770Y12954D03*
X64770Y25654D03*
X64770Y38354D03*
X64770Y51054D03*
X64770Y63754D03*
X64770Y76454D03*
X64770Y89154D03*
X64770Y101854D03*
X64770Y114554D03*
X64770Y127254D03*
X64770Y139954D03*
X64770Y152654D03*
X64770Y165354D03*
X64770Y178054D03*
X64770Y190754D03*
X64770Y203454D03*
X77470Y12954D03*
X77470Y25654D03*
X77470Y38354D03*
X77470Y51054D03*
X77470Y63754D03*
X77470Y76454D03*
X77470Y89154D03*
X77470Y101854D03*
X77470Y114554D03*
X77470Y127254D03*
X77470Y139954D03*
X77470Y152654D03*
X77470Y165354D03*
X77470Y178054D03*
X77470Y190754D03*
X77470Y203454D03*
X90170Y12954D03*
X90170Y25654D03*
X90170Y38354D03*
X90170Y51054D03*
X90170Y63754D03*
X90170Y76454D03*
X90170Y89154D03*
X90170Y101854D03*
X90170Y114554D03*
X90170Y127254D03*
X90170Y139954D03*
X90170Y152654D03*
X90170Y165354D03*
X90170Y178054D03*
X90170Y190754D03*
X90170Y203454D03*
X102870Y12954D03*
X102870Y25654D03*
X102870Y38354D03*
X102870Y51054D03*
X102870Y63754D03*
X102870Y76454D03*
X102870Y89154D03*
X102870Y101854D03*
X102870Y114554D03*
X102870Y127254D03*
X102870Y139954D03*
X102870Y152654D03*
X102870Y165354D03*
X102870Y178054D03*
X102870Y190754D03*
X102870Y203454D03*
X115570Y12954D03*
X115570Y25654D03*
X115570Y38354D03*
X115570Y51054D03*
X115570Y63754D03*
X115570Y76454D03*
X115570Y89154D03*
X115570Y101854D03*
X115570Y114554D03*
X115570Y127254D03*
X115570Y139954D03*
X115570Y152654D03*
X115570Y165354D03*
X115570Y178054D03*
X115570Y190754D03*
X115570Y203454D03*
X128270Y12954D03*
X128270Y25654D03*
X128270Y38354D03*
X128270Y51054D03*
X128270Y63754D03*
X128270Y76454D03*
X128270Y89154D03*
X128270Y101854D03*
X128270Y114554D03*
X128270Y127254D03*
X128270Y139954D03*
X128270Y152654D03*
X128270Y165354D03*
X128270Y178054D03*
X128270Y190754D03*
X128270Y203454D03*
X140970Y12954D03*
X140970Y25654D03*
X140970Y38354D03*
X140970Y51054D03*
X140970Y63754D03*
X140970Y76454D03*
X140970Y89154D03*
X140970Y101854D03*
X140970Y114554D03*
X140970Y127254D03*
X140970Y139954D03*
X140970Y152654D03*
X140970Y165354D03*
X140970Y178054D03*
X140970Y190754D03*
X140970Y203454D03*
X153670Y12954D03*
X153670Y25654D03*
X153670Y38354D03*
X153670Y51054D03*
X153670Y63754D03*
X153670Y76454D03*
X153670Y89154D03*
X153670Y101854D03*
X153670Y114554D03*
X153670Y127254D03*
X153670Y139954D03*
X153670Y152654D03*
X153670Y165354D03*
X153670Y178054D03*
X153670Y190754D03*
X153670Y203454D03*
X166370Y12954D03*
X166370Y25654D03*
X166370Y38354D03*
X166370Y51054D03*
X166370Y63754D03*
X166370Y76454D03*
X166370Y89154D03*
X166370Y101854D03*
X166370Y114554D03*
X166370Y127254D03*
X166370Y139954D03*
X166370Y152654D03*
X166370Y165354D03*
X166370Y178054D03*
X166370Y190754D03*
X166370Y203454D03*
X179070Y12954D03*
X179070Y25654D03*
X179070Y38354D03*
X179070Y51054D03*
X179070Y63754D03*
X179070Y76454D03*
X179070Y89154D03*
X179070Y101854D03*
X179070Y114554D03*
X179070Y127254D03*
X179070Y139954D03*
X179070Y152654D03*
X179070Y165354D03*
X179070Y178054D03*
X179070Y190754D03*
X179070Y203454D03*
X191770Y12954D03*
X191770Y25654D03*
X191770Y38354D03*
X191770Y51054D03*
X191770Y63754D03*
X191770Y76454D03*
X191770Y89154D03*
X191770Y101854D03*
X191770Y114554D03*
X191770Y127254D03*
X191770Y139954D03*
X191770Y152654D03*
X191770Y165354D03*
X191770Y178054D03*
X191770Y190754D03*
X191770Y203454D03*
X204470Y12954D03*
X204470Y25654D03*
X204470Y38354D03*
X204470Y51054D03*
X204470Y63754D03*
X204470Y76454D03*
X204470Y89154D03*
X204470Y101854D03*
X204470Y114554D03*
X204470Y127254D03*
X204470Y139954D03*
X204470Y152654D03*
X204470Y165354D03*
X204470Y178054D03*
X204470Y190754D03*
X204470Y203454D03*
X217170Y12954D03*
X217170Y25654D03*
X217170Y38354D03*
X217170Y51054D03*
X217170Y63754D03*
X217170Y76454D03*
X217170Y89154D03*
X217170Y101854D03*
X217170Y114554D03*
X217170Y127254D03*
X217170Y139954D03*
X217170Y152654D03*
X217170Y165354D03*
X217170Y178054D03*
X217170Y190754D03*
X217170Y203454D03*
D11*
X289560Y144780D03*
X340360Y144780D03*
X340360Y220980D03*
X289560Y220980D03*
X391160Y144780D03*
X391160Y220980D03*
D12*
X7620Y104220D03*
X7620Y114220D03*
D13*
X64966Y252730D03*
X75966Y252730D03*
X86966Y252730D03*
X97966Y252730D03*
X108966Y252730D03*
X119966Y252730D03*
X130966Y252730D03*
X141966Y252730D03*
X152966Y252730D03*
D14*
X164566Y258730D03*
D15*
X164466Y353730D03*
X9466Y353730D03*
D16*
X18466Y257730D03*
D17*
X223560Y267460D03*
X223560Y287460D03*
X223560Y307460D03*
X223560Y327460D03*
X223560Y347460D03*
X223560Y367460D03*
X223560Y388460D03*
D12*
X208280Y277702D03*
X208280Y287702D03*
D18*
X270256Y11684D03*
X244856Y11684D03*
D19*
X407250Y51006D03*
X407250Y60506D03*
X407250Y70006D03*
X379250Y51006D03*
X379250Y70006D03*
D20*
X492760Y12800D03*
D21*
X492760Y38800D03*
X492760Y62800D03*
D20*
X492760Y88800D03*
D22*
X467260Y81800D03*
X467260Y19800D03*
D23*
X466010Y50800D03*
X466010Y44300D03*
X466010Y63800D03*
X466010Y57300D03*
X466010Y37800D03*
D24*
X337820Y69968D03*
X337820Y52968D03*
D25*
X433460Y71120D03*
X450460Y71120D03*
D26*
X355172Y51054D03*
X365172Y51054D03*
D27*
X457200Y175768D02*
X457200Y189992D01*
X482600Y189992D02*
X482600Y175768D01*
D28*
X484220Y115760D03*
X484220Y151760D03*
D29*
X442220Y128760D03*
X442220Y138760D03*
D30*
X153924Y139954D02*
X140970Y139954D01*
D31*
X102870Y139954D02*
X89916Y139954D01*
D32*
X302260Y220980D03*
X327660Y220980D03*
X327660Y144780D03*
X452120Y53340D03*
X421132Y55118D03*
X348234Y41148D03*
X459994Y147828D03*
X119888Y268224D03*
X238760Y307340D03*
D30*
X226060Y307340D01*
X119888Y259588D02*
X119888Y255524D01*
X33020Y120904D02*
X32766Y120650D01*
X25400Y114300D02*
X7620Y114300D01*
D32*
X286004Y49530D03*
D33*
X147320Y171704D03*
D31*
X147574Y171958D02*
X153670Y178054D01*
D33*
X121920Y159004D03*
X172720Y108204D03*
X121920Y57404D03*
X71120Y108204D03*
X83820Y70104D03*
X160020Y70104D03*
X160020Y146304D03*
X83693Y146304D03*
D31*
X83820Y73152D02*
X83820Y68580D01*
X83820Y146304D02*
X83820Y152400D01*
X119888Y259588D02*
X119888Y268224D01*
X415798Y60452D02*
X421132Y55118D01*
X415798Y60452D02*
X406908Y60452D01*
D30*
X459994Y142494D02*
X459994Y147828D01*
X459994Y142494D02*
X456184Y138684D01*
X442214Y138684D01*
X337820Y52324D02*
X337820Y45720D01*
X342392Y41148D01*
X348234Y41148D01*
X348234Y49022D01*
X350266Y51054D01*
X355092Y51054D01*
D33*
X33020Y120904D03*
X198120Y120904D03*
X210820Y120904D03*
D32*
X121920Y133350D03*
X121920Y95250D03*
X147320Y107950D03*
X96520Y107950D03*
D33*
X14732Y242316D03*
X98044Y267970D03*
D31*
X98044Y260350D01*
D32*
X376428Y220980D03*
D30*
X390144Y220980D01*
D31*
X391414Y220980D02*
X376428Y220980D01*
D33*
X128270Y290830D03*
X90424Y291084D03*
X459994Y128778D03*
D31*
X441960Y128778D01*
D33*
X420878Y70104D03*
D31*
X431292Y69088D02*
X432308Y70104D01*
X420878Y70104D02*
X407416Y70104D01*
X420878Y70104D02*
X432308Y70104D01*
X433578Y71374D01*
D33*
X198120Y95504D03*
X210820Y95504D03*
X185420Y82804D03*
D31*
X179070Y89154D01*
D30*
X275844Y144780D02*
X289560Y144780D01*
X275844Y144780D02*
X271272Y140208D01*
X217932Y140208D01*
D31*
X179070Y139954D02*
X179070Y127254D01*
D30*
X179070Y63500D02*
X179070Y51054D01*
D31*
X179070Y64008D01*
D30*
X166370Y51054D02*
X153670Y51054D01*
D31*
X166624Y51054D01*
X77470Y51054D02*
X64770Y51054D01*
D30*
X64516Y127254D02*
X52070Y127254D01*
D31*
X64770Y127254D01*
D30*
X64770Y139954D02*
X65024Y139954D01*
D31*
X64770Y139954D02*
X52070Y139954D01*
D30*
X39370Y89154D02*
X26670Y89154D01*
X7620Y88900D02*
X7620Y104140D01*
X7620Y88900D02*
X25400Y88900D01*
D32*
X33020Y82804D03*
X33020Y107696D03*
D30*
X27178Y101854D01*
X26924Y101854D01*
D32*
X45466Y197104D03*
X109220Y238252D03*
D34*
X45466Y197104D02*
X40132Y191770D01*
D30*
X109220Y238252D02*
X109220Y246380D01*
D32*
X41910Y212852D03*
X87376Y237744D03*
D34*
X41910Y212852D02*
X39370Y210312D01*
X39370Y203200D01*
D30*
X87376Y237744D02*
X87376Y246888D01*
D34*
X56896Y190500D02*
X51816Y190500D01*
X56896Y190500D02*
X56896Y217932D01*
X76200Y217932D01*
X76200Y248412D01*
D33*
X107696Y273558D03*
D34*
X104902Y276352D01*
X82550Y276352D01*
X76200Y270002D01*
X76200Y252730D01*
X64008Y251460D02*
X64008Y220980D01*
X51816Y220980D01*
X51816Y202692D01*
D33*
X81788Y283464D03*
D34*
X65024Y266700D02*
X65024Y252730D01*
X65024Y266700D02*
X81788Y283464D01*
D32*
X34290Y222758D03*
X131064Y238252D03*
D34*
X34290Y222758D02*
X26670Y215138D01*
X26670Y203454D01*
D30*
X131064Y238252D02*
X131064Y244856D01*
D32*
X33020Y184404D03*
D34*
X27940Y189484D01*
D32*
X142240Y238252D03*
D30*
X142240Y245618D01*
D34*
X59944Y178308D02*
X51816Y178308D01*
X59944Y178308D02*
X59944Y214884D01*
X152400Y214884D01*
X152400Y249936D01*
X150114Y259842D02*
X131826Y278130D01*
D33*
X131826Y278130D03*
D30*
X172720Y197104D02*
X166370Y190754D01*
X172720Y197104D02*
X172720Y213614D01*
X198120Y239014D01*
X198120Y271780D01*
X204216Y277876D01*
X208534Y277876D01*
D33*
X172720Y197104D03*
X203200Y367538D03*
D31*
X223266Y367538D01*
D30*
X153670Y209804D02*
X153670Y203454D01*
X153670Y209804D02*
X187960Y244094D01*
X187960Y332740D01*
X202692Y347472D02*
X223520Y347472D01*
X202692Y347472D02*
X187960Y332740D01*
X160020Y197104D02*
X153670Y190754D01*
X160020Y197104D02*
X160020Y203200D01*
X160020Y203454D02*
X160020Y208534D01*
X193040Y241554D01*
X193040Y317246D01*
X203200Y327406D01*
X210566Y327406D01*
X210820Y327406D02*
X223520Y327406D01*
X223520Y287528D02*
X208280Y287528D01*
X414528Y51054D02*
X421386Y44196D01*
X414528Y51054D02*
X406908Y51054D01*
D33*
X421640Y44196D03*
D30*
X379222Y51054D02*
X364998Y51054D01*
D33*
X441960Y32766D03*
X364236Y70104D03*
X457200Y162306D03*
D35*
X457200Y182880D01*
D31*
X379222Y70104D02*
X364236Y70104D01*
X338328Y70104D01*
X338074Y70358D01*
D35*
X441960Y32766D02*
X447040Y37846D01*
X465836Y37846D01*
D33*
X185420Y70358D03*
D34*
X179070Y76708D01*
M02*
