G04 EAGLE Gerber RS-274X export*
G75*
%MOMM*%
%FSLAX34Y34*%
%LPD*%
%INCopper Layer 2*%
%IPPOS*%
%AMOC8*
5,1,8,0,0,1.08239X$1,22.5*%
G01*
%ADD10C,1.500000*%
%ADD11C,1.524000*%
%ADD12C,1.137919*%
%ADD13C,0.609600*%
%ADD14C,0.654800*%
%ADD15C,1.270000*%

G36*
X178117Y68076D02*
X178117Y68076D01*
X178151Y68074D01*
X178340Y68096D01*
X178531Y68113D01*
X178564Y68122D01*
X178598Y68126D01*
X178781Y68181D01*
X178965Y68231D01*
X178996Y68246D01*
X179029Y68256D01*
X179200Y68343D01*
X179372Y68425D01*
X179400Y68445D01*
X179431Y68460D01*
X179583Y68576D01*
X179738Y68687D01*
X179762Y68712D01*
X179789Y68732D01*
X179918Y68873D01*
X180052Y69009D01*
X180071Y69038D01*
X180095Y69064D01*
X180197Y69225D01*
X180304Y69382D01*
X180318Y69414D01*
X180336Y69443D01*
X180409Y69620D01*
X180486Y69794D01*
X180494Y69828D01*
X180507Y69860D01*
X180547Y70047D01*
X180593Y70232D01*
X180595Y70266D01*
X180602Y70300D01*
X180621Y70612D01*
X180621Y71313D01*
X181352Y73076D01*
X182702Y74426D01*
X184465Y75157D01*
X186375Y75157D01*
X188138Y74426D01*
X189488Y73076D01*
X190219Y71313D01*
X190219Y70612D01*
X190222Y70578D01*
X190220Y70543D01*
X190242Y70354D01*
X190259Y70164D01*
X190268Y70130D01*
X190272Y70096D01*
X190327Y69913D01*
X190377Y69729D01*
X190392Y69698D01*
X190402Y69665D01*
X190489Y69494D01*
X190571Y69323D01*
X190591Y69294D01*
X190606Y69263D01*
X190722Y69111D01*
X190833Y68956D01*
X190858Y68932D01*
X190878Y68905D01*
X191018Y68776D01*
X191155Y68642D01*
X191184Y68623D01*
X191210Y68600D01*
X191371Y68497D01*
X191528Y68390D01*
X191560Y68376D01*
X191589Y68358D01*
X191766Y68285D01*
X191940Y68208D01*
X191974Y68200D01*
X192006Y68187D01*
X192193Y68147D01*
X192378Y68101D01*
X192412Y68099D01*
X192446Y68092D01*
X192758Y68073D01*
X225298Y68073D01*
X225333Y68076D01*
X225367Y68074D01*
X225556Y68096D01*
X225747Y68113D01*
X225780Y68122D01*
X225814Y68126D01*
X225997Y68181D01*
X226181Y68231D01*
X226212Y68246D01*
X226245Y68256D01*
X226416Y68343D01*
X226588Y68425D01*
X226616Y68445D01*
X226647Y68460D01*
X226799Y68576D01*
X226954Y68687D01*
X226978Y68712D01*
X227005Y68732D01*
X227134Y68873D01*
X227268Y69009D01*
X227287Y69038D01*
X227311Y69064D01*
X227413Y69225D01*
X227520Y69382D01*
X227534Y69414D01*
X227552Y69443D01*
X227625Y69620D01*
X227702Y69794D01*
X227710Y69828D01*
X227723Y69860D01*
X227763Y70047D01*
X227809Y70232D01*
X227811Y70266D01*
X227818Y70300D01*
X227837Y70612D01*
X227837Y112268D01*
X227834Y112303D01*
X227836Y112337D01*
X227814Y112526D01*
X227797Y112717D01*
X227788Y112750D01*
X227784Y112784D01*
X227729Y112967D01*
X227679Y113151D01*
X227664Y113182D01*
X227654Y113215D01*
X227567Y113386D01*
X227485Y113558D01*
X227465Y113586D01*
X227450Y113617D01*
X227334Y113769D01*
X227223Y113924D01*
X227198Y113948D01*
X227178Y113975D01*
X227038Y114104D01*
X226901Y114238D01*
X226872Y114257D01*
X226846Y114281D01*
X226685Y114383D01*
X226528Y114490D01*
X226496Y114504D01*
X226467Y114522D01*
X226290Y114595D01*
X226116Y114672D01*
X226082Y114680D01*
X226050Y114693D01*
X225863Y114733D01*
X225678Y114779D01*
X225644Y114781D01*
X225610Y114788D01*
X225298Y114807D01*
X178979Y114807D01*
X178897Y114800D01*
X178815Y114802D01*
X178673Y114780D01*
X178531Y114767D01*
X178451Y114746D01*
X178370Y114733D01*
X178234Y114686D01*
X178096Y114649D01*
X178022Y114613D01*
X177944Y114587D01*
X177819Y114517D01*
X177690Y114455D01*
X177623Y114408D01*
X177551Y114367D01*
X177440Y114277D01*
X177324Y114193D01*
X177266Y114134D01*
X177202Y114082D01*
X177110Y113973D01*
X177010Y113871D01*
X176963Y113802D01*
X176910Y113740D01*
X176838Y113616D01*
X176758Y113498D01*
X176724Y113422D01*
X176683Y113351D01*
X176633Y113217D01*
X176575Y113086D01*
X176556Y113006D01*
X176527Y112928D01*
X176503Y112788D01*
X176469Y112648D01*
X176464Y112566D01*
X176449Y112485D01*
X176450Y112342D01*
X176441Y112199D01*
X176450Y112117D01*
X176451Y112035D01*
X176476Y111894D01*
X176493Y111752D01*
X176517Y111673D01*
X176532Y111592D01*
X176612Y111359D01*
X176623Y111321D01*
X176628Y111311D01*
X176633Y111296D01*
X177519Y109159D01*
X177519Y107249D01*
X176788Y105486D01*
X175438Y104136D01*
X173672Y103404D01*
X173667Y103404D01*
X173478Y103382D01*
X173288Y103365D01*
X173254Y103356D01*
X173220Y103352D01*
X173037Y103297D01*
X172853Y103247D01*
X172822Y103232D01*
X172789Y103222D01*
X172618Y103135D01*
X172447Y103053D01*
X172418Y103033D01*
X172387Y103018D01*
X172235Y102902D01*
X172080Y102791D01*
X172056Y102766D01*
X172029Y102746D01*
X171900Y102606D01*
X171766Y102469D01*
X171747Y102440D01*
X171724Y102414D01*
X171621Y102253D01*
X171514Y102096D01*
X171500Y102064D01*
X171482Y102035D01*
X171409Y101858D01*
X171332Y101684D01*
X171324Y101650D01*
X171311Y101618D01*
X171271Y101431D01*
X171225Y101246D01*
X171223Y101212D01*
X171216Y101178D01*
X171197Y100866D01*
X171197Y70612D01*
X171200Y70578D01*
X171198Y70543D01*
X171220Y70354D01*
X171237Y70164D01*
X171246Y70130D01*
X171250Y70096D01*
X171305Y69913D01*
X171355Y69729D01*
X171370Y69698D01*
X171380Y69665D01*
X171467Y69494D01*
X171549Y69323D01*
X171569Y69294D01*
X171584Y69263D01*
X171700Y69111D01*
X171811Y68956D01*
X171836Y68932D01*
X171856Y68905D01*
X171997Y68776D01*
X172133Y68642D01*
X172162Y68623D01*
X172188Y68600D01*
X172349Y68497D01*
X172506Y68390D01*
X172538Y68376D01*
X172567Y68358D01*
X172744Y68285D01*
X172918Y68208D01*
X172952Y68200D01*
X172984Y68187D01*
X173171Y68147D01*
X173356Y68101D01*
X173390Y68099D01*
X173424Y68092D01*
X173736Y68073D01*
X178082Y68073D01*
X178117Y68076D01*
G37*
D10*
X289560Y144780D03*
X340360Y144780D03*
X340360Y220980D03*
X289560Y220980D03*
X391160Y144780D03*
X391160Y220980D03*
D11*
X270256Y11684D03*
X244856Y11684D03*
D12*
X457200Y182880D03*
X482600Y182880D03*
D13*
X302260Y220980D03*
X327660Y220980D03*
X327660Y144780D03*
X452120Y53340D03*
X421132Y55118D03*
X348234Y41148D03*
X459994Y147828D03*
X119888Y268224D03*
X238760Y307340D03*
X286004Y49530D03*
D14*
X147320Y171704D03*
X121920Y159004D03*
X172720Y108204D03*
X121920Y57404D03*
X71120Y108204D03*
X83820Y70104D03*
X160020Y70104D03*
X160020Y146304D03*
X83693Y146304D03*
X33020Y120904D03*
X198120Y120904D03*
X210820Y120904D03*
D13*
X121920Y133350D03*
X121920Y95250D03*
X147320Y107950D03*
X96520Y107950D03*
D14*
X14732Y242316D03*
X98044Y267970D03*
D13*
X376428Y220980D03*
D15*
X316484Y161036D01*
X159766Y161036D01*
D14*
X128270Y290830D03*
X90424Y291084D03*
X459994Y128778D03*
X420878Y70104D03*
D15*
X459994Y108966D02*
X459994Y128778D01*
X459994Y108966D02*
X420878Y69850D01*
D14*
X198120Y95504D03*
X210820Y95504D03*
D15*
X397256Y69850D02*
X420878Y69850D01*
X397256Y69850D02*
X366014Y101092D01*
X224282Y101092D01*
D14*
X185420Y82804D03*
D13*
X33020Y82804D03*
X33020Y107696D03*
X45466Y197104D03*
X109220Y238252D03*
X41910Y212852D03*
X87376Y237744D03*
D14*
X107696Y273558D03*
X81788Y283464D03*
D13*
X34290Y222758D03*
X131064Y238252D03*
X33020Y184404D03*
X142240Y238252D03*
D14*
X131826Y278130D03*
X172720Y197104D03*
X203200Y367538D03*
D15*
X172720Y337058D01*
X172720Y195580D01*
D14*
X421640Y44196D03*
X441960Y32766D03*
X364236Y70104D03*
X457200Y162306D03*
D15*
X471932Y162306D01*
X482600Y151638D01*
X482600Y52070D01*
X463296Y32766D01*
X441706Y32766D01*
X430784Y21844D01*
X380492Y21844D01*
X364490Y37846D01*
X364490Y69596D01*
D14*
X185420Y70358D03*
M02*
