G04 EAGLE Gerber RS-274X export*
G75*
%MOMM*%
%FSLAX34Y34*%
%LPD*%
%IN*%
%IPPOS*%
%AMOC8*
5,1,8,0,0,1.08239X$1,22.5*%
G01*
%ADD10C,0.254000*%


D10*
X0Y0D02*
X508000Y0D01*
X508000Y406400D01*
X0Y406400D01*
X0Y0D01*
X411060Y145089D02*
X411129Y145703D01*
X411267Y146305D01*
X411471Y146888D01*
X411739Y147445D01*
X412067Y147968D01*
X412453Y148451D01*
X412889Y148888D01*
X413372Y149273D01*
X413895Y149601D01*
X414452Y149869D01*
X415035Y150073D01*
X415637Y150211D01*
X416251Y150280D01*
X416869Y150280D01*
X417483Y150211D01*
X418085Y150073D01*
X418668Y149869D01*
X419225Y149601D01*
X419748Y149273D01*
X420231Y148888D01*
X420668Y148451D01*
X421053Y147968D01*
X421381Y147445D01*
X421649Y146888D01*
X421853Y146305D01*
X421991Y145703D01*
X422060Y145089D01*
X422060Y144471D01*
X421991Y143857D01*
X421853Y143255D01*
X421649Y142672D01*
X421381Y142115D01*
X421053Y141592D01*
X420668Y141109D01*
X420231Y140673D01*
X419748Y140287D01*
X419225Y139959D01*
X418668Y139691D01*
X418085Y139487D01*
X417483Y139349D01*
X416869Y139280D01*
X416251Y139280D01*
X415637Y139349D01*
X415035Y139487D01*
X414452Y139691D01*
X413895Y139959D01*
X413372Y140287D01*
X412889Y140673D01*
X412453Y141109D01*
X412067Y141592D01*
X411739Y142115D01*
X411471Y142672D01*
X411267Y143255D01*
X411129Y143857D01*
X411060Y144471D01*
X411060Y145089D01*
X258660Y221289D02*
X258729Y221903D01*
X258867Y222505D01*
X259071Y223088D01*
X259339Y223645D01*
X259667Y224168D01*
X260053Y224651D01*
X260489Y225088D01*
X260972Y225473D01*
X261495Y225801D01*
X262052Y226069D01*
X262635Y226273D01*
X263237Y226411D01*
X263851Y226480D01*
X264469Y226480D01*
X265083Y226411D01*
X265685Y226273D01*
X266268Y226069D01*
X266825Y225801D01*
X267348Y225473D01*
X267831Y225088D01*
X268268Y224651D01*
X268653Y224168D01*
X268981Y223645D01*
X269249Y223088D01*
X269453Y222505D01*
X269591Y221903D01*
X269660Y221289D01*
X269660Y220671D01*
X269591Y220057D01*
X269453Y219455D01*
X269249Y218872D01*
X268981Y218315D01*
X268653Y217792D01*
X268268Y217309D01*
X267831Y216873D01*
X267348Y216487D01*
X266825Y216159D01*
X266268Y215891D01*
X265685Y215687D01*
X265083Y215549D01*
X264469Y215480D01*
X263851Y215480D01*
X263237Y215549D01*
X262635Y215687D01*
X262052Y215891D01*
X261495Y216159D01*
X260972Y216487D01*
X260489Y216873D01*
X260053Y217309D01*
X259667Y217792D01*
X259339Y218315D01*
X259071Y218872D01*
X258867Y219455D01*
X258729Y220057D01*
X258660Y220671D01*
X258660Y221289D01*
X136747Y362730D02*
X137305Y362667D01*
X137852Y362542D01*
X138382Y362357D01*
X138888Y362113D01*
X139364Y361814D01*
X139803Y361464D01*
X140200Y361067D01*
X140550Y360628D01*
X140849Y360152D01*
X141093Y359646D01*
X141278Y359116D01*
X141403Y358569D01*
X141466Y358011D01*
X141466Y357449D01*
X141403Y356891D01*
X141278Y356344D01*
X141093Y355814D01*
X140849Y355308D01*
X140550Y354832D01*
X140200Y354393D01*
X139803Y353996D01*
X139364Y353646D01*
X138888Y353347D01*
X138382Y353103D01*
X137852Y352918D01*
X137305Y352793D01*
X136747Y352730D01*
X136185Y352730D01*
X135627Y352793D01*
X135080Y352918D01*
X134550Y353103D01*
X134044Y353347D01*
X133568Y353646D01*
X133129Y353996D01*
X132732Y354393D01*
X132382Y354832D01*
X132083Y355308D01*
X131839Y355814D01*
X131654Y356344D01*
X131529Y356891D01*
X131466Y357449D01*
X131466Y358011D01*
X131529Y358569D01*
X131654Y359116D01*
X131839Y359646D01*
X132083Y360152D01*
X132382Y360628D01*
X132732Y361067D01*
X133129Y361464D01*
X133568Y361814D01*
X134044Y362113D01*
X134550Y362357D01*
X135080Y362542D01*
X135627Y362667D01*
X136185Y362730D01*
X136747Y362730D01*
X56747Y362730D02*
X57305Y362667D01*
X57852Y362542D01*
X58382Y362357D01*
X58888Y362113D01*
X59364Y361814D01*
X59803Y361464D01*
X60200Y361067D01*
X60550Y360628D01*
X60849Y360152D01*
X61093Y359646D01*
X61278Y359116D01*
X61403Y358569D01*
X61466Y358011D01*
X61466Y357449D01*
X61403Y356891D01*
X61278Y356344D01*
X61093Y355814D01*
X60849Y355308D01*
X60550Y354832D01*
X60200Y354393D01*
X59803Y353996D01*
X59364Y353646D01*
X58888Y353347D01*
X58382Y353103D01*
X57852Y352918D01*
X57305Y352793D01*
X56747Y352730D01*
X56185Y352730D01*
X55627Y352793D01*
X55080Y352918D01*
X54550Y353103D01*
X54044Y353347D01*
X53568Y353646D01*
X53129Y353996D01*
X52732Y354393D01*
X52382Y354832D01*
X52083Y355308D01*
X51839Y355814D01*
X51654Y356344D01*
X51529Y356891D01*
X51466Y357449D01*
X51466Y358011D01*
X51529Y358569D01*
X51654Y359116D01*
X51839Y359646D01*
X52083Y360152D01*
X52382Y360628D01*
X52732Y361067D01*
X53129Y361464D01*
X53568Y361814D01*
X54044Y362113D01*
X54550Y362357D01*
X55080Y362542D01*
X55627Y362667D01*
X56185Y362730D01*
X56747Y362730D01*
M02*
