G04 EAGLE Gerber RS-274X export*
G75*
%MOMM*%
%FSLAX34Y34*%
%LPD*%
%INSilkscreen Top*%
%IPPOS*%
%AMOC8*
5,1,8,0,0,1.08239X$1,22.5*%
G01*
%ADD10C,0.127000*%
%ADD11C,0.076200*%
%ADD12C,0.203200*%
%ADD13C,0.101600*%
%ADD14C,0.038100*%
%ADD15C,0.025400*%
%ADD16C,0.152400*%


D10*
X227320Y213604D02*
X17320Y213604D01*
X17320Y3604D01*
X227320Y3604D01*
X227320Y213604D01*
D11*
X26670Y1143D02*
X24892Y-4191D01*
X28448Y-4191D02*
X26670Y1143D01*
X28004Y-2858D02*
X25337Y-2858D01*
X217170Y-4191D02*
X217170Y1143D01*
X215688Y1143D02*
X218652Y1143D01*
X14647Y15621D02*
X13166Y14436D01*
X14647Y15621D02*
X14647Y10287D01*
X13166Y10287D02*
X16129Y10287D01*
X7679Y204936D02*
X9161Y206121D01*
X9161Y200787D01*
X7679Y200787D02*
X10643Y200787D01*
X13166Y203750D02*
X14944Y203750D01*
X15010Y203748D01*
X15077Y203743D01*
X15142Y203733D01*
X15208Y203720D01*
X15272Y203704D01*
X15335Y203684D01*
X15397Y203660D01*
X15458Y203633D01*
X15517Y203602D01*
X15574Y203568D01*
X15630Y203531D01*
X15683Y203491D01*
X15734Y203449D01*
X15782Y203403D01*
X15828Y203355D01*
X15870Y203304D01*
X15910Y203251D01*
X15947Y203195D01*
X15981Y203138D01*
X16012Y203079D01*
X16039Y203018D01*
X16063Y202956D01*
X16083Y202893D01*
X16099Y202829D01*
X16112Y202763D01*
X16122Y202698D01*
X16127Y202631D01*
X16129Y202565D01*
X16129Y202269D01*
X16127Y202193D01*
X16121Y202117D01*
X16111Y202041D01*
X16098Y201966D01*
X16080Y201892D01*
X16059Y201818D01*
X16034Y201746D01*
X16005Y201676D01*
X15973Y201606D01*
X15937Y201539D01*
X15897Y201474D01*
X15855Y201410D01*
X15809Y201349D01*
X15760Y201291D01*
X15708Y201235D01*
X15654Y201181D01*
X15596Y201131D01*
X15537Y201084D01*
X15474Y201039D01*
X15410Y200998D01*
X15344Y200961D01*
X15275Y200927D01*
X15205Y200896D01*
X15134Y200869D01*
X15061Y200846D01*
X14987Y200827D01*
X14913Y200811D01*
X14837Y200799D01*
X14761Y200791D01*
X14685Y200787D01*
X14609Y200787D01*
X14533Y200791D01*
X14457Y200799D01*
X14381Y200811D01*
X14307Y200827D01*
X14233Y200846D01*
X14160Y200869D01*
X14089Y200896D01*
X14019Y200927D01*
X13950Y200961D01*
X13884Y200998D01*
X13820Y201039D01*
X13757Y201084D01*
X13698Y201131D01*
X13640Y201181D01*
X13586Y201235D01*
X13534Y201291D01*
X13485Y201349D01*
X13439Y201410D01*
X13397Y201474D01*
X13357Y201539D01*
X13321Y201606D01*
X13289Y201676D01*
X13260Y201746D01*
X13235Y201818D01*
X13214Y201892D01*
X13196Y201966D01*
X13183Y202041D01*
X13173Y202117D01*
X13167Y202193D01*
X13165Y202269D01*
X13166Y202269D02*
X13166Y203750D01*
X13165Y203750D02*
X13167Y203845D01*
X13173Y203941D01*
X13182Y204036D01*
X13196Y204130D01*
X13213Y204224D01*
X13234Y204317D01*
X13259Y204410D01*
X13287Y204501D01*
X13319Y204591D01*
X13355Y204679D01*
X13394Y204766D01*
X13437Y204852D01*
X13483Y204935D01*
X13532Y205017D01*
X13585Y205097D01*
X13641Y205174D01*
X13699Y205250D01*
X13761Y205322D01*
X13826Y205392D01*
X13894Y205460D01*
X13964Y205525D01*
X14036Y205587D01*
X14112Y205645D01*
X14189Y205701D01*
X14269Y205754D01*
X14350Y205803D01*
X14434Y205849D01*
X14520Y205892D01*
X14607Y205931D01*
X14695Y205967D01*
X14785Y205999D01*
X14876Y206027D01*
X14969Y206052D01*
X15062Y206073D01*
X15156Y206090D01*
X15250Y206104D01*
X15345Y206113D01*
X15440Y206119D01*
X15536Y206121D01*
D12*
X370009Y243881D02*
X426909Y243881D01*
X370009Y243881D02*
X253811Y243881D01*
X253811Y121879D01*
X370009Y121879D01*
X426909Y121879D01*
X426909Y243881D01*
X370009Y243881D02*
X370009Y121879D01*
X353060Y229870D02*
X370009Y243881D01*
X353060Y229870D02*
X353060Y135890D01*
X370009Y121879D01*
X267970Y229870D02*
X253811Y243881D01*
X267970Y229870D02*
X267970Y135890D01*
X253811Y121879D01*
X267970Y135890D02*
X353060Y135890D01*
X353060Y229870D02*
X267970Y229870D01*
X376961Y182880D02*
X376965Y183228D01*
X376978Y183577D01*
X376999Y183925D01*
X377029Y184272D01*
X377068Y184618D01*
X377115Y184963D01*
X377170Y185307D01*
X377234Y185650D01*
X377306Y185991D01*
X377387Y186330D01*
X377475Y186667D01*
X377572Y187002D01*
X377678Y187334D01*
X377791Y187663D01*
X377912Y187990D01*
X378042Y188314D01*
X378179Y188634D01*
X378324Y188951D01*
X378477Y189264D01*
X378638Y189573D01*
X378806Y189879D01*
X378981Y190180D01*
X379164Y190476D01*
X379354Y190769D01*
X379551Y191056D01*
X379755Y191338D01*
X379966Y191616D01*
X380184Y191888D01*
X380408Y192154D01*
X380639Y192415D01*
X380876Y192671D01*
X381120Y192920D01*
X381369Y193164D01*
X381625Y193401D01*
X381886Y193632D01*
X382152Y193856D01*
X382424Y194074D01*
X382702Y194285D01*
X382984Y194489D01*
X383271Y194686D01*
X383564Y194876D01*
X383860Y195059D01*
X384161Y195234D01*
X384467Y195402D01*
X384776Y195563D01*
X385089Y195716D01*
X385406Y195861D01*
X385726Y195998D01*
X386050Y196128D01*
X386377Y196249D01*
X386706Y196362D01*
X387038Y196468D01*
X387373Y196565D01*
X387710Y196653D01*
X388049Y196734D01*
X388390Y196806D01*
X388733Y196870D01*
X389077Y196925D01*
X389422Y196972D01*
X389768Y197011D01*
X390115Y197041D01*
X390463Y197062D01*
X390812Y197075D01*
X391160Y197079D01*
X391508Y197075D01*
X391857Y197062D01*
X392205Y197041D01*
X392552Y197011D01*
X392898Y196972D01*
X393243Y196925D01*
X393587Y196870D01*
X393930Y196806D01*
X394271Y196734D01*
X394610Y196653D01*
X394947Y196565D01*
X395282Y196468D01*
X395614Y196362D01*
X395943Y196249D01*
X396270Y196128D01*
X396594Y195998D01*
X396914Y195861D01*
X397231Y195716D01*
X397544Y195563D01*
X397853Y195402D01*
X398159Y195234D01*
X398460Y195059D01*
X398756Y194876D01*
X399049Y194686D01*
X399336Y194489D01*
X399618Y194285D01*
X399896Y194074D01*
X400168Y193856D01*
X400434Y193632D01*
X400695Y193401D01*
X400951Y193164D01*
X401200Y192920D01*
X401444Y192671D01*
X401681Y192415D01*
X401912Y192154D01*
X402136Y191888D01*
X402354Y191616D01*
X402565Y191338D01*
X402769Y191056D01*
X402966Y190769D01*
X403156Y190476D01*
X403339Y190180D01*
X403514Y189879D01*
X403682Y189573D01*
X403843Y189264D01*
X403996Y188951D01*
X404141Y188634D01*
X404278Y188314D01*
X404408Y187990D01*
X404529Y187663D01*
X404642Y187334D01*
X404748Y187002D01*
X404845Y186667D01*
X404933Y186330D01*
X405014Y185991D01*
X405086Y185650D01*
X405150Y185307D01*
X405205Y184963D01*
X405252Y184618D01*
X405291Y184272D01*
X405321Y183925D01*
X405342Y183577D01*
X405355Y183228D01*
X405359Y182880D01*
X405355Y182532D01*
X405342Y182183D01*
X405321Y181835D01*
X405291Y181488D01*
X405252Y181142D01*
X405205Y180797D01*
X405150Y180453D01*
X405086Y180110D01*
X405014Y179769D01*
X404933Y179430D01*
X404845Y179093D01*
X404748Y178758D01*
X404642Y178426D01*
X404529Y178097D01*
X404408Y177770D01*
X404278Y177446D01*
X404141Y177126D01*
X403996Y176809D01*
X403843Y176496D01*
X403682Y176187D01*
X403514Y175881D01*
X403339Y175580D01*
X403156Y175284D01*
X402966Y174991D01*
X402769Y174704D01*
X402565Y174422D01*
X402354Y174144D01*
X402136Y173872D01*
X401912Y173606D01*
X401681Y173345D01*
X401444Y173089D01*
X401200Y172840D01*
X400951Y172596D01*
X400695Y172359D01*
X400434Y172128D01*
X400168Y171904D01*
X399896Y171686D01*
X399618Y171475D01*
X399336Y171271D01*
X399049Y171074D01*
X398756Y170884D01*
X398460Y170701D01*
X398159Y170526D01*
X397853Y170358D01*
X397544Y170197D01*
X397231Y170044D01*
X396914Y169899D01*
X396594Y169762D01*
X396270Y169632D01*
X395943Y169511D01*
X395614Y169398D01*
X395282Y169292D01*
X394947Y169195D01*
X394610Y169107D01*
X394271Y169026D01*
X393930Y168954D01*
X393587Y168890D01*
X393243Y168835D01*
X392898Y168788D01*
X392552Y168749D01*
X392205Y168719D01*
X391857Y168698D01*
X391508Y168685D01*
X391160Y168681D01*
X390812Y168685D01*
X390463Y168698D01*
X390115Y168719D01*
X389768Y168749D01*
X389422Y168788D01*
X389077Y168835D01*
X388733Y168890D01*
X388390Y168954D01*
X388049Y169026D01*
X387710Y169107D01*
X387373Y169195D01*
X387038Y169292D01*
X386706Y169398D01*
X386377Y169511D01*
X386050Y169632D01*
X385726Y169762D01*
X385406Y169899D01*
X385089Y170044D01*
X384776Y170197D01*
X384467Y170358D01*
X384161Y170526D01*
X383860Y170701D01*
X383564Y170884D01*
X383271Y171074D01*
X382984Y171271D01*
X382702Y171475D01*
X382424Y171686D01*
X382152Y171904D01*
X381886Y172128D01*
X381625Y172359D01*
X381369Y172596D01*
X381120Y172840D01*
X380876Y173089D01*
X380639Y173345D01*
X380408Y173606D01*
X380184Y173872D01*
X379966Y174144D01*
X379755Y174422D01*
X379551Y174704D01*
X379354Y174991D01*
X379164Y175284D01*
X378981Y175580D01*
X378806Y175881D01*
X378638Y176187D01*
X378477Y176496D01*
X378324Y176809D01*
X378179Y177126D01*
X378042Y177446D01*
X377912Y177770D01*
X377791Y178097D01*
X377678Y178426D01*
X377572Y178758D01*
X377475Y179093D01*
X377387Y179430D01*
X377306Y179769D01*
X377234Y180110D01*
X377170Y180453D01*
X377115Y180797D01*
X377068Y181142D01*
X377029Y181488D01*
X376999Y181835D01*
X376978Y182183D01*
X376965Y182532D01*
X376961Y182880D01*
D11*
X243487Y237730D02*
X243485Y237652D01*
X243480Y237574D01*
X243470Y237497D01*
X243457Y237420D01*
X243441Y237344D01*
X243421Y237269D01*
X243397Y237195D01*
X243370Y237122D01*
X243339Y237050D01*
X243305Y236980D01*
X243268Y236912D01*
X243227Y236845D01*
X243183Y236780D01*
X243137Y236718D01*
X243087Y236658D01*
X243035Y236600D01*
X242980Y236545D01*
X242922Y236493D01*
X242862Y236443D01*
X242800Y236397D01*
X242735Y236353D01*
X242669Y236312D01*
X242600Y236275D01*
X242530Y236241D01*
X242458Y236210D01*
X242385Y236183D01*
X242311Y236159D01*
X242236Y236139D01*
X242160Y236123D01*
X242083Y236110D01*
X242006Y236100D01*
X241928Y236095D01*
X241850Y236093D01*
X241736Y236095D01*
X241623Y236100D01*
X241509Y236110D01*
X241396Y236123D01*
X241284Y236140D01*
X241172Y236160D01*
X241061Y236184D01*
X240950Y236212D01*
X240841Y236243D01*
X240733Y236278D01*
X240626Y236317D01*
X240520Y236359D01*
X240416Y236404D01*
X240313Y236453D01*
X240212Y236506D01*
X240113Y236561D01*
X240015Y236620D01*
X239920Y236682D01*
X239827Y236747D01*
X239735Y236815D01*
X239647Y236886D01*
X239560Y236960D01*
X239476Y237037D01*
X239395Y237116D01*
X239599Y241822D02*
X239601Y241900D01*
X239606Y241978D01*
X239616Y242055D01*
X239629Y242132D01*
X239645Y242208D01*
X239665Y242283D01*
X239689Y242357D01*
X239716Y242430D01*
X239747Y242502D01*
X239781Y242572D01*
X239818Y242641D01*
X239859Y242707D01*
X239903Y242772D01*
X239949Y242834D01*
X239999Y242894D01*
X240051Y242952D01*
X240106Y243007D01*
X240164Y243059D01*
X240224Y243109D01*
X240286Y243155D01*
X240351Y243199D01*
X240418Y243240D01*
X240486Y243277D01*
X240556Y243311D01*
X240628Y243342D01*
X240701Y243369D01*
X240775Y243393D01*
X240850Y243413D01*
X240926Y243429D01*
X241003Y243442D01*
X241080Y243452D01*
X241158Y243457D01*
X241236Y243459D01*
X241346Y243457D01*
X241455Y243451D01*
X241565Y243441D01*
X241673Y243428D01*
X241782Y243410D01*
X241889Y243389D01*
X241996Y243363D01*
X242102Y243334D01*
X242207Y243302D01*
X242310Y243265D01*
X242412Y243225D01*
X242513Y243181D01*
X242612Y243133D01*
X242709Y243083D01*
X242804Y243028D01*
X242897Y242970D01*
X242988Y242909D01*
X243077Y242845D01*
X240418Y240389D02*
X240351Y240431D01*
X240286Y240475D01*
X240224Y240523D01*
X240164Y240573D01*
X240106Y240626D01*
X240051Y240682D01*
X239999Y240741D01*
X239949Y240801D01*
X239902Y240865D01*
X239859Y240930D01*
X239818Y240997D01*
X239781Y241066D01*
X239747Y241137D01*
X239716Y241209D01*
X239689Y241283D01*
X239665Y241357D01*
X239645Y241433D01*
X239629Y241510D01*
X239616Y241587D01*
X239606Y241665D01*
X239601Y241744D01*
X239599Y241822D01*
X242669Y239162D02*
X242735Y239120D01*
X242800Y239076D01*
X242862Y239029D01*
X242922Y238978D01*
X242980Y238925D01*
X243035Y238869D01*
X243088Y238811D01*
X243137Y238750D01*
X243184Y238687D01*
X243227Y238622D01*
X243268Y238555D01*
X243305Y238486D01*
X243339Y238415D01*
X243370Y238343D01*
X243397Y238269D01*
X243421Y238194D01*
X243441Y238119D01*
X243457Y238042D01*
X243470Y237965D01*
X243480Y237887D01*
X243485Y237808D01*
X243487Y237730D01*
X242669Y239162D02*
X240418Y240390D01*
X246466Y241822D02*
X248512Y243459D01*
X248512Y236093D01*
X246466Y236093D02*
X250559Y236093D01*
D13*
X6774Y120142D02*
X5193Y120142D01*
X5115Y120144D01*
X5038Y120150D01*
X4961Y120159D01*
X4885Y120172D01*
X4809Y120189D01*
X4734Y120210D01*
X4661Y120234D01*
X4588Y120262D01*
X4517Y120294D01*
X4448Y120329D01*
X4381Y120367D01*
X4315Y120408D01*
X4252Y120453D01*
X4191Y120501D01*
X4132Y120551D01*
X4076Y120605D01*
X4022Y120661D01*
X3972Y120720D01*
X3924Y120781D01*
X3879Y120844D01*
X3838Y120910D01*
X3800Y120977D01*
X3765Y121046D01*
X3733Y121117D01*
X3705Y121190D01*
X3681Y121263D01*
X3660Y121338D01*
X3643Y121414D01*
X3630Y121490D01*
X3621Y121567D01*
X3615Y121644D01*
X3613Y121722D01*
X3613Y125674D01*
X3615Y125752D01*
X3621Y125829D01*
X3630Y125906D01*
X3643Y125982D01*
X3660Y126058D01*
X3681Y126133D01*
X3705Y126206D01*
X3733Y126279D01*
X3765Y126350D01*
X3800Y126419D01*
X3838Y126486D01*
X3879Y126552D01*
X3924Y126615D01*
X3972Y126676D01*
X4022Y126735D01*
X4076Y126791D01*
X4132Y126845D01*
X4191Y126895D01*
X4252Y126943D01*
X4315Y126988D01*
X4381Y127029D01*
X4448Y127067D01*
X4517Y127102D01*
X4588Y127134D01*
X4661Y127162D01*
X4734Y127186D01*
X4809Y127207D01*
X4885Y127224D01*
X4961Y127237D01*
X5038Y127246D01*
X5115Y127252D01*
X5193Y127254D01*
X6774Y127254D01*
X9736Y125674D02*
X11712Y127254D01*
X11712Y120142D01*
X13687Y120142D02*
X9736Y120142D01*
D10*
X11176Y264160D02*
X11176Y402590D01*
X36487Y402590D01*
X37168Y402582D01*
X37849Y402557D01*
X38529Y402516D01*
X39208Y402458D01*
X39886Y402384D01*
X40561Y402293D01*
X41234Y402186D01*
X41905Y402063D01*
X42572Y401923D01*
X43235Y401767D01*
X43895Y401595D01*
X44550Y401408D01*
X45200Y401204D01*
X45846Y400985D01*
X46486Y400750D01*
X49379Y399688D01*
X52296Y398696D01*
X55237Y397776D01*
X58200Y396927D01*
X61182Y396151D01*
X64182Y395446D01*
X67198Y394815D01*
X70229Y394258D01*
X73272Y393774D01*
X76326Y393364D01*
X79389Y393028D01*
X82460Y392766D01*
X85536Y392580D01*
X88615Y392467D01*
X91697Y392430D01*
X161036Y392430D01*
X161036Y252730D01*
X25146Y252730D01*
X25146Y264160D01*
X11176Y264160D01*
D11*
X166022Y395365D02*
X166022Y400685D01*
X166022Y395365D02*
X166024Y395276D01*
X166030Y395187D01*
X166040Y395098D01*
X166053Y395010D01*
X166070Y394922D01*
X166092Y394835D01*
X166117Y394750D01*
X166145Y394665D01*
X166178Y394582D01*
X166214Y394500D01*
X166253Y394420D01*
X166296Y394342D01*
X166342Y394266D01*
X166392Y394191D01*
X166445Y394119D01*
X166501Y394050D01*
X166560Y393983D01*
X166621Y393918D01*
X166686Y393857D01*
X166753Y393798D01*
X166822Y393742D01*
X166894Y393689D01*
X166969Y393639D01*
X167045Y393593D01*
X167123Y393550D01*
X167203Y393511D01*
X167285Y393475D01*
X167368Y393442D01*
X167453Y393414D01*
X167538Y393389D01*
X167625Y393367D01*
X167713Y393350D01*
X167801Y393337D01*
X167890Y393327D01*
X167979Y393321D01*
X168068Y393319D01*
X168157Y393321D01*
X168246Y393327D01*
X168335Y393337D01*
X168423Y393350D01*
X168511Y393367D01*
X168598Y393389D01*
X168683Y393414D01*
X168768Y393442D01*
X168851Y393475D01*
X168933Y393511D01*
X169013Y393550D01*
X169091Y393593D01*
X169167Y393639D01*
X169242Y393689D01*
X169314Y393742D01*
X169383Y393798D01*
X169450Y393857D01*
X169515Y393918D01*
X169576Y393983D01*
X169635Y394050D01*
X169691Y394119D01*
X169744Y394191D01*
X169794Y394266D01*
X169840Y394342D01*
X169883Y394420D01*
X169922Y394500D01*
X169958Y394582D01*
X169991Y394665D01*
X170019Y394750D01*
X170044Y394835D01*
X170066Y394922D01*
X170083Y395010D01*
X170096Y395098D01*
X170106Y395187D01*
X170112Y395276D01*
X170114Y395365D01*
X170114Y400685D01*
X175832Y400686D02*
X175917Y400684D01*
X176002Y400678D01*
X176086Y400668D01*
X176170Y400655D01*
X176254Y400637D01*
X176336Y400616D01*
X176417Y400591D01*
X176497Y400562D01*
X176576Y400529D01*
X176653Y400493D01*
X176728Y400453D01*
X176802Y400410D01*
X176873Y400364D01*
X176942Y400314D01*
X177009Y400261D01*
X177073Y400205D01*
X177134Y400146D01*
X177193Y400085D01*
X177249Y400021D01*
X177302Y399954D01*
X177352Y399885D01*
X177398Y399814D01*
X177441Y399740D01*
X177481Y399665D01*
X177517Y399588D01*
X177550Y399509D01*
X177579Y399429D01*
X177604Y399348D01*
X177625Y399266D01*
X177643Y399182D01*
X177656Y399098D01*
X177666Y399014D01*
X177672Y398929D01*
X177674Y398844D01*
X175832Y400685D02*
X175736Y400683D01*
X175640Y400677D01*
X175545Y400667D01*
X175450Y400654D01*
X175355Y400636D01*
X175262Y400615D01*
X175169Y400590D01*
X175078Y400561D01*
X174987Y400529D01*
X174898Y400493D01*
X174811Y400453D01*
X174725Y400410D01*
X174641Y400364D01*
X174559Y400314D01*
X174479Y400260D01*
X174402Y400204D01*
X174327Y400144D01*
X174254Y400082D01*
X174184Y400016D01*
X174116Y399948D01*
X174051Y399877D01*
X173990Y399804D01*
X173931Y399728D01*
X173875Y399649D01*
X173823Y399569D01*
X173774Y399486D01*
X173728Y399402D01*
X173686Y399316D01*
X173648Y399228D01*
X173613Y399139D01*
X173581Y399048D01*
X177059Y397412D02*
X177119Y397471D01*
X177176Y397533D01*
X177231Y397597D01*
X177282Y397664D01*
X177331Y397733D01*
X177377Y397803D01*
X177420Y397876D01*
X177460Y397950D01*
X177496Y398026D01*
X177529Y398104D01*
X177559Y398183D01*
X177586Y398263D01*
X177609Y398344D01*
X177628Y398426D01*
X177644Y398508D01*
X177657Y398592D01*
X177666Y398676D01*
X177671Y398760D01*
X177673Y398844D01*
X177059Y397411D02*
X173581Y393319D01*
X177673Y393319D01*
D10*
X226060Y403460D02*
X226060Y251460D01*
X226060Y403460D02*
X506060Y403460D01*
X506060Y251460D01*
X226060Y251460D01*
X436060Y207460D02*
X436060Y447460D01*
X556060Y447460D01*
X556060Y207460D01*
X436060Y207460D01*
D13*
X202945Y291846D02*
X202945Y298958D01*
X204921Y298958D01*
X205008Y298956D01*
X205096Y298950D01*
X205183Y298941D01*
X205269Y298927D01*
X205355Y298910D01*
X205439Y298889D01*
X205523Y298864D01*
X205606Y298835D01*
X205687Y298803D01*
X205767Y298768D01*
X205845Y298729D01*
X205922Y298686D01*
X205996Y298640D01*
X206068Y298591D01*
X206138Y298539D01*
X206206Y298483D01*
X206271Y298425D01*
X206334Y298364D01*
X206393Y298300D01*
X206450Y298233D01*
X206504Y298165D01*
X206555Y298093D01*
X206602Y298020D01*
X206647Y297945D01*
X206688Y297867D01*
X206725Y297788D01*
X206759Y297708D01*
X206789Y297626D01*
X206816Y297543D01*
X206839Y297458D01*
X206858Y297373D01*
X206873Y297287D01*
X206885Y297200D01*
X206893Y297113D01*
X206897Y297026D01*
X206897Y296938D01*
X206893Y296851D01*
X206885Y296764D01*
X206873Y296677D01*
X206858Y296591D01*
X206839Y296506D01*
X206816Y296421D01*
X206789Y296338D01*
X206759Y296256D01*
X206725Y296176D01*
X206688Y296097D01*
X206647Y296019D01*
X206602Y295944D01*
X206555Y295871D01*
X206504Y295799D01*
X206450Y295731D01*
X206393Y295664D01*
X206334Y295600D01*
X206271Y295539D01*
X206206Y295481D01*
X206138Y295425D01*
X206068Y295373D01*
X205996Y295324D01*
X205922Y295278D01*
X205845Y295235D01*
X205767Y295196D01*
X205687Y295161D01*
X205606Y295129D01*
X205523Y295100D01*
X205439Y295075D01*
X205355Y295054D01*
X205269Y295037D01*
X205183Y295023D01*
X205096Y295014D01*
X205008Y295008D01*
X204921Y295006D01*
X204921Y295007D02*
X202945Y295007D01*
X205316Y295007D02*
X206896Y291846D01*
X210200Y297378D02*
X212175Y298958D01*
X212175Y291846D01*
X210200Y291846D02*
X214151Y291846D01*
D10*
X385250Y46006D02*
X401250Y46006D01*
X401250Y75006D01*
X385250Y75006D01*
X385250Y46006D01*
X507260Y13300D02*
X507260Y88300D01*
X507260Y13300D02*
X503960Y13300D01*
X503960Y88300D02*
X507260Y88300D01*
X481560Y88300D02*
X476960Y88300D01*
X476960Y13300D02*
X481560Y13300D01*
X464260Y32000D02*
X464260Y34100D01*
X464260Y67500D02*
X464260Y69600D01*
D14*
X508760Y34800D02*
X511260Y34800D01*
X509760Y35800D02*
X508760Y34800D01*
X509760Y33800D01*
X508760Y30800D02*
X511260Y30800D01*
X509760Y31800D02*
X508760Y30800D01*
X509760Y29800D01*
X508760Y26800D02*
X511260Y26800D01*
X509760Y27800D02*
X508760Y26800D01*
X509760Y25800D01*
X508760Y22800D02*
X511260Y22800D01*
X509760Y23800D02*
X508760Y22800D01*
X509760Y21800D01*
X508760Y18800D02*
X511260Y18800D01*
X509760Y19800D02*
X508760Y18800D01*
X509760Y17800D01*
X508760Y82800D02*
X511260Y82800D01*
X509760Y83800D02*
X508760Y82800D01*
X509760Y81800D01*
X508760Y78800D02*
X511260Y78800D01*
X509760Y79800D02*
X508760Y78800D01*
X509760Y77800D01*
X508760Y74800D02*
X511260Y74800D01*
X509760Y75800D02*
X508760Y74800D01*
X509760Y73800D01*
X508760Y70800D02*
X511260Y70800D01*
X509760Y71800D02*
X508760Y70800D01*
X509760Y69800D01*
X508760Y66800D02*
X511260Y66800D01*
X509760Y67800D02*
X508760Y66800D01*
X509760Y65800D01*
D15*
X511173Y42173D02*
X511173Y41157D01*
X508887Y41157D01*
X508887Y42173D01*
X509903Y41919D02*
X509903Y41157D01*
X508887Y44034D02*
X511173Y44034D01*
X511173Y43399D01*
X511171Y43362D01*
X511166Y43325D01*
X511157Y43288D01*
X511144Y43253D01*
X511128Y43219D01*
X511109Y43187D01*
X511087Y43157D01*
X511061Y43130D01*
X511034Y43104D01*
X511004Y43082D01*
X510972Y43063D01*
X510938Y43047D01*
X510903Y43034D01*
X510866Y43025D01*
X510829Y43020D01*
X510792Y43018D01*
X510030Y43018D01*
X509993Y43020D01*
X509956Y43025D01*
X509919Y43034D01*
X509884Y43047D01*
X509850Y43063D01*
X509818Y43082D01*
X509788Y43104D01*
X509761Y43130D01*
X509735Y43157D01*
X509713Y43187D01*
X509694Y43219D01*
X509678Y43253D01*
X509665Y43288D01*
X509656Y43325D01*
X509651Y43362D01*
X509649Y43399D01*
X509649Y44034D01*
X511173Y45457D02*
X511173Y46092D01*
X511173Y45457D02*
X511171Y45420D01*
X511166Y45383D01*
X511157Y45346D01*
X511144Y45311D01*
X511128Y45277D01*
X511109Y45245D01*
X511087Y45215D01*
X511061Y45188D01*
X511034Y45162D01*
X511004Y45140D01*
X510972Y45121D01*
X510938Y45105D01*
X510903Y45092D01*
X510866Y45083D01*
X510829Y45078D01*
X510792Y45076D01*
X510030Y45076D01*
X509993Y45078D01*
X509956Y45083D01*
X509919Y45092D01*
X509884Y45105D01*
X509850Y45121D01*
X509818Y45140D01*
X509788Y45162D01*
X509761Y45188D01*
X509735Y45215D01*
X509713Y45245D01*
X509694Y45277D01*
X509678Y45311D01*
X509665Y45346D01*
X509656Y45383D01*
X509651Y45420D01*
X509649Y45457D01*
X509649Y46092D01*
X511554Y46092D01*
X511591Y46090D01*
X511628Y46085D01*
X511665Y46076D01*
X511700Y46063D01*
X511734Y46047D01*
X511766Y46028D01*
X511796Y46006D01*
X511823Y45980D01*
X511849Y45953D01*
X511871Y45923D01*
X511890Y45891D01*
X511906Y45857D01*
X511919Y45822D01*
X511928Y45785D01*
X511933Y45748D01*
X511935Y45711D01*
X511935Y45203D01*
X511173Y47527D02*
X511173Y48162D01*
X511173Y47527D02*
X511171Y47490D01*
X511166Y47453D01*
X511157Y47416D01*
X511144Y47381D01*
X511128Y47347D01*
X511109Y47315D01*
X511087Y47285D01*
X511061Y47258D01*
X511034Y47232D01*
X511004Y47210D01*
X510972Y47191D01*
X510938Y47175D01*
X510903Y47162D01*
X510866Y47153D01*
X510829Y47148D01*
X510792Y47146D01*
X510157Y47146D01*
X510113Y47148D01*
X510069Y47154D01*
X510026Y47163D01*
X509983Y47177D01*
X509942Y47194D01*
X509903Y47214D01*
X509866Y47238D01*
X509830Y47265D01*
X509798Y47295D01*
X509768Y47327D01*
X509741Y47363D01*
X509717Y47400D01*
X509697Y47439D01*
X509680Y47480D01*
X509666Y47523D01*
X509657Y47566D01*
X509651Y47610D01*
X509649Y47654D01*
X509651Y47698D01*
X509657Y47742D01*
X509666Y47785D01*
X509680Y47828D01*
X509697Y47869D01*
X509717Y47908D01*
X509741Y47945D01*
X509768Y47981D01*
X509798Y48013D01*
X509830Y48043D01*
X509866Y48070D01*
X509903Y48094D01*
X509942Y48114D01*
X509983Y48131D01*
X510026Y48145D01*
X510069Y48154D01*
X510113Y48160D01*
X510157Y48162D01*
X510411Y48162D01*
X510411Y47146D01*
X510665Y50347D02*
X510157Y50347D01*
X510113Y50349D01*
X510069Y50355D01*
X510026Y50364D01*
X509983Y50378D01*
X509942Y50395D01*
X509903Y50415D01*
X509866Y50439D01*
X509830Y50466D01*
X509798Y50496D01*
X509768Y50528D01*
X509741Y50564D01*
X509717Y50601D01*
X509697Y50640D01*
X509680Y50681D01*
X509666Y50724D01*
X509657Y50767D01*
X509651Y50811D01*
X509649Y50855D01*
X509651Y50899D01*
X509657Y50943D01*
X509666Y50986D01*
X509680Y51029D01*
X509697Y51070D01*
X509717Y51109D01*
X509741Y51146D01*
X509768Y51182D01*
X509798Y51214D01*
X509830Y51244D01*
X509866Y51271D01*
X509903Y51295D01*
X509942Y51315D01*
X509983Y51332D01*
X510026Y51346D01*
X510069Y51355D01*
X510113Y51361D01*
X510157Y51363D01*
X510665Y51363D01*
X510709Y51361D01*
X510753Y51355D01*
X510796Y51346D01*
X510839Y51332D01*
X510880Y51315D01*
X510919Y51295D01*
X510956Y51271D01*
X510992Y51244D01*
X511024Y51214D01*
X511054Y51182D01*
X511081Y51146D01*
X511105Y51109D01*
X511125Y51070D01*
X511142Y51029D01*
X511156Y50986D01*
X511165Y50943D01*
X511171Y50899D01*
X511173Y50855D01*
X511171Y50811D01*
X511165Y50767D01*
X511156Y50724D01*
X511142Y50681D01*
X511125Y50640D01*
X511105Y50601D01*
X511081Y50564D01*
X511054Y50528D01*
X511024Y50496D01*
X510992Y50466D01*
X510956Y50439D01*
X510919Y50415D01*
X510880Y50395D01*
X510839Y50378D01*
X510796Y50364D01*
X510753Y50355D01*
X510709Y50349D01*
X510665Y50347D01*
X511173Y52450D02*
X509268Y52450D01*
X509231Y52452D01*
X509194Y52457D01*
X509157Y52466D01*
X509122Y52479D01*
X509088Y52495D01*
X509056Y52514D01*
X509026Y52536D01*
X508999Y52562D01*
X508973Y52589D01*
X508951Y52619D01*
X508932Y52651D01*
X508916Y52685D01*
X508903Y52720D01*
X508894Y52757D01*
X508889Y52794D01*
X508887Y52831D01*
X508887Y52958D01*
X509649Y52958D02*
X509649Y52196D01*
X508887Y54982D02*
X511173Y54982D01*
X508887Y54982D02*
X508887Y55617D01*
X508889Y55666D01*
X508894Y55714D01*
X508904Y55762D01*
X508917Y55809D01*
X508933Y55854D01*
X508953Y55899D01*
X508976Y55941D01*
X509003Y55982D01*
X509032Y56021D01*
X509064Y56057D01*
X509100Y56091D01*
X509137Y56122D01*
X509177Y56150D01*
X509219Y56175D01*
X509262Y56196D01*
X509307Y56215D01*
X509354Y56229D01*
X509401Y56240D01*
X509449Y56248D01*
X509498Y56252D01*
X509546Y56252D01*
X509595Y56248D01*
X509643Y56240D01*
X509690Y56229D01*
X509737Y56215D01*
X509782Y56196D01*
X509825Y56175D01*
X509867Y56150D01*
X509907Y56122D01*
X509944Y56091D01*
X509980Y56057D01*
X510012Y56021D01*
X510041Y55982D01*
X510068Y55941D01*
X510091Y55899D01*
X510111Y55854D01*
X510127Y55809D01*
X510140Y55762D01*
X510150Y55714D01*
X510155Y55666D01*
X510157Y55617D01*
X510157Y54982D01*
X511173Y57654D02*
X511173Y58162D01*
X511173Y57654D02*
X511171Y57610D01*
X511165Y57566D01*
X511156Y57523D01*
X511142Y57480D01*
X511125Y57439D01*
X511105Y57400D01*
X511081Y57363D01*
X511054Y57327D01*
X511024Y57295D01*
X510992Y57265D01*
X510956Y57238D01*
X510919Y57214D01*
X510880Y57194D01*
X510839Y57177D01*
X510796Y57163D01*
X510753Y57154D01*
X510709Y57148D01*
X510665Y57146D01*
X509395Y57146D01*
X509351Y57148D01*
X509307Y57154D01*
X509264Y57163D01*
X509221Y57177D01*
X509180Y57194D01*
X509141Y57214D01*
X509104Y57238D01*
X509068Y57265D01*
X509036Y57295D01*
X509006Y57327D01*
X508979Y57363D01*
X508955Y57400D01*
X508935Y57439D01*
X508918Y57480D01*
X508904Y57523D01*
X508895Y57566D01*
X508889Y57610D01*
X508887Y57654D01*
X508887Y58162D01*
X509903Y59173D02*
X509903Y59808D01*
X509905Y59857D01*
X509910Y59905D01*
X509920Y59953D01*
X509933Y60000D01*
X509949Y60045D01*
X509969Y60090D01*
X509992Y60132D01*
X510019Y60173D01*
X510048Y60212D01*
X510080Y60248D01*
X510116Y60282D01*
X510153Y60313D01*
X510193Y60341D01*
X510235Y60366D01*
X510278Y60387D01*
X510323Y60406D01*
X510370Y60420D01*
X510417Y60431D01*
X510465Y60439D01*
X510514Y60443D01*
X510562Y60443D01*
X510611Y60439D01*
X510659Y60431D01*
X510706Y60420D01*
X510753Y60406D01*
X510798Y60387D01*
X510841Y60366D01*
X510883Y60341D01*
X510923Y60313D01*
X510960Y60282D01*
X510996Y60248D01*
X511028Y60212D01*
X511057Y60173D01*
X511084Y60132D01*
X511107Y60090D01*
X511127Y60045D01*
X511143Y60000D01*
X511156Y59953D01*
X511166Y59905D01*
X511171Y59857D01*
X511173Y59808D01*
X511173Y59173D01*
X508887Y59173D01*
X508887Y59808D01*
X508889Y59852D01*
X508895Y59896D01*
X508904Y59939D01*
X508918Y59982D01*
X508935Y60023D01*
X508955Y60062D01*
X508979Y60099D01*
X509006Y60135D01*
X509036Y60167D01*
X509068Y60197D01*
X509104Y60224D01*
X509141Y60248D01*
X509180Y60268D01*
X509221Y60285D01*
X509264Y60299D01*
X509307Y60308D01*
X509351Y60314D01*
X509395Y60316D01*
X509439Y60314D01*
X509483Y60308D01*
X509526Y60299D01*
X509569Y60285D01*
X509610Y60268D01*
X509649Y60248D01*
X509686Y60224D01*
X509722Y60197D01*
X509754Y60167D01*
X509784Y60135D01*
X509811Y60099D01*
X509835Y60062D01*
X509855Y60023D01*
X509872Y59982D01*
X509886Y59939D01*
X509895Y59896D01*
X509901Y59852D01*
X509903Y59808D01*
D13*
X449832Y12792D02*
X445091Y5680D01*
X449832Y5680D02*
X445091Y12792D01*
X452801Y11212D02*
X454776Y12792D01*
X454776Y5680D01*
X452801Y5680D02*
X456752Y5680D01*
X335454Y79248D02*
X333873Y79248D01*
X333795Y79250D01*
X333718Y79256D01*
X333641Y79265D01*
X333565Y79278D01*
X333489Y79295D01*
X333414Y79316D01*
X333341Y79340D01*
X333268Y79368D01*
X333197Y79400D01*
X333128Y79435D01*
X333061Y79473D01*
X332995Y79514D01*
X332932Y79559D01*
X332871Y79607D01*
X332812Y79657D01*
X332756Y79711D01*
X332702Y79767D01*
X332652Y79826D01*
X332604Y79887D01*
X332559Y79950D01*
X332518Y80016D01*
X332480Y80083D01*
X332445Y80152D01*
X332413Y80223D01*
X332385Y80296D01*
X332361Y80369D01*
X332340Y80444D01*
X332323Y80520D01*
X332310Y80596D01*
X332301Y80673D01*
X332295Y80750D01*
X332293Y80828D01*
X332293Y84780D01*
X332295Y84858D01*
X332301Y84935D01*
X332310Y85012D01*
X332323Y85088D01*
X332340Y85164D01*
X332361Y85239D01*
X332385Y85312D01*
X332413Y85385D01*
X332445Y85456D01*
X332480Y85525D01*
X332518Y85592D01*
X332559Y85658D01*
X332604Y85721D01*
X332652Y85782D01*
X332702Y85841D01*
X332756Y85897D01*
X332812Y85951D01*
X332871Y86001D01*
X332932Y86049D01*
X332995Y86094D01*
X333061Y86135D01*
X333128Y86173D01*
X333197Y86208D01*
X333268Y86240D01*
X333341Y86268D01*
X333414Y86292D01*
X333489Y86313D01*
X333565Y86330D01*
X333641Y86343D01*
X333718Y86352D01*
X333795Y86358D01*
X333873Y86360D01*
X335454Y86360D01*
X340589Y86360D02*
X340671Y86358D01*
X340753Y86352D01*
X340835Y86343D01*
X340916Y86330D01*
X340996Y86313D01*
X341076Y86292D01*
X341154Y86268D01*
X341231Y86240D01*
X341307Y86209D01*
X341382Y86174D01*
X341454Y86135D01*
X341525Y86094D01*
X341594Y86049D01*
X341660Y86001D01*
X341725Y85950D01*
X341787Y85896D01*
X341846Y85839D01*
X341903Y85780D01*
X341957Y85718D01*
X342008Y85653D01*
X342056Y85587D01*
X342101Y85518D01*
X342142Y85447D01*
X342181Y85375D01*
X342216Y85300D01*
X342247Y85224D01*
X342275Y85147D01*
X342299Y85069D01*
X342320Y84989D01*
X342337Y84909D01*
X342350Y84828D01*
X342359Y84746D01*
X342365Y84664D01*
X342367Y84582D01*
X340589Y86360D02*
X340496Y86358D01*
X340404Y86352D01*
X340312Y86343D01*
X340220Y86330D01*
X340129Y86313D01*
X340039Y86293D01*
X339949Y86269D01*
X339861Y86241D01*
X339773Y86209D01*
X339688Y86175D01*
X339603Y86136D01*
X339521Y86095D01*
X339440Y86050D01*
X339360Y86001D01*
X339283Y85950D01*
X339208Y85896D01*
X339136Y85838D01*
X339066Y85778D01*
X338998Y85714D01*
X338933Y85649D01*
X338870Y85580D01*
X338811Y85509D01*
X338754Y85436D01*
X338700Y85360D01*
X338650Y85283D01*
X338602Y85203D01*
X338558Y85122D01*
X338518Y85038D01*
X338480Y84954D01*
X338446Y84867D01*
X338416Y84780D01*
X341774Y83199D02*
X341835Y83260D01*
X341893Y83323D01*
X341948Y83389D01*
X342001Y83457D01*
X342050Y83528D01*
X342095Y83600D01*
X342138Y83675D01*
X342177Y83751D01*
X342213Y83830D01*
X342245Y83909D01*
X342273Y83990D01*
X342298Y84073D01*
X342319Y84156D01*
X342336Y84240D01*
X342350Y84325D01*
X342359Y84410D01*
X342365Y84496D01*
X342367Y84582D01*
X341775Y83199D02*
X338416Y79248D01*
X342367Y79248D01*
X437995Y80028D02*
X439576Y80028D01*
X437995Y80028D02*
X437917Y80030D01*
X437840Y80036D01*
X437763Y80045D01*
X437687Y80058D01*
X437611Y80075D01*
X437536Y80096D01*
X437463Y80120D01*
X437390Y80148D01*
X437319Y80180D01*
X437250Y80215D01*
X437183Y80253D01*
X437117Y80294D01*
X437054Y80339D01*
X436993Y80387D01*
X436934Y80437D01*
X436878Y80491D01*
X436824Y80547D01*
X436774Y80606D01*
X436726Y80667D01*
X436681Y80730D01*
X436640Y80796D01*
X436602Y80863D01*
X436567Y80932D01*
X436535Y81003D01*
X436507Y81076D01*
X436483Y81149D01*
X436462Y81224D01*
X436445Y81300D01*
X436432Y81376D01*
X436423Y81453D01*
X436417Y81530D01*
X436415Y81608D01*
X436415Y85560D01*
X436417Y85638D01*
X436423Y85715D01*
X436432Y85792D01*
X436445Y85868D01*
X436462Y85944D01*
X436483Y86019D01*
X436507Y86092D01*
X436535Y86165D01*
X436567Y86236D01*
X436602Y86305D01*
X436640Y86372D01*
X436681Y86438D01*
X436726Y86501D01*
X436774Y86562D01*
X436824Y86621D01*
X436878Y86677D01*
X436934Y86731D01*
X436993Y86781D01*
X437054Y86829D01*
X437117Y86874D01*
X437183Y86915D01*
X437250Y86953D01*
X437319Y86988D01*
X437390Y87020D01*
X437463Y87048D01*
X437536Y87072D01*
X437611Y87093D01*
X437687Y87110D01*
X437763Y87123D01*
X437840Y87132D01*
X437917Y87138D01*
X437995Y87140D01*
X439576Y87140D01*
X442538Y80028D02*
X444514Y80028D01*
X444601Y80030D01*
X444689Y80036D01*
X444776Y80045D01*
X444862Y80059D01*
X444948Y80076D01*
X445032Y80097D01*
X445116Y80122D01*
X445199Y80151D01*
X445280Y80183D01*
X445360Y80218D01*
X445438Y80257D01*
X445515Y80300D01*
X445589Y80346D01*
X445661Y80395D01*
X445731Y80447D01*
X445799Y80503D01*
X445864Y80561D01*
X445927Y80622D01*
X445986Y80686D01*
X446043Y80753D01*
X446097Y80821D01*
X446148Y80893D01*
X446195Y80966D01*
X446240Y81041D01*
X446281Y81119D01*
X446318Y81198D01*
X446352Y81278D01*
X446382Y81360D01*
X446409Y81443D01*
X446432Y81528D01*
X446451Y81613D01*
X446466Y81699D01*
X446478Y81786D01*
X446486Y81873D01*
X446490Y81960D01*
X446490Y82048D01*
X446486Y82135D01*
X446478Y82222D01*
X446466Y82309D01*
X446451Y82395D01*
X446432Y82480D01*
X446409Y82565D01*
X446382Y82648D01*
X446352Y82730D01*
X446318Y82810D01*
X446281Y82889D01*
X446240Y82967D01*
X446195Y83042D01*
X446148Y83115D01*
X446097Y83187D01*
X446043Y83255D01*
X445986Y83322D01*
X445927Y83386D01*
X445864Y83447D01*
X445799Y83505D01*
X445731Y83561D01*
X445661Y83613D01*
X445589Y83662D01*
X445515Y83708D01*
X445438Y83751D01*
X445360Y83790D01*
X445280Y83825D01*
X445199Y83857D01*
X445116Y83886D01*
X445032Y83911D01*
X444948Y83932D01*
X444862Y83949D01*
X444776Y83963D01*
X444689Y83972D01*
X444601Y83978D01*
X444514Y83980D01*
X444909Y87140D02*
X442538Y87140D01*
X444909Y87140D02*
X444988Y87138D01*
X445066Y87132D01*
X445144Y87122D01*
X445222Y87109D01*
X445299Y87091D01*
X445375Y87070D01*
X445449Y87045D01*
X445523Y87016D01*
X445595Y86984D01*
X445665Y86948D01*
X445733Y86908D01*
X445799Y86865D01*
X445863Y86819D01*
X445925Y86770D01*
X445984Y86718D01*
X446040Y86663D01*
X446094Y86605D01*
X446144Y86545D01*
X446192Y86482D01*
X446236Y86417D01*
X446277Y86350D01*
X446315Y86281D01*
X446349Y86210D01*
X446380Y86137D01*
X446407Y86063D01*
X446430Y85988D01*
X446449Y85912D01*
X446465Y85834D01*
X446477Y85756D01*
X446485Y85678D01*
X446489Y85599D01*
X446489Y85521D01*
X446485Y85442D01*
X446477Y85364D01*
X446465Y85286D01*
X446449Y85208D01*
X446430Y85132D01*
X446407Y85057D01*
X446380Y84983D01*
X446349Y84910D01*
X446315Y84839D01*
X446277Y84770D01*
X446236Y84703D01*
X446192Y84638D01*
X446144Y84575D01*
X446094Y84515D01*
X446040Y84457D01*
X445984Y84402D01*
X445925Y84350D01*
X445863Y84301D01*
X445799Y84255D01*
X445733Y84212D01*
X445665Y84172D01*
X445595Y84136D01*
X445523Y84104D01*
X445449Y84075D01*
X445375Y84050D01*
X445299Y84029D01*
X445222Y84011D01*
X445144Y83998D01*
X445066Y83988D01*
X444988Y83982D01*
X444909Y83980D01*
X444909Y83979D02*
X443328Y83979D01*
X357617Y43928D02*
X357617Y36816D01*
X357617Y43928D02*
X359593Y43928D01*
X359680Y43926D01*
X359768Y43920D01*
X359855Y43911D01*
X359941Y43897D01*
X360027Y43880D01*
X360111Y43859D01*
X360195Y43834D01*
X360278Y43805D01*
X360359Y43773D01*
X360439Y43738D01*
X360517Y43699D01*
X360594Y43656D01*
X360668Y43610D01*
X360740Y43561D01*
X360810Y43509D01*
X360878Y43453D01*
X360943Y43395D01*
X361006Y43334D01*
X361065Y43270D01*
X361122Y43203D01*
X361176Y43135D01*
X361227Y43063D01*
X361274Y42990D01*
X361319Y42915D01*
X361360Y42837D01*
X361397Y42758D01*
X361431Y42678D01*
X361461Y42596D01*
X361488Y42513D01*
X361511Y42428D01*
X361530Y42343D01*
X361545Y42257D01*
X361557Y42170D01*
X361565Y42083D01*
X361569Y41996D01*
X361569Y41908D01*
X361565Y41821D01*
X361557Y41734D01*
X361545Y41647D01*
X361530Y41561D01*
X361511Y41476D01*
X361488Y41391D01*
X361461Y41308D01*
X361431Y41226D01*
X361397Y41146D01*
X361360Y41067D01*
X361319Y40989D01*
X361274Y40914D01*
X361227Y40841D01*
X361176Y40769D01*
X361122Y40701D01*
X361065Y40634D01*
X361006Y40570D01*
X360943Y40509D01*
X360878Y40451D01*
X360810Y40395D01*
X360740Y40343D01*
X360668Y40294D01*
X360594Y40248D01*
X360517Y40205D01*
X360439Y40166D01*
X360359Y40131D01*
X360278Y40099D01*
X360195Y40070D01*
X360111Y40045D01*
X360027Y40024D01*
X359941Y40007D01*
X359855Y39993D01*
X359768Y39984D01*
X359680Y39978D01*
X359593Y39976D01*
X359593Y39977D02*
X357617Y39977D01*
X359988Y39977D02*
X361568Y36816D01*
X364872Y38396D02*
X366452Y43928D01*
X364872Y38396D02*
X368823Y38396D01*
X367638Y39977D02*
X367638Y36816D01*
D16*
X445770Y170180D02*
X499110Y170180D01*
X499110Y195580D01*
X445770Y195580D01*
X445770Y173990D02*
X445770Y170180D01*
X441960Y173990D02*
X441744Y173993D01*
X441527Y174001D01*
X441311Y174014D01*
X441095Y174032D01*
X440880Y174056D01*
X440666Y174085D01*
X440452Y174119D01*
X440239Y174158D01*
X440027Y174203D01*
X439816Y174252D01*
X439607Y174307D01*
X439399Y174367D01*
X439192Y174432D01*
X438987Y174502D01*
X438784Y174577D01*
X438583Y174656D01*
X438384Y174741D01*
X438187Y174831D01*
X437992Y174925D01*
X437799Y175024D01*
X437609Y175127D01*
X437422Y175236D01*
X437237Y175349D01*
X437055Y175466D01*
X436876Y175587D01*
X436700Y175713D01*
X436527Y175844D01*
X436357Y175978D01*
X436191Y176116D01*
X436028Y176259D01*
X435868Y176405D01*
X435712Y176556D01*
X435560Y176710D01*
X435412Y176867D01*
X435267Y177029D01*
X435127Y177193D01*
X434990Y177361D01*
X434858Y177533D01*
X434730Y177707D01*
X434606Y177885D01*
X434487Y178065D01*
X434372Y178249D01*
X434261Y178435D01*
X434155Y178624D01*
X434054Y178815D01*
X433957Y179009D01*
X433865Y179205D01*
X433778Y179403D01*
X433696Y179603D01*
X433619Y179806D01*
X433546Y180010D01*
X433479Y180215D01*
X433416Y180423D01*
X433359Y180631D01*
X433307Y180842D01*
X433260Y181053D01*
X433218Y181265D01*
X433181Y181479D01*
X433150Y181693D01*
X433123Y181908D01*
X433102Y182123D01*
X433086Y182339D01*
X433076Y182555D01*
X433071Y182772D01*
X433071Y182988D01*
X433076Y183205D01*
X433086Y183421D01*
X433102Y183637D01*
X433123Y183852D01*
X433150Y184067D01*
X433181Y184281D01*
X433218Y184495D01*
X433260Y184707D01*
X433307Y184918D01*
X433359Y185129D01*
X433416Y185337D01*
X433479Y185545D01*
X433546Y185750D01*
X433619Y185954D01*
X433696Y186157D01*
X433778Y186357D01*
X433865Y186555D01*
X433957Y186751D01*
X434054Y186945D01*
X434155Y187136D01*
X434261Y187325D01*
X434372Y187511D01*
X434487Y187695D01*
X434606Y187875D01*
X434730Y188053D01*
X434858Y188227D01*
X434990Y188399D01*
X435127Y188567D01*
X435267Y188731D01*
X435412Y188893D01*
X435560Y189050D01*
X435712Y189204D01*
X435868Y189355D01*
X436028Y189501D01*
X436191Y189644D01*
X436357Y189782D01*
X436527Y189916D01*
X436700Y190047D01*
X436876Y190173D01*
X437055Y190294D01*
X437237Y190411D01*
X437422Y190524D01*
X437609Y190633D01*
X437799Y190736D01*
X437992Y190835D01*
X438187Y190929D01*
X438384Y191019D01*
X438583Y191104D01*
X438784Y191183D01*
X438987Y191258D01*
X439192Y191328D01*
X439399Y191393D01*
X439607Y191453D01*
X439816Y191508D01*
X440027Y191557D01*
X440239Y191602D01*
X440452Y191641D01*
X440666Y191675D01*
X440880Y191704D01*
X441095Y191728D01*
X441311Y191746D01*
X441527Y191759D01*
X441744Y191767D01*
X441960Y191770D01*
X445770Y191770D01*
X445770Y195580D01*
X445770Y173990D02*
X441960Y173990D01*
X445770Y173990D02*
X445770Y191770D01*
X441960Y189230D02*
X441960Y176530D01*
X439420Y177800D02*
X439420Y187960D01*
X436880Y185420D02*
X436880Y180340D01*
D11*
X436753Y166751D02*
X436753Y159385D01*
X436753Y166751D02*
X438799Y166751D01*
X438888Y166749D01*
X438977Y166743D01*
X439066Y166733D01*
X439154Y166720D01*
X439242Y166703D01*
X439329Y166681D01*
X439414Y166656D01*
X439499Y166628D01*
X439582Y166595D01*
X439664Y166559D01*
X439744Y166520D01*
X439822Y166477D01*
X439898Y166431D01*
X439973Y166381D01*
X440045Y166328D01*
X440114Y166272D01*
X440181Y166213D01*
X440246Y166152D01*
X440307Y166087D01*
X440366Y166020D01*
X440422Y165951D01*
X440475Y165879D01*
X440525Y165804D01*
X440571Y165728D01*
X440614Y165650D01*
X440653Y165570D01*
X440689Y165488D01*
X440722Y165405D01*
X440750Y165320D01*
X440775Y165235D01*
X440797Y165148D01*
X440814Y165060D01*
X440827Y164972D01*
X440837Y164883D01*
X440843Y164794D01*
X440845Y164705D01*
X440845Y161431D01*
X440843Y161342D01*
X440837Y161253D01*
X440827Y161164D01*
X440814Y161076D01*
X440797Y160988D01*
X440775Y160901D01*
X440750Y160816D01*
X440722Y160731D01*
X440689Y160648D01*
X440653Y160566D01*
X440614Y160486D01*
X440571Y160408D01*
X440525Y160332D01*
X440475Y160257D01*
X440422Y160185D01*
X440366Y160116D01*
X440307Y160049D01*
X440246Y159984D01*
X440181Y159923D01*
X440114Y159864D01*
X440045Y159808D01*
X439973Y159755D01*
X439898Y159705D01*
X439822Y159659D01*
X439744Y159616D01*
X439664Y159577D01*
X439582Y159541D01*
X439499Y159508D01*
X439414Y159480D01*
X439329Y159455D01*
X439242Y159433D01*
X439154Y159416D01*
X439066Y159403D01*
X438977Y159393D01*
X438888Y159387D01*
X438799Y159385D01*
X436753Y159385D01*
X444312Y165114D02*
X446358Y166751D01*
X446358Y159385D01*
X444312Y159385D02*
X448404Y159385D01*
D10*
X446220Y111760D02*
X490220Y111760D01*
X490220Y155760D01*
X446220Y155760D01*
X446220Y111760D01*
X490220Y111760D02*
X508220Y111760D01*
X508220Y155760D01*
X490220Y155760D01*
D13*
X460365Y164364D02*
X460365Y166340D01*
X460364Y166340D02*
X460366Y166427D01*
X460372Y166515D01*
X460381Y166602D01*
X460395Y166688D01*
X460412Y166774D01*
X460433Y166858D01*
X460458Y166942D01*
X460487Y167025D01*
X460519Y167106D01*
X460554Y167186D01*
X460593Y167264D01*
X460636Y167341D01*
X460682Y167415D01*
X460731Y167487D01*
X460783Y167557D01*
X460839Y167625D01*
X460897Y167690D01*
X460958Y167753D01*
X461022Y167812D01*
X461089Y167869D01*
X461157Y167923D01*
X461229Y167974D01*
X461302Y168021D01*
X461377Y168066D01*
X461455Y168107D01*
X461534Y168144D01*
X461614Y168178D01*
X461696Y168208D01*
X461779Y168235D01*
X461864Y168258D01*
X461949Y168277D01*
X462035Y168292D01*
X462122Y168304D01*
X462209Y168312D01*
X462296Y168316D01*
X462384Y168316D01*
X462471Y168312D01*
X462558Y168304D01*
X462645Y168292D01*
X462731Y168277D01*
X462816Y168258D01*
X462901Y168235D01*
X462984Y168208D01*
X463066Y168178D01*
X463146Y168144D01*
X463225Y168107D01*
X463303Y168066D01*
X463378Y168021D01*
X463451Y167974D01*
X463523Y167923D01*
X463591Y167869D01*
X463658Y167812D01*
X463722Y167753D01*
X463783Y167690D01*
X463841Y167625D01*
X463897Y167557D01*
X463949Y167487D01*
X463998Y167415D01*
X464044Y167341D01*
X464087Y167264D01*
X464126Y167186D01*
X464161Y167106D01*
X464193Y167025D01*
X464222Y166942D01*
X464247Y166858D01*
X464268Y166774D01*
X464285Y166688D01*
X464299Y166602D01*
X464308Y166515D01*
X464314Y166427D01*
X464316Y166340D01*
X464316Y164364D01*
X457204Y164364D01*
X457204Y166340D01*
X457206Y166419D01*
X457212Y166497D01*
X457222Y166575D01*
X457235Y166653D01*
X457253Y166730D01*
X457274Y166806D01*
X457299Y166880D01*
X457328Y166954D01*
X457360Y167026D01*
X457396Y167096D01*
X457436Y167164D01*
X457479Y167230D01*
X457525Y167294D01*
X457574Y167356D01*
X457626Y167415D01*
X457681Y167471D01*
X457739Y167525D01*
X457799Y167575D01*
X457862Y167623D01*
X457927Y167667D01*
X457994Y167708D01*
X458063Y167746D01*
X458134Y167780D01*
X458207Y167811D01*
X458281Y167838D01*
X458356Y167861D01*
X458432Y167880D01*
X458510Y167896D01*
X458588Y167908D01*
X458666Y167916D01*
X458745Y167920D01*
X458823Y167920D01*
X458902Y167916D01*
X458980Y167908D01*
X459058Y167896D01*
X459136Y167880D01*
X459212Y167861D01*
X459287Y167838D01*
X459361Y167811D01*
X459434Y167780D01*
X459505Y167746D01*
X459574Y167708D01*
X459641Y167667D01*
X459706Y167623D01*
X459769Y167575D01*
X459829Y167525D01*
X459887Y167471D01*
X459942Y167415D01*
X459994Y167356D01*
X460043Y167294D01*
X460089Y167230D01*
X460132Y167164D01*
X460172Y167096D01*
X460208Y167026D01*
X460240Y166954D01*
X460269Y166880D01*
X460294Y166806D01*
X460315Y166730D01*
X460333Y166653D01*
X460346Y166575D01*
X460356Y166497D01*
X460362Y166419D01*
X460364Y166340D01*
X464316Y170902D02*
X457204Y173273D01*
X464316Y175643D01*
X462538Y175051D02*
X462538Y171495D01*
X464316Y180100D02*
X457204Y180100D01*
X457204Y178124D02*
X457204Y182076D01*
M02*
