G04 EAGLE Gerber RS-274X export*
G75*
%MOMM*%
%FSLAX34Y34*%
%LPD*%
%INSilkscreen Bottom*%
%IPPOS*%
%AMOC8*
5,1,8,0,0,1.08239X$1,22.5*%
G01*
%ADD10C,0.254000*%
%ADD11C,0.101600*%
%ADD12C,0.076200*%


D10*
X119728Y288744D02*
X119728Y288344D01*
X99728Y288344D02*
X99728Y288744D01*
D11*
X119232Y298302D02*
X119232Y305414D01*
X117257Y305414D01*
X117170Y305412D01*
X117082Y305406D01*
X116995Y305397D01*
X116909Y305383D01*
X116823Y305366D01*
X116739Y305345D01*
X116655Y305320D01*
X116572Y305291D01*
X116491Y305259D01*
X116411Y305224D01*
X116333Y305185D01*
X116256Y305142D01*
X116182Y305096D01*
X116110Y305047D01*
X116040Y304995D01*
X115972Y304939D01*
X115907Y304881D01*
X115844Y304820D01*
X115785Y304756D01*
X115728Y304689D01*
X115674Y304621D01*
X115623Y304549D01*
X115576Y304476D01*
X115531Y304401D01*
X115490Y304323D01*
X115453Y304244D01*
X115419Y304164D01*
X115389Y304082D01*
X115362Y303999D01*
X115339Y303914D01*
X115320Y303829D01*
X115305Y303743D01*
X115293Y303656D01*
X115285Y303569D01*
X115281Y303482D01*
X115281Y303394D01*
X115285Y303307D01*
X115293Y303220D01*
X115305Y303133D01*
X115320Y303047D01*
X115339Y302962D01*
X115362Y302877D01*
X115389Y302794D01*
X115419Y302712D01*
X115453Y302632D01*
X115490Y302553D01*
X115531Y302475D01*
X115576Y302400D01*
X115623Y302327D01*
X115674Y302255D01*
X115728Y302187D01*
X115785Y302120D01*
X115844Y302056D01*
X115907Y301995D01*
X115972Y301937D01*
X116040Y301881D01*
X116110Y301829D01*
X116182Y301780D01*
X116256Y301734D01*
X116333Y301691D01*
X116411Y301652D01*
X116491Y301617D01*
X116572Y301585D01*
X116655Y301556D01*
X116739Y301531D01*
X116823Y301510D01*
X116909Y301493D01*
X116995Y301479D01*
X117082Y301470D01*
X117170Y301464D01*
X117257Y301462D01*
X117257Y301463D02*
X119232Y301463D01*
X116862Y301463D02*
X115281Y298302D01*
X111734Y298302D02*
X111734Y305414D01*
X107783Y298302D01*
X107783Y305414D01*
X104175Y303834D02*
X102199Y305414D01*
X102199Y298302D01*
X100224Y298302D02*
X104175Y298302D01*
D10*
X24732Y228546D02*
X24732Y228146D01*
X4732Y228146D02*
X4732Y228546D01*
D11*
X24744Y250804D02*
X24744Y257916D01*
X22769Y257916D01*
X22682Y257914D01*
X22594Y257908D01*
X22507Y257899D01*
X22421Y257885D01*
X22335Y257868D01*
X22251Y257847D01*
X22167Y257822D01*
X22084Y257793D01*
X22003Y257761D01*
X21923Y257726D01*
X21845Y257687D01*
X21768Y257644D01*
X21694Y257598D01*
X21622Y257549D01*
X21552Y257497D01*
X21484Y257441D01*
X21419Y257383D01*
X21356Y257322D01*
X21297Y257258D01*
X21240Y257191D01*
X21186Y257123D01*
X21135Y257051D01*
X21088Y256978D01*
X21043Y256903D01*
X21002Y256825D01*
X20965Y256746D01*
X20931Y256666D01*
X20901Y256584D01*
X20874Y256501D01*
X20851Y256416D01*
X20832Y256331D01*
X20817Y256245D01*
X20805Y256158D01*
X20797Y256071D01*
X20793Y255984D01*
X20793Y255896D01*
X20797Y255809D01*
X20805Y255722D01*
X20817Y255635D01*
X20832Y255549D01*
X20851Y255464D01*
X20874Y255379D01*
X20901Y255296D01*
X20931Y255214D01*
X20965Y255134D01*
X21002Y255055D01*
X21043Y254977D01*
X21088Y254902D01*
X21135Y254829D01*
X21186Y254757D01*
X21240Y254689D01*
X21297Y254622D01*
X21356Y254558D01*
X21419Y254497D01*
X21484Y254439D01*
X21552Y254383D01*
X21622Y254331D01*
X21694Y254282D01*
X21768Y254236D01*
X21845Y254193D01*
X21923Y254154D01*
X22003Y254119D01*
X22084Y254087D01*
X22167Y254058D01*
X22251Y254033D01*
X22335Y254012D01*
X22421Y253995D01*
X22507Y253981D01*
X22594Y253972D01*
X22682Y253966D01*
X22769Y253964D01*
X22769Y253965D02*
X24744Y253965D01*
X22374Y253965D02*
X20793Y250804D01*
X17246Y250804D02*
X17246Y257916D01*
X13295Y250804D01*
X13295Y257916D01*
X7514Y257916D02*
X7432Y257914D01*
X7350Y257908D01*
X7268Y257899D01*
X7187Y257886D01*
X7107Y257869D01*
X7027Y257848D01*
X6949Y257824D01*
X6872Y257796D01*
X6796Y257765D01*
X6721Y257730D01*
X6649Y257691D01*
X6578Y257650D01*
X6509Y257605D01*
X6443Y257557D01*
X6378Y257506D01*
X6316Y257452D01*
X6257Y257395D01*
X6200Y257336D01*
X6146Y257274D01*
X6095Y257209D01*
X6047Y257143D01*
X6002Y257074D01*
X5961Y257003D01*
X5922Y256931D01*
X5887Y256856D01*
X5856Y256780D01*
X5828Y256703D01*
X5804Y256625D01*
X5783Y256545D01*
X5766Y256465D01*
X5753Y256384D01*
X5744Y256302D01*
X5738Y256220D01*
X5736Y256138D01*
X7514Y257916D02*
X7607Y257914D01*
X7699Y257908D01*
X7791Y257899D01*
X7883Y257886D01*
X7974Y257869D01*
X8064Y257849D01*
X8154Y257825D01*
X8242Y257797D01*
X8330Y257765D01*
X8415Y257731D01*
X8500Y257692D01*
X8582Y257651D01*
X8663Y257606D01*
X8743Y257557D01*
X8820Y257506D01*
X8895Y257452D01*
X8967Y257394D01*
X9038Y257334D01*
X9105Y257270D01*
X9170Y257205D01*
X9233Y257136D01*
X9292Y257065D01*
X9349Y256992D01*
X9403Y256916D01*
X9453Y256839D01*
X9501Y256759D01*
X9545Y256677D01*
X9585Y256594D01*
X9623Y256509D01*
X9657Y256423D01*
X9687Y256336D01*
X6328Y254755D02*
X6267Y254816D01*
X6209Y254879D01*
X6154Y254945D01*
X6101Y255013D01*
X6052Y255084D01*
X6007Y255156D01*
X5964Y255231D01*
X5925Y255307D01*
X5889Y255386D01*
X5857Y255465D01*
X5829Y255546D01*
X5804Y255629D01*
X5783Y255712D01*
X5766Y255796D01*
X5752Y255881D01*
X5743Y255966D01*
X5737Y256052D01*
X5735Y256138D01*
X6328Y254755D02*
X9687Y250804D01*
X5736Y250804D01*
X370855Y159272D02*
X370855Y152160D01*
X370855Y159272D02*
X368879Y159272D01*
X368792Y159270D01*
X368704Y159264D01*
X368617Y159255D01*
X368531Y159241D01*
X368445Y159224D01*
X368361Y159203D01*
X368277Y159178D01*
X368194Y159149D01*
X368113Y159117D01*
X368033Y159082D01*
X367955Y159043D01*
X367878Y159000D01*
X367804Y158954D01*
X367732Y158905D01*
X367662Y158853D01*
X367594Y158797D01*
X367529Y158739D01*
X367466Y158678D01*
X367407Y158614D01*
X367350Y158547D01*
X367296Y158479D01*
X367245Y158407D01*
X367198Y158334D01*
X367153Y158259D01*
X367112Y158181D01*
X367075Y158102D01*
X367041Y158022D01*
X367011Y157940D01*
X366984Y157857D01*
X366961Y157772D01*
X366942Y157687D01*
X366927Y157601D01*
X366915Y157514D01*
X366907Y157427D01*
X366903Y157340D01*
X366903Y157252D01*
X366907Y157165D01*
X366915Y157078D01*
X366927Y156991D01*
X366942Y156905D01*
X366961Y156820D01*
X366984Y156735D01*
X367011Y156652D01*
X367041Y156570D01*
X367075Y156490D01*
X367112Y156411D01*
X367153Y156333D01*
X367198Y156258D01*
X367245Y156185D01*
X367296Y156113D01*
X367350Y156045D01*
X367407Y155978D01*
X367466Y155914D01*
X367529Y155853D01*
X367594Y155795D01*
X367662Y155739D01*
X367732Y155687D01*
X367804Y155638D01*
X367878Y155592D01*
X367955Y155549D01*
X368033Y155510D01*
X368113Y155475D01*
X368194Y155443D01*
X368277Y155414D01*
X368361Y155389D01*
X368445Y155368D01*
X368531Y155351D01*
X368617Y155337D01*
X368704Y155328D01*
X368792Y155322D01*
X368879Y155320D01*
X368879Y155321D02*
X370855Y155321D01*
X368484Y155321D02*
X366904Y152160D01*
X361427Y159272D02*
X361345Y159270D01*
X361263Y159264D01*
X361181Y159255D01*
X361100Y159242D01*
X361020Y159225D01*
X360940Y159204D01*
X360862Y159180D01*
X360785Y159152D01*
X360709Y159121D01*
X360634Y159086D01*
X360562Y159047D01*
X360491Y159006D01*
X360422Y158961D01*
X360356Y158913D01*
X360291Y158862D01*
X360229Y158808D01*
X360170Y158751D01*
X360113Y158692D01*
X360059Y158630D01*
X360008Y158565D01*
X359960Y158499D01*
X359915Y158430D01*
X359874Y158359D01*
X359835Y158287D01*
X359800Y158212D01*
X359769Y158136D01*
X359741Y158059D01*
X359717Y157981D01*
X359696Y157901D01*
X359679Y157821D01*
X359666Y157740D01*
X359657Y157658D01*
X359651Y157576D01*
X359649Y157494D01*
X361427Y159272D02*
X361520Y159270D01*
X361612Y159264D01*
X361704Y159255D01*
X361796Y159242D01*
X361887Y159225D01*
X361977Y159205D01*
X362067Y159181D01*
X362155Y159153D01*
X362243Y159121D01*
X362328Y159087D01*
X362413Y159048D01*
X362495Y159007D01*
X362576Y158962D01*
X362656Y158913D01*
X362733Y158862D01*
X362808Y158808D01*
X362880Y158750D01*
X362951Y158690D01*
X363018Y158626D01*
X363083Y158561D01*
X363146Y158492D01*
X363205Y158421D01*
X363262Y158348D01*
X363316Y158272D01*
X363366Y158195D01*
X363414Y158115D01*
X363458Y158033D01*
X363498Y157950D01*
X363536Y157865D01*
X363570Y157779D01*
X363600Y157692D01*
X360242Y156111D02*
X360181Y156172D01*
X360123Y156235D01*
X360068Y156301D01*
X360015Y156369D01*
X359966Y156440D01*
X359921Y156512D01*
X359878Y156587D01*
X359839Y156663D01*
X359803Y156742D01*
X359771Y156821D01*
X359743Y156902D01*
X359718Y156985D01*
X359697Y157068D01*
X359680Y157152D01*
X359666Y157237D01*
X359657Y157322D01*
X359651Y157408D01*
X359649Y157494D01*
X360242Y156111D02*
X363600Y152160D01*
X359649Y152160D01*
D12*
X268221Y30099D02*
X268221Y24765D01*
X268221Y30099D02*
X266739Y30099D01*
X266663Y30097D01*
X266587Y30091D01*
X266511Y30081D01*
X266436Y30068D01*
X266362Y30050D01*
X266288Y30029D01*
X266216Y30004D01*
X266146Y29975D01*
X266076Y29943D01*
X266009Y29907D01*
X265944Y29867D01*
X265880Y29825D01*
X265819Y29779D01*
X265761Y29730D01*
X265705Y29678D01*
X265651Y29624D01*
X265601Y29566D01*
X265554Y29507D01*
X265509Y29444D01*
X265468Y29380D01*
X265431Y29314D01*
X265397Y29245D01*
X265366Y29175D01*
X265339Y29104D01*
X265316Y29031D01*
X265297Y28957D01*
X265281Y28883D01*
X265269Y28807D01*
X265261Y28731D01*
X265257Y28655D01*
X265257Y28579D01*
X265261Y28503D01*
X265269Y28427D01*
X265281Y28351D01*
X265297Y28277D01*
X265316Y28203D01*
X265339Y28130D01*
X265366Y28059D01*
X265397Y27989D01*
X265431Y27920D01*
X265468Y27854D01*
X265509Y27790D01*
X265554Y27727D01*
X265601Y27668D01*
X265651Y27610D01*
X265705Y27556D01*
X265761Y27504D01*
X265819Y27455D01*
X265880Y27409D01*
X265944Y27367D01*
X266009Y27327D01*
X266076Y27291D01*
X266146Y27259D01*
X266216Y27230D01*
X266288Y27205D01*
X266362Y27184D01*
X266436Y27166D01*
X266511Y27153D01*
X266587Y27143D01*
X266663Y27137D01*
X266739Y27135D01*
X266739Y27136D02*
X268221Y27136D01*
X262637Y24765D02*
X262637Y30099D01*
X263230Y24765D02*
X262045Y24765D01*
X262045Y30099D02*
X263230Y30099D01*
X259533Y24765D02*
X257162Y24765D01*
X259533Y24765D02*
X259533Y30099D01*
X257162Y30099D01*
X257755Y27728D02*
X259533Y27728D01*
X255158Y30099D02*
X252195Y30099D01*
X255158Y24765D01*
X252195Y24765D01*
X249854Y26247D02*
X249854Y28617D01*
X249855Y28617D02*
X249853Y28693D01*
X249847Y28769D01*
X249837Y28845D01*
X249824Y28920D01*
X249806Y28994D01*
X249785Y29068D01*
X249760Y29140D01*
X249731Y29210D01*
X249699Y29280D01*
X249663Y29347D01*
X249623Y29412D01*
X249581Y29476D01*
X249535Y29537D01*
X249486Y29595D01*
X249434Y29651D01*
X249380Y29705D01*
X249322Y29755D01*
X249263Y29802D01*
X249200Y29847D01*
X249136Y29888D01*
X249070Y29925D01*
X249001Y29959D01*
X248931Y29990D01*
X248860Y30017D01*
X248787Y30040D01*
X248713Y30059D01*
X248639Y30075D01*
X248563Y30087D01*
X248487Y30095D01*
X248411Y30099D01*
X248335Y30099D01*
X248259Y30095D01*
X248183Y30087D01*
X248107Y30075D01*
X248033Y30059D01*
X247959Y30040D01*
X247886Y30017D01*
X247815Y29990D01*
X247745Y29959D01*
X247676Y29925D01*
X247610Y29888D01*
X247546Y29847D01*
X247483Y29802D01*
X247424Y29755D01*
X247366Y29705D01*
X247312Y29651D01*
X247260Y29595D01*
X247211Y29537D01*
X247165Y29476D01*
X247123Y29412D01*
X247083Y29347D01*
X247047Y29280D01*
X247015Y29210D01*
X246986Y29140D01*
X246961Y29068D01*
X246940Y28994D01*
X246922Y28920D01*
X246909Y28845D01*
X246899Y28769D01*
X246893Y28693D01*
X246891Y28617D01*
X246891Y26247D01*
X246893Y26171D01*
X246899Y26095D01*
X246909Y26019D01*
X246922Y25944D01*
X246940Y25870D01*
X246961Y25796D01*
X246986Y25724D01*
X247015Y25654D01*
X247047Y25584D01*
X247083Y25517D01*
X247123Y25452D01*
X247165Y25388D01*
X247211Y25327D01*
X247260Y25269D01*
X247312Y25213D01*
X247366Y25159D01*
X247424Y25109D01*
X247483Y25062D01*
X247546Y25017D01*
X247610Y24976D01*
X247676Y24939D01*
X247745Y24905D01*
X247815Y24874D01*
X247886Y24847D01*
X247959Y24824D01*
X248033Y24805D01*
X248107Y24789D01*
X248183Y24777D01*
X248259Y24769D01*
X248335Y24765D01*
X248411Y24765D01*
X248487Y24769D01*
X248563Y24777D01*
X248639Y24789D01*
X248713Y24805D01*
X248787Y24824D01*
X248860Y24847D01*
X248931Y24874D01*
X249001Y24905D01*
X249070Y24939D01*
X249136Y24976D01*
X249200Y25017D01*
X249263Y25062D01*
X249322Y25109D01*
X249380Y25159D01*
X249434Y25213D01*
X249486Y25269D01*
X249535Y25327D01*
X249581Y25388D01*
X249623Y25452D01*
X249663Y25517D01*
X249699Y25584D01*
X249731Y25654D01*
X249760Y25724D01*
X249785Y25796D01*
X249806Y25870D01*
X249824Y25944D01*
X249837Y26019D01*
X249847Y26095D01*
X249853Y26171D01*
X249855Y26247D01*
D11*
X292637Y44704D02*
X292637Y51816D01*
X290661Y51816D01*
X290574Y51814D01*
X290486Y51808D01*
X290399Y51799D01*
X290313Y51785D01*
X290227Y51768D01*
X290143Y51747D01*
X290059Y51722D01*
X289976Y51693D01*
X289895Y51661D01*
X289815Y51626D01*
X289737Y51587D01*
X289660Y51544D01*
X289586Y51498D01*
X289514Y51449D01*
X289444Y51397D01*
X289376Y51341D01*
X289311Y51283D01*
X289248Y51222D01*
X289189Y51158D01*
X289132Y51091D01*
X289078Y51023D01*
X289027Y50951D01*
X288980Y50878D01*
X288935Y50803D01*
X288894Y50725D01*
X288857Y50646D01*
X288823Y50566D01*
X288793Y50484D01*
X288766Y50401D01*
X288743Y50316D01*
X288724Y50231D01*
X288709Y50145D01*
X288697Y50058D01*
X288689Y49971D01*
X288685Y49884D01*
X288685Y49796D01*
X288689Y49709D01*
X288697Y49622D01*
X288709Y49535D01*
X288724Y49449D01*
X288743Y49364D01*
X288766Y49279D01*
X288793Y49196D01*
X288823Y49114D01*
X288857Y49034D01*
X288894Y48955D01*
X288935Y48877D01*
X288980Y48802D01*
X289027Y48729D01*
X289078Y48657D01*
X289132Y48589D01*
X289189Y48522D01*
X289248Y48458D01*
X289311Y48397D01*
X289376Y48339D01*
X289444Y48283D01*
X289514Y48231D01*
X289586Y48182D01*
X289660Y48136D01*
X289737Y48093D01*
X289815Y48054D01*
X289895Y48019D01*
X289976Y47987D01*
X290059Y47958D01*
X290143Y47933D01*
X290227Y47912D01*
X290313Y47895D01*
X290399Y47881D01*
X290486Y47872D01*
X290574Y47866D01*
X290661Y47864D01*
X290661Y47865D02*
X292637Y47865D01*
X290266Y47865D02*
X288686Y44704D01*
X285382Y44704D02*
X283407Y44704D01*
X283320Y44706D01*
X283232Y44712D01*
X283145Y44721D01*
X283059Y44735D01*
X282973Y44752D01*
X282889Y44773D01*
X282805Y44798D01*
X282722Y44827D01*
X282641Y44859D01*
X282561Y44894D01*
X282483Y44933D01*
X282406Y44976D01*
X282332Y45022D01*
X282260Y45071D01*
X282190Y45123D01*
X282122Y45179D01*
X282057Y45237D01*
X281994Y45298D01*
X281935Y45362D01*
X281878Y45429D01*
X281824Y45497D01*
X281773Y45569D01*
X281726Y45642D01*
X281681Y45717D01*
X281640Y45795D01*
X281603Y45874D01*
X281569Y45954D01*
X281539Y46036D01*
X281512Y46119D01*
X281489Y46204D01*
X281470Y46289D01*
X281455Y46375D01*
X281443Y46462D01*
X281435Y46549D01*
X281431Y46636D01*
X281431Y46724D01*
X281435Y46811D01*
X281443Y46898D01*
X281455Y46985D01*
X281470Y47071D01*
X281489Y47156D01*
X281512Y47241D01*
X281539Y47324D01*
X281569Y47406D01*
X281603Y47486D01*
X281640Y47565D01*
X281681Y47643D01*
X281726Y47718D01*
X281773Y47791D01*
X281824Y47863D01*
X281878Y47931D01*
X281935Y47998D01*
X281994Y48062D01*
X282057Y48123D01*
X282122Y48181D01*
X282190Y48237D01*
X282260Y48289D01*
X282332Y48338D01*
X282406Y48384D01*
X282483Y48427D01*
X282561Y48466D01*
X282641Y48501D01*
X282722Y48533D01*
X282805Y48562D01*
X282889Y48587D01*
X282973Y48608D01*
X283059Y48625D01*
X283145Y48639D01*
X283232Y48648D01*
X283320Y48654D01*
X283407Y48656D01*
X283011Y51816D02*
X285382Y51816D01*
X283011Y51816D02*
X282932Y51814D01*
X282854Y51808D01*
X282776Y51798D01*
X282698Y51785D01*
X282621Y51767D01*
X282545Y51746D01*
X282471Y51721D01*
X282397Y51692D01*
X282325Y51660D01*
X282255Y51624D01*
X282187Y51584D01*
X282121Y51541D01*
X282057Y51495D01*
X281995Y51446D01*
X281936Y51394D01*
X281880Y51339D01*
X281826Y51281D01*
X281776Y51221D01*
X281728Y51158D01*
X281684Y51093D01*
X281643Y51026D01*
X281605Y50957D01*
X281571Y50886D01*
X281540Y50813D01*
X281513Y50739D01*
X281490Y50664D01*
X281471Y50588D01*
X281455Y50510D01*
X281443Y50432D01*
X281435Y50354D01*
X281431Y50275D01*
X281431Y50197D01*
X281435Y50118D01*
X281443Y50040D01*
X281455Y49962D01*
X281471Y49884D01*
X281490Y49808D01*
X281513Y49733D01*
X281540Y49659D01*
X281571Y49586D01*
X281605Y49515D01*
X281643Y49446D01*
X281684Y49379D01*
X281728Y49314D01*
X281776Y49251D01*
X281826Y49191D01*
X281880Y49133D01*
X281936Y49078D01*
X281995Y49026D01*
X282057Y48977D01*
X282121Y48931D01*
X282187Y48888D01*
X282255Y48848D01*
X282325Y48812D01*
X282397Y48780D01*
X282471Y48751D01*
X282545Y48726D01*
X282621Y48705D01*
X282698Y48687D01*
X282776Y48674D01*
X282854Y48664D01*
X282932Y48658D01*
X283011Y48656D01*
X283011Y48655D02*
X284592Y48655D01*
X499873Y159766D02*
X499873Y166878D01*
X497897Y166878D01*
X497810Y166876D01*
X497722Y166870D01*
X497635Y166861D01*
X497549Y166847D01*
X497463Y166830D01*
X497379Y166809D01*
X497295Y166784D01*
X497212Y166755D01*
X497131Y166723D01*
X497051Y166688D01*
X496973Y166649D01*
X496896Y166606D01*
X496822Y166560D01*
X496750Y166511D01*
X496680Y166459D01*
X496612Y166403D01*
X496547Y166345D01*
X496484Y166284D01*
X496425Y166220D01*
X496368Y166153D01*
X496314Y166085D01*
X496263Y166013D01*
X496216Y165940D01*
X496171Y165865D01*
X496130Y165787D01*
X496093Y165708D01*
X496059Y165628D01*
X496029Y165546D01*
X496002Y165463D01*
X495979Y165378D01*
X495960Y165293D01*
X495945Y165207D01*
X495933Y165120D01*
X495925Y165033D01*
X495921Y164946D01*
X495921Y164858D01*
X495925Y164771D01*
X495933Y164684D01*
X495945Y164597D01*
X495960Y164511D01*
X495979Y164426D01*
X496002Y164341D01*
X496029Y164258D01*
X496059Y164176D01*
X496093Y164096D01*
X496130Y164017D01*
X496171Y163939D01*
X496216Y163864D01*
X496263Y163791D01*
X496314Y163719D01*
X496368Y163651D01*
X496425Y163584D01*
X496484Y163520D01*
X496547Y163459D01*
X496612Y163401D01*
X496680Y163345D01*
X496750Y163293D01*
X496822Y163244D01*
X496896Y163198D01*
X496973Y163155D01*
X497051Y163116D01*
X497131Y163081D01*
X497212Y163049D01*
X497295Y163020D01*
X497379Y162995D01*
X497463Y162974D01*
X497549Y162957D01*
X497635Y162943D01*
X497722Y162934D01*
X497810Y162928D01*
X497897Y162926D01*
X497897Y162927D02*
X499873Y162927D01*
X497502Y162927D02*
X495922Y159766D01*
X492618Y159766D02*
X490247Y159766D01*
X490169Y159768D01*
X490092Y159774D01*
X490015Y159783D01*
X489939Y159796D01*
X489863Y159813D01*
X489788Y159834D01*
X489715Y159858D01*
X489642Y159886D01*
X489571Y159918D01*
X489502Y159953D01*
X489435Y159991D01*
X489369Y160032D01*
X489306Y160077D01*
X489245Y160125D01*
X489186Y160175D01*
X489130Y160229D01*
X489076Y160285D01*
X489026Y160344D01*
X488978Y160405D01*
X488933Y160468D01*
X488892Y160534D01*
X488854Y160601D01*
X488819Y160670D01*
X488787Y160741D01*
X488759Y160814D01*
X488735Y160887D01*
X488714Y160962D01*
X488697Y161038D01*
X488684Y161114D01*
X488675Y161191D01*
X488669Y161268D01*
X488667Y161346D01*
X488667Y162137D01*
X488669Y162215D01*
X488675Y162292D01*
X488684Y162369D01*
X488697Y162445D01*
X488714Y162521D01*
X488735Y162596D01*
X488759Y162669D01*
X488787Y162742D01*
X488819Y162813D01*
X488854Y162882D01*
X488892Y162949D01*
X488933Y163015D01*
X488978Y163078D01*
X489026Y163139D01*
X489076Y163198D01*
X489130Y163254D01*
X489186Y163308D01*
X489245Y163358D01*
X489306Y163406D01*
X489369Y163451D01*
X489435Y163492D01*
X489502Y163530D01*
X489571Y163565D01*
X489642Y163597D01*
X489715Y163625D01*
X489788Y163649D01*
X489863Y163670D01*
X489939Y163687D01*
X490015Y163700D01*
X490092Y163709D01*
X490169Y163715D01*
X490247Y163717D01*
X492618Y163717D01*
X492618Y166878D01*
X488667Y166878D01*
X179593Y76722D02*
X179593Y69610D01*
X179593Y76722D02*
X177617Y76722D01*
X177530Y76720D01*
X177442Y76714D01*
X177355Y76705D01*
X177269Y76691D01*
X177183Y76674D01*
X177099Y76653D01*
X177015Y76628D01*
X176932Y76599D01*
X176851Y76567D01*
X176771Y76532D01*
X176693Y76493D01*
X176616Y76450D01*
X176542Y76404D01*
X176470Y76355D01*
X176400Y76303D01*
X176332Y76247D01*
X176267Y76189D01*
X176204Y76128D01*
X176145Y76064D01*
X176088Y75997D01*
X176034Y75929D01*
X175983Y75857D01*
X175936Y75784D01*
X175891Y75709D01*
X175850Y75631D01*
X175813Y75552D01*
X175779Y75472D01*
X175749Y75390D01*
X175722Y75307D01*
X175699Y75222D01*
X175680Y75137D01*
X175665Y75051D01*
X175653Y74964D01*
X175645Y74877D01*
X175641Y74790D01*
X175641Y74702D01*
X175645Y74615D01*
X175653Y74528D01*
X175665Y74441D01*
X175680Y74355D01*
X175699Y74270D01*
X175722Y74185D01*
X175749Y74102D01*
X175779Y74020D01*
X175813Y73940D01*
X175850Y73861D01*
X175891Y73783D01*
X175936Y73708D01*
X175983Y73635D01*
X176034Y73563D01*
X176088Y73495D01*
X176145Y73428D01*
X176204Y73364D01*
X176267Y73303D01*
X176332Y73245D01*
X176400Y73189D01*
X176470Y73137D01*
X176542Y73088D01*
X176616Y73042D01*
X176693Y72999D01*
X176771Y72960D01*
X176851Y72925D01*
X176932Y72893D01*
X177015Y72864D01*
X177099Y72839D01*
X177183Y72818D01*
X177269Y72801D01*
X177355Y72787D01*
X177442Y72778D01*
X177530Y72772D01*
X177617Y72770D01*
X177617Y72771D02*
X179593Y72771D01*
X177222Y72771D02*
X175642Y69610D01*
X172338Y73561D02*
X169967Y73561D01*
X169889Y73559D01*
X169812Y73553D01*
X169735Y73544D01*
X169659Y73531D01*
X169583Y73514D01*
X169508Y73493D01*
X169435Y73469D01*
X169362Y73441D01*
X169291Y73409D01*
X169222Y73374D01*
X169155Y73336D01*
X169089Y73295D01*
X169026Y73250D01*
X168965Y73202D01*
X168906Y73152D01*
X168850Y73098D01*
X168796Y73042D01*
X168746Y72983D01*
X168698Y72922D01*
X168653Y72859D01*
X168612Y72793D01*
X168574Y72726D01*
X168539Y72657D01*
X168507Y72586D01*
X168479Y72513D01*
X168455Y72440D01*
X168434Y72365D01*
X168417Y72289D01*
X168404Y72213D01*
X168395Y72136D01*
X168389Y72059D01*
X168387Y71981D01*
X168387Y71586D01*
X168389Y71499D01*
X168395Y71411D01*
X168404Y71324D01*
X168418Y71238D01*
X168435Y71152D01*
X168456Y71068D01*
X168481Y70984D01*
X168510Y70901D01*
X168542Y70820D01*
X168577Y70740D01*
X168616Y70662D01*
X168659Y70585D01*
X168705Y70511D01*
X168754Y70439D01*
X168806Y70369D01*
X168862Y70301D01*
X168920Y70236D01*
X168981Y70173D01*
X169045Y70114D01*
X169112Y70057D01*
X169180Y70003D01*
X169252Y69952D01*
X169325Y69905D01*
X169400Y69860D01*
X169478Y69819D01*
X169557Y69782D01*
X169637Y69748D01*
X169719Y69718D01*
X169802Y69691D01*
X169887Y69668D01*
X169972Y69649D01*
X170058Y69634D01*
X170145Y69622D01*
X170232Y69614D01*
X170319Y69610D01*
X170407Y69610D01*
X170494Y69614D01*
X170581Y69622D01*
X170668Y69634D01*
X170754Y69649D01*
X170839Y69668D01*
X170924Y69691D01*
X171007Y69718D01*
X171089Y69748D01*
X171169Y69782D01*
X171248Y69819D01*
X171326Y69860D01*
X171401Y69905D01*
X171474Y69952D01*
X171546Y70003D01*
X171614Y70057D01*
X171681Y70114D01*
X171745Y70173D01*
X171806Y70236D01*
X171864Y70301D01*
X171920Y70369D01*
X171972Y70439D01*
X172021Y70511D01*
X172067Y70585D01*
X172110Y70662D01*
X172149Y70740D01*
X172184Y70820D01*
X172216Y70901D01*
X172245Y70984D01*
X172270Y71068D01*
X172291Y71152D01*
X172308Y71238D01*
X172322Y71324D01*
X172331Y71411D01*
X172337Y71499D01*
X172339Y71586D01*
X172338Y71586D02*
X172338Y73561D01*
X172336Y73671D01*
X172330Y73782D01*
X172321Y73891D01*
X172307Y74001D01*
X172290Y74110D01*
X172269Y74218D01*
X172244Y74326D01*
X172216Y74432D01*
X172183Y74538D01*
X172147Y74642D01*
X172108Y74745D01*
X172065Y74847D01*
X172018Y74947D01*
X171968Y75045D01*
X171915Y75142D01*
X171858Y75236D01*
X171798Y75329D01*
X171734Y75419D01*
X171668Y75507D01*
X171598Y75593D01*
X171526Y75676D01*
X171451Y75757D01*
X171373Y75835D01*
X171292Y75910D01*
X171209Y75982D01*
X171123Y76052D01*
X171035Y76118D01*
X170945Y76182D01*
X170852Y76242D01*
X170758Y76299D01*
X170661Y76352D01*
X170563Y76402D01*
X170463Y76449D01*
X170361Y76492D01*
X170258Y76531D01*
X170154Y76567D01*
X170048Y76600D01*
X169942Y76628D01*
X169834Y76653D01*
X169726Y76674D01*
X169617Y76691D01*
X169507Y76705D01*
X169398Y76714D01*
X169287Y76720D01*
X169177Y76722D01*
M02*
