G04 EAGLE Gerber RS-274X export*
G75*
%MOMM*%
%FSLAX34Y34*%
%LPD*%
%INSolderpaste Top*%
%IPPOS*%
%AMOC8*
5,1,8,0,0,1.08239X$1,22.5*%
G01*
%ADD10C,0.500000*%
%ADD11R,0.600000X0.500000*%
%ADD12R,0.700000X1.600000*%
%ADD13R,1.200000X1.600000*%
%ADD14R,1.200000X2.200000*%
%ADD15R,1.600000X1.400000*%
%ADD16R,1.500000X1.000000*%
%ADD17R,1.100000X0.600000*%
%ADD18R,1.900000X1.800000*%
%ADD19R,1.900000X1.900000*%
%ADD20R,1.600000X2.100000*%
%ADD21R,1.350000X0.400000*%
%ADD22R,1.100000X1.000000*%
%ADD23R,1.000000X1.100000*%
%ADD24R,0.500000X0.600000*%
%ADD25R,1.600000X1.200000*%
%ADD26R,1.600000X0.600000*%


D10*
X26670Y12954D03*
X26670Y25654D03*
X26670Y38354D03*
X26670Y51054D03*
X26670Y63754D03*
X26670Y76454D03*
X26670Y89154D03*
X26670Y101854D03*
X26670Y114554D03*
X26670Y127254D03*
X26670Y139954D03*
X26670Y152654D03*
X26670Y165354D03*
X26670Y178054D03*
X26670Y190754D03*
X26670Y203454D03*
X39370Y12954D03*
X39370Y25654D03*
X39370Y38354D03*
X39370Y51054D03*
X39370Y63754D03*
X39370Y76454D03*
X39370Y89154D03*
X39370Y101854D03*
X39370Y114554D03*
X39370Y127254D03*
X39370Y139954D03*
X39370Y152654D03*
X39370Y165354D03*
X39370Y178054D03*
X39370Y190754D03*
X39370Y203454D03*
X52070Y12954D03*
X52070Y25654D03*
X52070Y38354D03*
X52070Y51054D03*
X52070Y63754D03*
X52070Y76454D03*
X52070Y89154D03*
X52070Y101854D03*
X52070Y114554D03*
X52070Y127254D03*
X52070Y139954D03*
X52070Y152654D03*
X52070Y165354D03*
X52070Y178054D03*
X52070Y190754D03*
X52070Y203454D03*
X64770Y12954D03*
X64770Y25654D03*
X64770Y38354D03*
X64770Y51054D03*
X64770Y63754D03*
X64770Y76454D03*
X64770Y89154D03*
X64770Y101854D03*
X64770Y114554D03*
X64770Y127254D03*
X64770Y139954D03*
X64770Y152654D03*
X64770Y165354D03*
X64770Y178054D03*
X64770Y190754D03*
X64770Y203454D03*
X77470Y12954D03*
X77470Y25654D03*
X77470Y38354D03*
X77470Y51054D03*
X77470Y63754D03*
X77470Y76454D03*
X77470Y89154D03*
X77470Y101854D03*
X77470Y114554D03*
X77470Y127254D03*
X77470Y139954D03*
X77470Y152654D03*
X77470Y165354D03*
X77470Y178054D03*
X77470Y190754D03*
X77470Y203454D03*
X90170Y12954D03*
X90170Y25654D03*
X90170Y38354D03*
X90170Y51054D03*
X90170Y63754D03*
X90170Y76454D03*
X90170Y89154D03*
X90170Y101854D03*
X90170Y114554D03*
X90170Y127254D03*
X90170Y139954D03*
X90170Y152654D03*
X90170Y165354D03*
X90170Y178054D03*
X90170Y190754D03*
X90170Y203454D03*
X102870Y12954D03*
X102870Y25654D03*
X102870Y38354D03*
X102870Y51054D03*
X102870Y63754D03*
X102870Y76454D03*
X102870Y89154D03*
X102870Y101854D03*
X102870Y114554D03*
X102870Y127254D03*
X102870Y139954D03*
X102870Y152654D03*
X102870Y165354D03*
X102870Y178054D03*
X102870Y190754D03*
X102870Y203454D03*
X115570Y12954D03*
X115570Y25654D03*
X115570Y38354D03*
X115570Y51054D03*
X115570Y63754D03*
X115570Y76454D03*
X115570Y89154D03*
X115570Y101854D03*
X115570Y114554D03*
X115570Y127254D03*
X115570Y139954D03*
X115570Y152654D03*
X115570Y165354D03*
X115570Y178054D03*
X115570Y190754D03*
X115570Y203454D03*
X128270Y12954D03*
X128270Y25654D03*
X128270Y38354D03*
X128270Y51054D03*
X128270Y63754D03*
X128270Y76454D03*
X128270Y89154D03*
X128270Y101854D03*
X128270Y114554D03*
X128270Y127254D03*
X128270Y139954D03*
X128270Y152654D03*
X128270Y165354D03*
X128270Y178054D03*
X128270Y190754D03*
X128270Y203454D03*
X140970Y12954D03*
X140970Y25654D03*
X140970Y38354D03*
X140970Y51054D03*
X140970Y63754D03*
X140970Y76454D03*
X140970Y89154D03*
X140970Y101854D03*
X140970Y114554D03*
X140970Y127254D03*
X140970Y139954D03*
X140970Y152654D03*
X140970Y165354D03*
X140970Y178054D03*
X140970Y190754D03*
X140970Y203454D03*
X153670Y12954D03*
X153670Y25654D03*
X153670Y38354D03*
X153670Y51054D03*
X153670Y63754D03*
X153670Y76454D03*
X153670Y89154D03*
X153670Y101854D03*
X153670Y114554D03*
X153670Y127254D03*
X153670Y139954D03*
X153670Y152654D03*
X153670Y165354D03*
X153670Y178054D03*
X153670Y190754D03*
X153670Y203454D03*
X166370Y12954D03*
X166370Y25654D03*
X166370Y38354D03*
X166370Y51054D03*
X166370Y63754D03*
X166370Y76454D03*
X166370Y89154D03*
X166370Y101854D03*
X166370Y114554D03*
X166370Y127254D03*
X166370Y139954D03*
X166370Y152654D03*
X166370Y165354D03*
X166370Y178054D03*
X166370Y190754D03*
X166370Y203454D03*
X179070Y12954D03*
X179070Y25654D03*
X179070Y38354D03*
X179070Y51054D03*
X179070Y63754D03*
X179070Y76454D03*
X179070Y89154D03*
X179070Y101854D03*
X179070Y114554D03*
X179070Y127254D03*
X179070Y139954D03*
X179070Y152654D03*
X179070Y165354D03*
X179070Y178054D03*
X179070Y190754D03*
X179070Y203454D03*
X191770Y12954D03*
X191770Y25654D03*
X191770Y38354D03*
X191770Y51054D03*
X191770Y63754D03*
X191770Y76454D03*
X191770Y89154D03*
X191770Y101854D03*
X191770Y114554D03*
X191770Y127254D03*
X191770Y139954D03*
X191770Y152654D03*
X191770Y165354D03*
X191770Y178054D03*
X191770Y190754D03*
X191770Y203454D03*
X204470Y12954D03*
X204470Y25654D03*
X204470Y38354D03*
X204470Y51054D03*
X204470Y63754D03*
X204470Y76454D03*
X204470Y89154D03*
X204470Y101854D03*
X204470Y114554D03*
X204470Y127254D03*
X204470Y139954D03*
X204470Y152654D03*
X204470Y165354D03*
X204470Y178054D03*
X204470Y190754D03*
X204470Y203454D03*
X217170Y12954D03*
X217170Y25654D03*
X217170Y38354D03*
X217170Y51054D03*
X217170Y63754D03*
X217170Y76454D03*
X217170Y89154D03*
X217170Y101854D03*
X217170Y114554D03*
X217170Y127254D03*
X217170Y139954D03*
X217170Y152654D03*
X217170Y165354D03*
X217170Y178054D03*
X217170Y190754D03*
X217170Y203454D03*
D11*
X7620Y104220D03*
X7620Y114220D03*
D12*
X64966Y252730D03*
X75966Y252730D03*
X86966Y252730D03*
X97966Y252730D03*
X108966Y252730D03*
X119966Y252730D03*
X130966Y252730D03*
X141966Y252730D03*
X152966Y252730D03*
D13*
X164566Y258730D03*
D14*
X164466Y353730D03*
X9466Y353730D03*
D15*
X18466Y257730D03*
D16*
X223560Y267460D03*
X223560Y287460D03*
X223560Y307460D03*
X223560Y327460D03*
X223560Y347460D03*
X223560Y367460D03*
X223560Y388460D03*
D11*
X208280Y277702D03*
X208280Y287702D03*
D17*
X407250Y51006D03*
X407250Y60506D03*
X407250Y70006D03*
X379250Y51006D03*
X379250Y70006D03*
D18*
X492760Y12800D03*
D19*
X492760Y38800D03*
X492760Y62800D03*
D18*
X492760Y88800D03*
D20*
X467260Y81800D03*
X467260Y19800D03*
D21*
X466010Y50800D03*
X466010Y44300D03*
X466010Y63800D03*
X466010Y57300D03*
X466010Y37800D03*
D22*
X337820Y69968D03*
X337820Y52968D03*
D23*
X433460Y71120D03*
X450460Y71120D03*
D24*
X355172Y51054D03*
X365172Y51054D03*
D25*
X484220Y115760D03*
X484220Y151760D03*
D26*
X442220Y128760D03*
X442220Y138760D03*
M02*
