G04 EAGLE Gerber RS-274X export*
G75*
%MOMM*%
%FSLAX34Y34*%
%LPD*%
%INSoldermask Bottom*%
%IPPOS*%
%AMOC8*
5,1,8,0,0,1.08239X$1,22.5*%
G01*
%ADD10R,1.662000X1.662000*%
%ADD11C,1.252400*%
%ADD12C,1.152400*%
%ADD13R,0.650241X0.652400*%
%ADD14R,0.452400X0.652400*%
%ADD15R,0.652400X0.752400*%
%ADD16P,1.814519X8X202.500000*%
%ADD17R,0.752400X0.652400*%
%ADD18C,1.574800*%


D10*
X289560Y144780D03*
X340360Y144780D03*
X340360Y220980D03*
X289560Y220980D03*
X391160Y144780D03*
X391160Y220980D03*
D11*
X416560Y144780D03*
X264160Y220980D03*
D12*
X136466Y357730D03*
X56466Y357730D03*
D13*
X117739Y283544D03*
D14*
X112228Y283544D03*
X107228Y283544D03*
D13*
X101717Y283544D03*
X101717Y293544D03*
D14*
X107228Y293544D03*
X112228Y293544D03*
D13*
X117739Y293544D03*
X22743Y223346D03*
D14*
X17232Y223346D03*
X12232Y223346D03*
D13*
X6721Y223346D03*
X6721Y233346D03*
D14*
X12232Y233346D03*
X17232Y233346D03*
D13*
X22743Y233346D03*
D15*
X360252Y144780D03*
X370252Y144780D03*
D16*
X270256Y11684D03*
X244856Y11684D03*
D17*
X286004Y40052D03*
X286004Y30052D03*
D18*
X457200Y175768D02*
X457200Y189992D01*
X482600Y189992D02*
X482600Y175768D01*
D17*
X482600Y154004D03*
X482600Y164004D03*
D15*
X168990Y62230D03*
X178990Y62230D03*
M02*
